<?xml version="1.0" standalone="no"?>
<!DOCTYPE svg PUBLIC "-//W3C//DTD SVG 20010904//EN"
 "http://www.w3.org/TR/2001/REC-SVG-20010904/DTD/svg10.dtd">
<svg version="1.0" xmlns="http://www.w3.org/2000/svg"
 width="900.000000pt" height="291.000000pt" viewBox="0 0 900.000000 291.000000"
 preserveAspectRatio="xMidYMid meet">
<metadata>
Created by potrace 1.10, written by Peter Selinger 2001-2011
</metadata>
<g transform="translate(0.000000,291.000000) scale(0.100000,-0.100000)"
fill="#000000" stroke="none">
<path d="M570 2730 c-8 -5 -27 -10 -41 -10 -28 0 -84 -23 -134 -54 -42 -27
-125 -107 -136 -131 -5 -11 -19 -36 -30 -55 -50 -82 -49 -76 -55 -1040 -6
-884 -6 -907 14 -980 11 -41 26 -86 34 -100 58 -106 124 -170 228 -222 l65
-33 985 0 985 0 69 34 c92 45 182 135 227 227 l34 69 -1 985 -1 985 -37 70
c-37 69 -123 168 -161 186 -11 5 -35 18 -54 30 -18 11 -54 25 -80 32 -60 14
-1889 22 -1911 7z m270 -76 c66 -4 120 -8 120 -10 0 -13 -63 -59 -129 -95 -45
-24 -81 -46 -81 -50 0 -4 -25 -23 -55 -41 -30 -18 -55 -38 -55 -44 0 -7 -10
-18 -22 -26 -37 -25 -156 -143 -175 -175 -62 -102 -127 -183 -147 -183 -25 0
-37 164 -23 330 2 33 47 120 84 167 26 31 111 93 127 93 8 0 17 4 20 9 3 4 31
13 63 19 32 7 67 14 78 16 11 2 32 3 47 0 15 -2 82 -6 148 -10z m905 -13 c67
-14 146 -37 192 -57 17 -8 38 -14 47 -14 9 0 16 -4 16 -9 0 -5 11 -12 25 -15
33 -8 165 -88 235 -142 70 -54 144 -126 195 -189 22 -28 45 -55 50 -61 47 -53
146 -240 159 -301 4 -18 12 -35 17 -38 5 -4 9 -17 9 -31 0 -14 6 -37 14 -52 7
-15 19 -83 25 -152 7 -69 14 -133 16 -142 5 -30 -30 -312 -43 -335 -7 -12 -12
-33 -12 -47 0 -14 -4 -27 -9 -31 -5 -3 -13 -20 -17 -38 -7 -34 -63 -152 -94
-202 -11 -16 -24 -39 -29 -50 -5 -11 -17 -29 -28 -40 -10 -11 -36 -43 -57 -70
-43 -54 -116 -127 -166 -166 -17 -13 -46 -36 -63 -51 -18 -15 -36 -28 -41 -28
-5 0 -17 -7 -26 -15 -21 -19 -187 -101 -223 -110 -15 -4 -30 -11 -33 -16 -3
-5 -15 -9 -27 -9 -12 0 -42 -6 -67 -14 -56 -18 -248 -46 -314 -46 -65 0 -250
28 -306 46 -25 8 -52 14 -61 14 -9 0 -30 7 -45 15 -16 8 -36 15 -44 15 -8 0
-24 7 -34 15 -11 8 -28 15 -38 15 -10 0 -18 4 -18 9 0 5 -12 14 -27 20 -132
53 -345 239 -448 392 -39 58 -46 71 -87 154 -97 195 -119 291 -125 535 -4 179
2 234 44 380 41 144 139 326 233 434 89 102 293 276 326 276 7 0 14 4 16 8 4
11 152 82 171 82 7 0 17 3 20 6 13 13 113 43 167 50 30 4 64 10 75 15 28 12
358 4 430 -10z m730 -5 c22 -8 47 -15 55 -16 23 0 129 -116 163 -179 30 -54
31 -60 32 -191 1 -159 -4 -242 -15 -238 -13 5 -100 116 -100 127 0 28 -245
286 -295 311 -17 8 -47 30 -69 48 -21 19 -61 44 -88 57 -48 22 -108 70 -108
86 0 21 368 16 425 -5z m-2095 -1930 c22 -34 40 -72 40 -84 0 -14 6 -22 18
-22 9 -1 37 -26 62 -57 39 -49 134 -136 209 -191 13 -9 37 -29 55 -43 17 -14
48 -36 68 -48 45 -27 46 -35 13 -57 -38 -25 -235 -21 -285 5 -20 10 -50 22
-68 26 -55 12 -140 99 -178 184 -33 71 -34 79 -36 206 0 72 2 136 5 142 16 26
57 -1 97 -61z m2335 -82 l-1 -152 -33 -63 c-40 -78 -76 -117 -151 -163 -66
-41 -141 -55 -288 -56 -77 0 -94 3 -99 16 -8 23 9 48 36 52 12 2 28 17 36 33
9 16 20 29 25 29 31 0 193 143 274 243 15 18 44 53 66 78 22 25 40 54 40 63 0
25 56 78 77 74 16 -3 18 -18 18 -154z"/>
<path d="M1328 2569 c-43 -4 -85 -12 -95 -17 -10 -5 -37 -13 -60 -17 -24 -4
-45 -11 -49 -16 -3 -5 -13 -9 -23 -9 -23 0 -190 -85 -266 -135 -103 -68 -305
-276 -305 -314 0 -6 -4 -11 -9 -11 -5 0 -13 -10 -17 -22 -4 -13 -10 -25 -14
-28 -12 -8 -80 -156 -80 -173 0 -9 -4 -18 -9 -21 -5 -4 -12 -25 -16 -49 -4
-23 -12 -50 -17 -60 -40 -77 -40 -463 0 -568 5 -13 20 -57 32 -97 12 -40 26
-75 31 -78 5 -3 9 -14 9 -24 0 -10 7 -25 15 -34 8 -8 15 -18 15 -21 0 -8 70
-127 80 -135 3 -3 29 -34 57 -70 64 -82 179 -183 268 -237 59 -36 227 -113
275 -126 30 -9 73 -21 95 -28 22 -6 124 -14 226 -16 149 -4 198 -2 248 11 34
9 70 16 79 16 9 0 30 7 46 15 15 8 35 15 43 15 8 0 27 6 41 14 15 7 59 28 97
47 107 51 191 112 293 212 145 144 247 312 295 487 9 30 21 73 27 95 16 55 24
347 11 415 -18 96 -30 150 -46 198 -16 49 -104 233 -115 242 -3 3 -17 23 -30
45 -42 68 -164 199 -238 255 -19 14 -39 30 -45 35 -62 56 -323 175 -382 175
-12 0 -25 4 -30 9 -13 13 -197 31 -289 30 -39 -1 -106 -5 -148 -10z m367 -70
c28 -6 60 -15 73 -20 13 -5 32 -9 44 -9 11 0 41 -11 67 -24 25 -13 66 -32 91
-42 25 -9 50 -22 55 -28 6 -6 23 -17 39 -24 59 -26 266 -208 266 -234 0 -4 24
-39 54 -77 125 -162 196 -374 197 -591 1 -70 -6 -146 -16 -195 -9 -44 -20
-104 -26 -132 -10 -57 -45 -133 -66 -146 -7 -4 -13 -17 -13 -27 0 -21 -33 -90
-64 -133 -18 -25 -76 -71 -63 -50 4 5 -5 26 -18 46 -14 20 -25 43 -25 51 0 9
-13 38 -30 64 -16 27 -33 63 -36 79 -5 27 -1 35 41 69 61 51 76 88 77 199 1
100 -9 130 -60 178 -39 38 -85 47 -216 46 l-109 -1 -13 28 c-8 16 -22 41 -31
55 -65 94 -93 139 -93 148 0 6 -13 26 -30 44 -16 19 -30 37 -30 41 0 10 -77
132 -115 182 -21 27 -41 58 -46 71 -4 12 -22 32 -38 44 -17 13 -31 29 -31 36
0 7 -8 13 -18 13 -10 0 -28 7 -40 16 -23 16 -52 13 -52 -6 0 -5 9 -10 19 -10
11 0 23 -9 26 -20 3 -11 11 -20 16 -20 5 0 9 -5 9 -11 0 -14 71 -133 82 -137
4 -2 8 -9 8 -16 0 -7 12 -31 28 -53 36 -52 50 -74 62 -98 6 -11 19 -33 30 -50
11 -16 24 -39 30 -50 6 -11 19 -33 30 -50 11 -16 24 -39 30 -50 6 -11 19 -33
29 -50 11 -16 38 -67 61 -113 23 -45 46 -85 51 -88 23 -14 6 -41 -43 -67 l-52
-28 -19 25 c-29 40 -153 280 -217 421 -48 103 -77 168 -84 185 -3 8 -10 22
-15 30 -5 8 -19 38 -31 65 -13 28 -28 57 -35 65 -7 8 -15 27 -19 43 -4 17 -13
27 -25 27 -14 0 -20 -10 -24 -42 -3 -23 -1 -48 4 -55 12 -13 3 -53 -12 -53 -5
0 -9 -6 -9 -13 0 -7 -18 -30 -40 -51 -58 -55 -128 -148 -152 -203 -11 -27 -33
-62 -47 -79 -14 -18 -39 -51 -54 -73 -33 -47 -80 -72 -114 -60 -32 12 -101 12
-153 1 -32 -7 -54 -21 -75 -45 -33 -38 -65 -124 -65 -175 0 -62 21 -131 46
-151 13 -10 24 -22 24 -26 0 -4 9 -19 19 -34 32 -44 35 -74 12 -119 -16 -31
-21 -60 -21 -114 0 -91 11 -112 39 -77 11 13 23 41 26 61 4 21 11 40 16 44 5
3 9 22 9 42 0 48 11 65 36 55 26 -10 87 -52 95 -65 4 -6 -22 -38 -57 -70 -35
-33 -64 -64 -64 -70 0 -5 -11 -19 -25 -32 -14 -13 -25 -26 -25 -30 0 -16 71 4
96 27 16 15 35 27 42 27 7 0 15 6 18 14 3 7 27 27 53 45 35 22 50 39 54 60 4
16 14 32 24 35 10 3 25 17 33 30 8 13 33 46 55 74 l40 51 245 -6 c226 -5 316
0 371 22 20 7 69 -40 69 -67 0 -9 4 -19 9 -23 6 -3 19 -27 31 -53 12 -26 33
-72 47 -102 48 -107 57 -121 100 -160 23 -22 52 -40 63 -40 15 0 20 -7 20 -25
0 -31 -59 -86 -108 -101 -20 -6 -37 -17 -37 -24 0 -7 -22 -19 -50 -27 -27 -8
-55 -21 -61 -28 -5 -8 -23 -17 -40 -20 -16 -4 -36 -9 -44 -12 -21 -8 -36 -11
-105 -19 -33 -4 -72 -13 -87 -20 -17 -9 -29 -10 -33 -4 -8 13 -59 13 -107 -2
-29 -9 -41 -9 -50 0 -7 7 -26 12 -43 12 -17 0 -36 5 -41 10 -6 6 -41 12 -80
14 -52 2 -92 12 -159 40 -49 21 -97 44 -105 51 -8 8 -27 18 -42 24 -44 17
-149 101 -230 186 -43 44 -78 83 -78 87 0 4 -14 22 -31 40 -17 18 -37 47 -46
63 -8 17 -21 37 -28 45 -7 8 -15 30 -18 47 -4 18 -18 50 -32 71 -16 24 -28 60
-32 93 -3 30 -12 66 -20 82 -8 15 -18 83 -22 150 -10 140 6 321 33 362 9 13
16 35 16 47 0 13 7 32 15 42 8 11 15 27 15 36 0 9 15 42 32 74 18 32 40 71 49
87 52 101 223 274 344 347 64 39 162 87 211 102 22 7 47 16 56 21 84 42 364
58 503 28z m-230 -636 c16 -18 25 -39 25 -60 0 -38 -11 -40 -55 -12 -16 10
-42 24 -57 30 -32 12 -47 47 -27 60 8 5 31 9 51 9 28 0 44 -7 63 -27z m-93
-92 c24 -16 53 -32 66 -35 24 -8 29 -37 10 -54 -7 -6 -22 -31 -33 -56 -11 -25
-23 -46 -27 -46 -4 0 -27 14 -51 30 -25 17 -49 30 -54 30 -5 0 -19 11 -31 23
l-22 24 25 37 c14 20 25 43 25 51 0 13 14 23 37 24 7 1 31 -12 55 -28z m-119
-171 c14 -11 28 -20 31 -20 2 0 21 -9 40 -21 39 -23 39 -21 -12 -101 -9 -14
-41 -66 -70 -115 -29 -48 -57 -95 -62 -103 -5 -8 -21 -37 -35 -65 -14 -27 -34
-63 -45 -80 -10 -16 -32 -58 -49 -91 -16 -34 -36 -64 -44 -67 -22 -8 -147 70
-147 92 0 11 7 21 15 25 8 3 15 10 15 15 0 6 13 29 29 53 16 24 39 61 51 83
11 22 37 67 56 100 18 33 45 83 60 110 14 28 41 77 60 110 19 33 38 68 41 78
7 23 34 22 66 -3z m304 -53 l6 -37 -42 0 c-40 0 -41 1 -41 34 0 24 7 38 23 49
28 20 45 5 54 -46z m-552 -147 c4 -6 -7 -28 -24 -49 -17 -21 -31 -43 -31 -48
0 -5 -6 -15 -12 -21 -7 -7 -29 -43 -49 -80 l-36 -67 -56 -3 -56 -3 -3 128 c-2
70 -1 134 1 141 4 15 256 17 266 2z m667 1 c4 -1 19 -24 33 -53 14 -28 39 -71
55 -95 17 -24 30 -48 30 -52 0 -5 7 -14 15 -21 8 -7 15 -21 15 -31 0 -18 -13
-19 -310 -19 -228 0 -310 3 -310 12 0 6 10 25 23 42 13 17 27 38 30 46 4 8 16
29 26 45 11 17 30 50 42 75 13 25 26 47 30 50 5 4 274 4 321 1z m594 -133 l0
-138 -83 0 c-79 0 -84 1 -93 24 -22 60 -91 191 -109 209 -6 6 -11 19 -11 29 0
17 10 18 147 16 l148 -3 1 -137z m-285 -30 c10 -13 18 -27 19 -33 0 -5 10 -29
22 -53 l23 -43 -25 -19 c-42 -33 -70 -36 -90 -10 -23 30 -74 129 -69 133 32
19 86 46 92 47 5 0 17 -10 28 -22z m130 -250 c18 -29 36 -57 38 -63 2 -5 17
-26 32 -46 16 -20 29 -41 29 -47 0 -5 7 -15 15 -22 21 -17 19 -73 -2 -93 -26
-22 -68 -31 -92 -18 -18 10 -34 39 -85 156 -7 17 -25 55 -39 85 l-26 55 27 22
c43 36 65 30 103 -29z"/>
<path d="M8485 2728 c-97 -31 -126 -38 -156 -38 -19 -1 -52 -7 -74 -15 -22 -8
-57 -15 -78 -15 -21 0 -54 -7 -74 -15 -19 -8 -52 -15 -73 -15 -21 0 -57 -7
-80 -15 -23 -8 -58 -15 -77 -15 -18 0 -50 -7 -70 -15 -19 -8 -52 -15 -73 -15
-21 0 -57 -7 -80 -15 -23 -8 -56 -15 -71 -15 -16 0 -55 -6 -87 -14 -84 -21
-159 -36 -232 -46 -36 -5 -78 -13 -95 -18 l-30 -8 0 -490 0 -489 35 2 c19 1
334 5 700 9 l665 6 3 624 c2 496 0 624 -10 623 -7 -1 -26 -5 -43 -11z m-88
-158 l38 -20 1 -441 2 -441 -39 -40 c-34 -35 -43 -39 -86 -39 -26 0 -67 0 -90
0 -24 0 -49 0 -55 0 -19 1 -282 -8 -360 -12 -37 -2 -73 0 -80 4 -7 4 -18 3
-24 -2 -8 -6 -25 -7 -46 -1 -19 5 -56 4 -88 -1 -30 -5 -101 -6 -157 -4 -92 5
-107 9 -138 33 l-35 26 0 340 c0 365 3 389 52 403 13 3 39 10 58 15 19 5 62
16 96 24 33 9 82 16 108 16 26 0 62 6 79 14 35 15 123 32 229 45 37 4 73 12
80 18 7 5 42 15 78 21 190 32 256 46 270 53 26 14 68 10 107 -11z"/>
<path d="M3333 2684 l-43 -47 0 -1221 c0 -1139 1 -1223 17 -1246 26 -38 56
-60 74 -54 9 2 19 -2 23 -11 11 -30 85 -14 161 35 17 11 41 25 55 30 13 6 27
14 30 18 3 4 25 17 50 30 25 13 59 32 75 42 17 10 53 31 80 45 28 14 66 35 85
47 19 11 55 31 80 45 25 13 52 28 60 33 8 5 51 29 95 55 44 25 87 50 95 55 8
6 21 12 28 15 32 13 39 16 67 35 17 10 53 31 80 45 28 14 64 34 80 45 17 10
53 31 80 45 28 14 66 35 85 47 19 11 55 31 80 45 25 13 59 33 75 43 36 22 77
45 173 95 41 21 76 43 79 50 2 7 48 35 101 61 53 26 124 64 158 85 56 34 163
94 226 126 35 18 86 77 94 109 9 35 -13 98 -45 128 -14 13 -57 41 -96 61 -38
21 -88 49 -110 64 -22 14 -69 41 -105 60 -36 19 -72 39 -80 46 -8 7 -22 15
-30 19 -8 3 -28 15 -45 26 -60 39 -78 37 -102 -12 -7 -14 -63 -76 -124 -139
-113 -116 -139 -149 -118 -149 6 0 64 54 130 120 95 96 124 120 146 120 29 0
66 -17 168 -74 33 -18 87 -48 120 -65 33 -18 65 -37 71 -42 6 -5 31 -20 55
-32 59 -31 96 -95 77 -131 -16 -31 -80 -82 -133 -107 -22 -11 -62 -32 -90 -48
-27 -16 -59 -34 -71 -40 -72 -33 -184 -120 -184 -141 0 -16 -36 -3 -68 24 -14
11 -95 90 -181 174 -85 83 -160 152 -167 152 -7 0 -20 -13 -31 -30 -22 -35
-352 -370 -364 -370 -5 0 -9 -6 -9 -14 0 -8 -5 -16 -10 -18 -6 -2 -148 -141
-318 -309 -395 -393 -529 -519 -550 -519 -10 1 -26 20 -40 48 l-23 47 6 520
c3 286 8 567 11 625 3 58 4 112 4 120 -6 96 7 1001 15 1044 7 35 9 37 39 31
42 -9 73 -30 81 -55 3 -11 12 -20 19 -20 16 0 96 -73 96 -88 0 -7 5 -12 11
-12 5 0 30 -20 55 -45 24 -25 49 -45 54 -45 6 0 14 -8 18 -18 4 -10 50 -58
102 -107 52 -50 97 -93 99 -98 6 -15 101 -106 121 -117 11 -6 20 -16 20 -23 0
-7 21 -30 46 -52 25 -22 126 -119 224 -215 241 -235 290 -278 290 -251 0 17
-9 26 -608 628 -630 634 -616 619 -607 633 8 13 24 4 155 -83 96 -64 166 -105
245 -145 17 -9 50 -30 75 -47 25 -17 67 -40 93 -50 26 -10 52 -26 57 -36 6 -9
23 -20 39 -24 17 -3 48 -20 70 -36 23 -16 45 -29 51 -29 12 0 45 -18 79 -42
13 -10 27 -16 31 -13 4 2 15 -4 25 -15 10 -11 22 -20 27 -20 5 0 26 -11 48
-25 22 -14 46 -25 54 -25 8 0 34 -12 58 -27 101 -65 152 -93 170 -93 7 0 42
-20 78 -45 36 -25 71 -45 79 -45 8 0 29 -12 48 -26 19 -14 53 -29 75 -32 39
-5 40 -4 29 17 -7 11 -17 21 -24 21 -7 0 -30 12 -52 27 -38 26 -95 58 -160 91
-16 9 -32 18 -35 22 -3 4 -35 23 -73 44 -37 20 -101 57 -143 81 -42 25 -77 45
-79 45 -1 0 -74 41 -161 92 -219 126 -248 143 -359 203 -38 20 -74 41 -80 45
-14 10 -112 64 -215 117 -47 25 -98 53 -115 63 -44 26 -86 34 -96 18 -7 -10
-11 -10 -21 0 -21 21 -40 13 -85 -34z m1394 -1394 c14 -11 31 -20 38 -20 6 0
25 -15 41 -33 16 -18 36 -37 44 -43 8 -5 36 -32 62 -60 37 -41 45 -57 41 -75
-11 -41 -34 -69 -58 -69 -13 0 -25 -6 -28 -14 -6 -15 -92 -66 -112 -66 -8 0
-27 -11 -43 -25 -17 -14 -33 -25 -37 -25 -14 0 -95 -43 -95 -51 0 -4 -15 -12
-34 -19 -19 -6 -44 -20 -57 -31 -12 -11 -34 -22 -48 -26 -14 -3 -35 -14 -46
-23 -11 -10 -40 -29 -65 -41 -24 -13 -52 -31 -62 -41 -10 -10 -27 -18 -37 -18
-11 0 -23 -4 -26 -10 -3 -5 -43 -28 -88 -51 -45 -22 -108 -54 -139 -71 -41
-21 -66 -28 -83 -24 -28 7 -34 33 -10 43 9 3 23 19 31 35 20 38 85 108 102
108 6 0 12 4 12 8 0 4 33 42 73 83 39 42 92 97 115 122 24 26 48 47 54 47 13
0 108 95 108 108 0 5 23 31 52 58 53 51 56 54 140 144 50 53 104 97 121 99 5
1 20 -8 34 -19z"/>
<path d="M6925 2414 c-27 -8 -78 -18 -112 -23 -34 -5 -67 -12 -73 -16 -7 -4
-37 -11 -68 -15 -32 -4 -77 -12 -102 -18 -68 -16 -148 -32 -217 -42 -35 -5
-72 -14 -82 -20 -11 -5 -45 -10 -75 -10 -38 0 -56 -4 -56 -12 0 -7 0 -188 -1
-402 l0 -390 433 3 c238 1 434 4 435 5 2 1 3 216 4 477 1 538 9 491 -86 463z
m-58 -137 c4 -8 16 -16 26 -20 16 -6 17 -26 16 -259 -1 -139 2 -269 6 -290 8
-42 -15 -101 -49 -123 -16 -11 -85 -15 -285 -19 -251 -5 -267 -4 -297 15 -22
13 -34 30 -38 53 -11 56 -4 478 7 504 14 31 76 62 123 62 20 0 73 11 118 25
44 13 90 24 101 24 11 -1 52 6 91 14 39 9 80 14 91 11 11 -3 24 -1 27 5 10 15
53 14 63 -2z"/>
<path d="M6140 1361 c-4 -76 1 -785 5 -792 4 -5 29 -9 56 -9 28 0 60 -5 72
-12 12 -6 48 -14 82 -18 74 -9 163 -27 231 -46 28 -8 67 -14 86 -14 20 0 52
-7 71 -15 20 -8 52 -15 70 -15 19 0 50 -6 68 -14 19 -8 56 -16 82 -18 l48 -3
-1 475 c0 261 -2 475 -3 476 -5 6 -867 11 -867 5z m618 -102 c92 -4 94 -5 123
-37 26 -29 30 -41 30 -90 -1 -31 -1 -151 -1 -267 -1 -216 -6 -292 -22 -311
-10 -13 -118 -10 -145 4 -10 6 -43 13 -73 17 -30 3 -77 12 -105 20 -27 7 -75
17 -106 20 -103 13 -184 48 -207 90 -6 13 -11 111 -11 260 l-2 239 37 33 37
32 176 -3 c97 -2 218 -6 269 -7z"/>
<path d="M7135 1348 c-2 -7 -3 -229 -2 -493 l2 -480 75 -13 c41 -7 93 -18 115
-23 22 -6 67 -14 100 -19 33 -4 73 -13 88 -19 16 -6 43 -11 61 -11 19 0 53 -7
76 -15 23 -8 57 -15 75 -15 18 0 52 -7 75 -15 23 -8 59 -15 80 -15 21 0 54 -7
73 -15 20 -8 55 -15 77 -15 23 0 51 -5 63 -12 12 -6 48 -15 82 -19 86 -11 174
-28 215 -41 19 -7 53 -15 75 -18 22 -4 47 -9 55 -11 13 -4 15 71 18 617 l2
621 -607 7 c-335 3 -650 8 -701 11 -69 4 -94 2 -97 -7z m1112 -111 c3 -5 29
-6 59 -2 70 8 119 -18 128 -68 3 -18 6 -184 7 -368 0 -184 0 -366 0 -405 1
-113 -35 -163 -110 -150 -20 4 -67 10 -106 15 -67 8 -86 13 -130 31 -11 5 -69
16 -130 25 -60 10 -123 24 -139 32 -16 9 -52 17 -80 19 -87 7 -206 27 -223 37
-7 5 -52 15 -99 23 -97 17 -157 43 -176 77 -10 17 -12 100 -11 362 l3 340 22
17 c13 9 37 19 53 21 62 9 926 3 932 -6z"/>
</g>
</svg>
