<?xml version="1.0" standalone="no"?>
<!DOCTYPE svg PUBLIC "-//W3C//DTD SVG 20010904//EN"
 "http://www.w3.org/TR/2001/REC-SVG-20010904/DTD/svg10.dtd">
<svg version="1.0" xmlns="http://www.w3.org/2000/svg"
 width="300.000000pt" height="200.000000pt" viewBox="0 0 300.000000 200.000000"
 preserveAspectRatio="xMidYMid meet">
<metadata>
Created by potrace 1.10, written by Peter Selinger 2001-2011
</metadata>
<g transform="translate(0.000000,200.000000) scale(0.100000,-0.100000)"
fill="#000000" stroke="none">
<path d="M427 1012 c-15 -10 -52 -45 -83 -78 -31 -32 -54 -53 -50 -46 10 17
-13 15 -48 -3 -16 -9 -37 -15 -45 -13 -9 1 -33 -1 -54 -6 -24 -4 -43 -3 -51 3
-13 11 -96 -15 -96 -30 0 -7 50 4 69 15 5 3 25 -1 45 -9 27 -12 35 -12 34 -3
-2 8 16 15 52 19 65 7 75 4 29 -10 -19 -5 -27 -10 -18 -10 45 -3 179 84 179
116 0 5 18 19 41 31 l41 22 29 -24 c16 -14 38 -27 49 -31 11 -3 20 -14 21 -23
0 -10 3 -12 6 -5 3 10 10 10 25 2 15 -8 17 -14 9 -22 -6 -6 -11 -18 -11 -26 0
-13 2 -13 9 -3 10 17 81 24 78 8 -1 -6 6 -10 16 -8 9 2 17 -3 17 -12 0 -16
-15 -16 -47 2 -19 11 -23 10 -23 -2 0 -10 6 -13 18 -9 15 6 15 5 3 -10 -8 -10
-16 -15 -19 -12 -3 3 -11 0 -19 -6 -10 -9 -13 -8 -13 5 0 9 -7 16 -17 16 -30
0 12 -35 45 -38 23 -2 29 2 28 15 -1 12 6 18 22 18 12 0 26 5 30 12 10 16 38
-6 51 -40 6 -15 16 -27 23 -27 8 0 9 3 3 8 -12 8 -14 32 -2 32 4 0 11 0 17 0
5 0 9 -5 7 -12 -1 -7 5 -13 13 -13 34 -2 70 -18 70 -31 0 -8 5 -14 10 -14 6 0
10 8 8 17 -2 14 4 17 37 16 39 -2 39 -2 10 7 -16 6 -36 8 -43 5 -13 -5 -177
60 -197 78 -6 5 4 7 25 5 23 -2 40 3 50 14 18 20 57 24 130 13 30 -5 62 -9 70
-10 8 0 30 -9 48 -18 18 -10 37 -15 43 -11 6 4 36 1 66 -7 40 -9 65 -10 94 -2
35 9 38 8 36 -8 -2 -10 -6 -22 -10 -25 -19 -19 -4 -24 16 -6 27 26 37 28 37 7
0 -8 4 -15 9 -15 5 0 7 8 4 19 -6 23 13 27 194 42 76 6 141 13 146 16 4 2 19
-3 32 -11 14 -9 25 -14 25 -10 0 4 8 0 17 -7 11 -10 14 -10 9 -1 -9 15 6 16
22 0 9 -9 12 -8 12 6 0 10 4 14 12 10 7 -4 8 -3 4 4 -11 18 35 15 62 -4 12 -8
27 -12 34 -8 17 11 58 13 58 4 0 -4 26 -8 58 -9 31 0 80 -2 107 -4 28 -2 60 0
72 4 15 6 36 2 65 -11 24 -11 53 -16 69 -13 15 3 37 0 49 -7 15 -8 20 -8 16
-1 -11 17 201 20 213 4 3 -5 17 -10 31 -11 14 -2 40 -10 59 -18 18 -8 44 -14
58 -14 13 0 47 -7 74 -16 27 -9 52 -14 56 -11 10 11 -91 50 -127 49 -19 0 -50
8 -68 19 -18 10 -44 19 -57 19 -13 0 -27 5 -31 11 -3 6 -15 8 -26 6 -11 -3
-31 -1 -44 5 -18 9 -30 8 -49 -2 -13 -7 -59 -14 -102 -15 -65 -1 -85 2 -119
21 -27 15 -45 20 -55 13 -18 -11 -66 -12 -74 0 -3 6 -17 6 -35 1 -33 -9 -70
-3 -85 14 -5 6 -28 17 -50 24 -32 9 -42 9 -56 -4 -14 -13 -18 -13 -29 1 -8 9
-22 14 -32 12 -10 -3 -21 -1 -24 4 -6 10 -35 5 -116 -22 -31 -10 -65 -16 -75
-13 -15 5 -16 4 -3 -5 12 -8 6 -11 -25 -12 -22 -1 -47 -1 -55 0 -25 3 -34 3
-59 -3 -14 -3 -30 -1 -38 5 -7 6 -20 9 -28 5 -8 -3 -16 -5 -18 -5 -1 0 -19 -7
-39 -15 -23 -10 -39 -12 -43 -6 -8 13 -82 13 -90 0 -4 -6 -16 -5 -33 2 -15 6
-52 12 -82 14 -30 1 -57 4 -60 5 -3 1 -8 1 -12 0 -4 0 -12 8 -18 19 -8 15 -15
18 -34 10 -13 -5 -26 -7 -28 -5 -5 5 -68 14 -125 18 -34 3 -47 -1 -65 -20 -15
-16 -33 -23 -60 -23 -27 0 -37 4 -32 12 4 7 3 8 -5 4 -6 -4 -18 -2 -26 4 -8 6
-19 9 -24 6 -5 -4 -12 -2 -16 4 -3 6 -23 17 -43 26 -20 8 -54 28 -74 44 -43
35 -53 36 -91 12z m1423 -81 c0 -14 -54 -38 -80 -36 -13 1 -26 8 -28 15 -3 9
1 11 11 7 9 -3 19 -2 22 4 4 5 9 8 13 5 4 -2 16 0 27 5 27 11 35 11 35 0z
m155 -22 c24 -24 0 -27 -26 -3 -16 14 -20 14 -42 -1 -24 -15 -27 -15 -53 1
-15 10 -21 20 -15 22 6 2 18 -1 25 -7 15 -12 46 -5 46 11 0 14 42 -1 65 -23z"/>
<path d="M418 933 c7 -3 16 -2 19 1 4 3 -2 6 -13 5 -11 0 -14 -3 -6 -6z"/>
<path d="M152 915 c-22 -12 -77 -12 -118 1 -26 7 -42 -13 -24 -29 7 -7 10 -7
7 -2 -3 6 29 10 89 9 69 -1 94 2 94 11 0 19 -22 23 -48 10z"/>
<path d="M427 902 c4 -10 8 -10 21 0 11 9 13 9 9 1 -4 -6 -3 -14 3 -18 5 -3
10 3 10 13 0 15 -6 19 -24 18 -14 0 -22 -6 -19 -14z"/>
<path d="M507 896 c-4 -10 -5 -21 -2 -24 9 -9 17 6 13 25 -3 17 -4 17 -11 -1z"/>
<path d="M401 899 c-1 -3 4 -20 10 -36 9 -28 12 -30 34 -19 31 14 33 28 3 17
-19 -7 -25 -4 -35 18 -6 14 -12 23 -12 20z"/>
<path d="M1700 880 c0 -5 5 -10 11 -10 5 0 7 5 4 10 -3 6 -8 10 -11 10 -2 0
-4 -4 -4 -10z"/>
<path d="M537 851 c-4 -17 -3 -21 5 -13 5 5 8 16 6 23 -3 8 -7 3 -11 -10z"/>
<path d="M625 860 c3 -5 8 -10 11 -10 2 0 4 5 4 10 0 6 -5 10 -11 10 -5 0 -7
-4 -4 -10z"/>
<path d="M1474 834 c-18 -23 -30 -31 -34 -23 -8 13 -60 -16 -60 -33 0 -6 11
-3 25 6 14 9 30 14 36 10 6 -3 22 4 35 17 19 17 34 23 61 20 22 -2 33 1 29 7
-9 14 24 20 53 10 13 -5 38 -20 55 -33 46 -37 49 -39 78 -52 17 -8 30 -9 33
-3 4 6 13 10 22 10 17 0 113 -57 125 -74 3 -5 21 -9 39 -8 38 1 99 -32 99 -54
0 -9 5 -12 10 -9 6 4 16 3 23 -3 15 -12 54 -25 44 -16 -10 10 68 34 109 34 16
0 39 7 50 15 33 25 58 17 98 -29 20 -24 48 -47 62 -50 13 -4 24 -11 24 -16 0
-6 8 -10 18 -10 10 0 26 -6 37 -14 23 -16 95 -47 95 -41 0 2 -35 21 -77 42
-56 27 -96 56 -138 101 -34 34 -65 62 -71 62 -5 0 -27 -9 -48 -21 -23 -12 -50
-19 -64 -16 -14 3 -38 -3 -54 -13 -35 -21 -52 -17 -131 29 -40 23 -66 32 -84
28 -20 -4 -41 6 -86 39 -45 33 -65 43 -81 38 -12 -4 -29 -7 -38 -6 -20 1 -97
51 -118 76 -17 21 -87 18 -101 -3 -8 -14 -10 -14 -23 2 -18 23 -21 22 -52 -19z"/>
<path d="M494 845 c21 -16 32 -13 21 4 -3 6 -14 11 -23 11 -15 -1 -15 -2 2
-15z"/>
<path d="M295 840 c-3 -5 -2 -10 4 -10 5 0 13 5 16 10 3 6 2 10 -4 10 -5 0
-13 -4 -16 -10z"/>
<path d="M1242 828 c-19 -12 -48 -21 -65 -20 -30 1 -31 0 -13 -14 15 -10 22
-11 27 -3 4 7 14 9 23 6 10 -4 19 -1 23 9 3 9 12 13 21 9 9 -3 13 -3 9 1 -4 4
-2 13 4 21 15 17 11 16 -29 -9z"/>
<path d="M2960 811 c-38 -46 -90 -76 -189 -110 -35 -12 -82 -31 -104 -42 -28
-15 -62 -22 -113 -23 -41 -1 -78 -6 -84 -12 -8 -8 13 -10 71 -8 82 4 141 18
169 40 8 7 38 19 66 27 106 31 230 116 223 152 -3 14 -11 9 -39 -24z"/>
<path d="M458 833 c7 -3 16 -2 19 1 4 3 -2 6 -13 5 -11 0 -14 -3 -6 -6z"/>
<path d="M330 819 c-8 -4 -34 -16 -57 -26 -23 -10 -43 -21 -43 -25 0 -4 6 -5
14 -2 9 3 13 -1 13 -12 -1 -11 6 -19 18 -21 20 -3 20 -3 0 6 -19 8 -19 9 -2
16 10 4 16 14 13 22 -8 19 21 28 42 12 9 -7 14 -9 10 -5 -4 5 -3 15 4 23 14
17 8 23 -12 12z"/>
<path d="M550 810 c0 -5 7 -10 16 -10 8 0 12 5 9 10 -3 6 -10 10 -16 10 -5 0
-9 -4 -9 -10z"/>
<path d="M1085 800 c-3 -4 -14 -6 -25 -3 -23 6 -90 -33 -90 -52 0 -25 -20 -27
-56 -6 -34 20 -34 20 -24 1 9 -17 8 -20 -10 -20 -12 0 -18 -5 -15 -10 4 -6 11
-8 16 -4 5 3 16 0 24 -6 12 -10 15 -9 15 5 0 9 6 15 13 12 6 -2 11 -14 9 -26
-1 -15 3 -21 10 -19 7 3 13 11 14 19 2 35 6 41 30 64 37 34 123 36 154 3 20
-22 21 -22 69 -5 27 9 73 17 102 18 36 0 47 3 35 8 -26 10 -114 5 -129 -7 -30
-24 -58 -24 -77 1 -21 26 -56 41 -65 27z"/>
<path d="M767 779 c7 -7 15 -10 18 -7 3 3 -2 9 -12 12 -14 6 -15 5 -6 -5z"/>
<path d="M210 747 c0 -10 -4 -16 -8 -13 -5 3 -18 -3 -28 -13 -11 -9 -34 -23
-53 -29 -28 -10 -32 -9 -27 3 3 8 1 15 -4 15 -6 0 -10 -5 -10 -11 0 -5 -5 -7
-11 -3 -7 4 -10 1 -7 -7 5 -14 15 -14 113 -5 22 2 61 5 88 5 26 1 47 5 47 9 0
5 -18 7 -40 6 -22 -1 -37 2 -34 7 3 5 -2 19 -10 31 -14 19 -16 20 -16 5z m14
-32 c-4 -8 -18 -15 -33 -15 l-26 0 25 14 c33 19 40 19 34 1z"/>
<path d="M791 747 c28 -21 59 -36 59 -29 0 5 -11 14 -25 20 -24 11 -44 16 -34
9z"/>
<path d="M1990 740 c-8 -5 6 -9 36 -12 46 -4 63 -2 53 6 -10 8 -77 13 -89 6z"/>
<path d="M130 725 c-7 -8 -9 -15 -6 -15 4 0 14 7 22 15 9 8 11 15 6 15 -5 0
-15 -7 -22 -15z"/>
<path d="M2413 733 c9 -2 23 -2 30 0 6 3 -1 5 -18 5 -16 0 -22 -2 -12 -5z"/>
<path d="M2473 733 c9 -2 23 -2 30 0 6 3 -1 5 -18 5 -16 0 -22 -2 -12 -5z"/>
<path d="M2593 733 c9 -2 23 -2 30 0 6 3 -1 5 -18 5 -16 0 -22 -2 -12 -5z"/>
<path d="M439 718 c-11 -8 -11 -9 2 -5 9 3 22 0 28 -6 6 -6 13 -9 15 -6 11 11
-31 27 -45 17z"/>
<path d="M2100 720 c0 -5 7 -7 15 -4 8 4 15 8 15 10 0 2 -7 4 -15 4 -8 0 -15
-4 -15 -10z"/>
<path d="M2159 717 c5 -5 19 -7 32 -5 20 3 19 5 -9 9 -20 3 -29 2 -23 -4z"/>
<path d="M560 710 l-35 -6 43 -5 c23 -2 42 -1 42 3 0 12 -14 14 -50 8z"/>
<path d="M647 709 c7 -7 15 -10 18 -7 3 3 -2 9 -12 12 -14 6 -15 5 -6 -5z"/>
<path d="M735 710 l-40 -8 50 0 c28 0 64 -3 80 -7 l30 -7 -29 16 c-30 17 -30
17 -91 6z"/>
<path d="M6 699 c3 -5 11 -9 19 -9 8 0 16 4 19 9 3 5 -5 9 -19 9 -14 0 -22 -4
-19 -9z"/>
<path d="M363 703 c9 -2 23 -2 30 0 6 3 -1 5 -18 5 -16 0 -22 -2 -12 -5z"/>
<path d="M1105 691 c-3 -5 -1 -12 5 -16 5 -3 10 1 10 9 0 18 -6 21 -15 7z"/>
<path d="M310 644 c-40 -18 -64 -24 -87 -19 -36 6 -65 -5 -103 -41 -14 -12
-46 -32 -72 -44 -27 -11 -48 -25 -48 -30 0 -16 91 24 132 59 34 29 48 34 96
36 35 2 72 11 97 24 45 24 71 26 112 9 16 -7 83 -12 158 -13 237 -2 417 -25
517 -66 26 -10 55 -19 65 -19 30 0 188 -102 177 -113 -3 -3 5 -4 18 -1 12 2
17 2 11 -2 -21 -9 -15 -23 7 -17 14 4 20 0 20 -10 0 -18 56 -67 77 -67 14 0 1
16 -72 91 -11 11 -54 42 -96 70 -118 75 -292 125 -524 149 -142 15 -148 15
-225 6 -46 -5 -82 -2 -123 9 -74 19 -72 19 -137 -11z"/>
<path d="M1400 640 c0 -5 5 -10 11 -10 5 0 7 5 4 10 -3 6 -8 10 -11 10 -2 0
-4 -4 -4 -10z"/>
<path d="M2858 643 c7 -3 16 -2 19 1 4 3 -2 6 -13 5 -11 0 -14 -3 -6 -6z"/>
<path d="M1508 633 c7 -3 16 -2 19 1 4 3 -2 6 -13 5 -11 0 -14 -3 -6 -6z"/>
<path d="M1848 623 c7 -3 16 -2 19 1 4 3 -2 6 -13 5 -11 0 -14 -3 -6 -6z"/>
<path d="M2838 450 c-4 -8 -11 -28 -16 -45 l-9 -30 -13 26 c-16 34 -38 32 -57
-4 l-15 -31 -14 32 c-7 18 -15 32 -18 32 -3 0 -12 -15 -21 -34 -13 -28 -22
-34 -45 -34 -21 1 -27 5 -22 16 3 10 1 13 -6 8 -6 -4 -12 4 -15 21 -4 27 -4
27 -12 6 -11 -33 -22 -28 -17 7 3 25 1 29 -12 24 -9 -3 -16 -11 -16 -18 0 -6
-5 -4 -10 4 -8 12 -10 9 -10 -12 0 -14 -2 -33 -5 -40 -4 -9 2 -14 14 -14 12 0
17 5 13 14 -4 11 2 11 27 -2 17 -9 31 -21 31 -27 0 -19 28 -20 66 -3 22 9 49
16 62 15 27 -3 54 17 45 33 -3 6 -2 7 3 3 5 -5 9 -14 9 -20 0 -21 46 -14 66
11 18 24 20 24 38 7 11 -9 24 -14 29 -11 4 3 20 -1 35 -9 15 -8 27 -10 27 -4
0 5 6 9 14 9 9 0 12 8 8 27 l-5 27 -9 -24 c-7 -20 -11 -22 -18 -10 -5 8 -10
26 -10 40 -1 24 -1 23 -14 -6 -17 -38 -36 -52 -36 -27 0 10 -5 25 -10 33 -9
13 -12 13 -24 -3 -14 -18 -15 -17 -18 5 -3 17 -6 19 -10 8z"/>
<path d="M2455 428 c-15 -46 -85 -84 -85 -45 0 6 -6 2 -14 -8 -13 -18 -14 -18
-20 3 -10 31 -20 28 -42 -13 -21 -39 -34 -45 -34 -16 0 24 -16 36 -23 19 -3
-7 -6 -2 -7 12 l-1 25 -11 -25 c-10 -24 -10 -24 -18 -5 -5 11 -9 14 -9 6 -1
-8 -7 -11 -17 -7 -12 4 -15 0 -12 -17 3 -23 32 -30 56 -13 8 6 12 3 12 -7 0
-24 38 -32 60 -12 12 11 38 18 69 19 35 1 58 8 77 23 19 15 31 19 39 13 19
-16 24 -2 12 36 -12 39 -23 43 -32 12z"/>
<path d="M2098 394 c-5 -4 -8 -21 -8 -38 0 -21 -3 -27 -9 -17 -7 11 -10 11
-15 0 -3 -8 -3 -4 -1 7 4 16 0 23 -14 27 -14 3 -21 -2 -26 -20 -5 -21 -8 -23
-21 -12 -12 10 -16 9 -21 -9 -5 -22 -32 -31 -34 -12 -1 6 -2 14 -3 19 -2 19
-16 24 -16 6 0 -10 -3 -15 -7 -11 -4 3 -13 -4 -20 -16 l-12 -23 -1 25 c-2 23
-3 21 -19 -12 -20 -43 -34 -60 -31 -38 5 30 0 51 -10 45 -5 -3 -10 -2 -10 4 0
5 4 11 9 13 5 2 5 13 0 27 -12 30 -18 25 -21 -18 -2 -30 -3 -31 -16 -14 -10
13 -16 14 -19 5 -7 -17 -32 -42 -44 -42 -5 0 -9 8 -9 18 0 10 -8 2 -18 -18
-12 -25 -18 -30 -20 -17 -4 22 -10 22 -32 -5 l-17 -22 -16 30 -16 29 -10 -25
c-5 -14 -10 -19 -10 -11 -1 10 -4 11 -15 2 -12 -10 -13 -8 -9 9 4 14 1 20 -8
18 -8 -2 -15 7 -17 20 -4 25 -21 30 -23 7 -1 -8 -3 -19 -4 -25 -1 -5 -3 -16
-4 -24 0 -9 -9 -13 -20 -11 -11 2 -25 -3 -32 -11 -13 -15 -34 -20 -24 -5 3 5
1 12 -4 15 -7 5 -21 -14 -21 -29 0 -2 23 -2 52 0 33 3 55 10 60 20 7 12 13 13
31 4 28 -15 104 -22 111 -10 3 5 15 7 25 4 10 -3 22 0 25 6 4 6 18 11 31 11
13 0 30 7 39 15 19 20 21 19 51 -12 26 -28 26 -28 43 -8 19 23 72 49 72 36 0
-12 39 -21 46 -10 3 5 10 6 16 3 8 -5 9 -1 5 10 -4 9 -3 14 2 11 5 -3 13 0 16
5 4 7 19 9 35 5 16 -3 31 -2 35 4 9 16 31 13 49 -5 14 -13 16 -14 16 0 0 8 -4
18 -10 21 -5 3 -10 16 -10 28 -1 21 -1 21 -15 4 -13 -18 -14 -18 -17 3 -2 12
-6 18 -10 14z"/>
<path d="M1635 314 c-7 -39 1 -57 15 -34 12 19 13 70 1 70 -5 0 -12 -16 -16
-36z"/>
<path d="M2870 335 c0 -8 2 -15 4 -15 2 0 6 7 10 15 3 8 1 15 -4 15 -6 0 -10
-7 -10 -15z"/>
<path d="M2976 323 c-6 -14 -5 -15 5 -6 7 7 10 15 7 18 -3 3 -9 -2 -12 -12z"/>
<path d="M2770 321 c0 -5 5 -13 10 -16 6 -3 10 -2 10 4 0 5 -4 13 -10 16 -5 3
-10 2 -10 -4z"/>
<path d="M1370 278 c0 -16 -3 -19 -8 -10 -6 9 -12 5 -23 -15 -24 -47 -36 -55
-43 -30 -6 22 -7 21 -22 -6 -14 -26 -38 -30 -28 -4 2 7 -2 21 -10 32 -15 20
-15 20 -16 -2 0 -13 -5 -23 -11 -23 -6 0 -9 -6 -6 -12 2 -7 10 -12 17 -10 7 1
17 -1 24 -6 6 -5 25 -10 42 -10 23 0 37 8 59 34 16 19 35 34 43 34 9 0 12 6 8
16 -3 9 -6 20 -6 25 0 5 -4 9 -10 9 -5 0 -10 -10 -10 -22z"/>
<path d="M1430 283 c0 -13 5 -23 10 -23 13 0 13 11 0 30 -8 12 -10 11 -10 -7z"/>
<path d="M2991 284 c0 -11 3 -14 6 -6 3 7 2 16 -1 19 -3 4 -6 -2 -5 -13z"/>
<path d="M1167 237 c-16 -20 -22 -40 -17 -62 1 -7 -2 -7 -8 0 -6 6 -12 21 -15
35 -3 16 -5 10 -6 -17 -1 -49 -16 -56 -32 -15 l-11 27 -14 -30 c-13 -29 -13
-29 -14 -5 0 20 -2 22 -10 10 -7 -11 -10 -11 -10 -2 0 7 -4 10 -10 7 -5 -3
-10 -15 -10 -25 0 -10 -5 -22 -11 -26 -6 -3 -10 1 -9 12 4 32 0 48 -7 40 -11
-10 -11 -56 -1 -56 4 0 8 -5 8 -12 0 -6 -8 -4 -19 6 -16 14 -19 15 -24 2 -7
-19 1 -26 30 -26 14 0 23 6 23 16 0 8 5 12 10 9 6 -3 10 -2 10 3 0 16 58 20
73 5 11 -11 16 -10 32 5 37 36 63 70 58 76 -4 3 -1 6 5 6 13 0 16 26 4 34 -4
2 -15 -5 -25 -17z"/>
<path d="M2898 223 c7 -3 16 -2 19 1 4 3 -2 6 -13 5 -11 0 -14 -3 -6 -6z"/>
<path d="M2810 185 c0 -8 4 -15 10 -15 5 0 7 7 4 15 -4 8 -8 15 -10 15 -2 0
-4 -7 -4 -15z"/>
<path d="M2378 168 c18 -19 24 -20 34 -9 8 8 8 11 2 8 -7 -4 -17 0 -24 8 -7 8
-17 15 -23 15 -6 0 -1 -10 11 -22z"/>
<path d="M2922 160 c0 -14 2 -19 5 -12 2 6 2 18 0 25 -3 6 -5 1 -5 -13z"/>
<path d="M2940 171 c0 -6 4 -13 10 -16 6 -3 7 1 4 9 -7 18 -14 21 -14 7z"/>
<path d="M2970 161 c0 -17 18 -21 24 -6 3 9 0 15 -9 15 -8 0 -15 -4 -15 -9z"/>
<path d="M919 143 c-1 -10 -1 -23 0 -30 1 -6 -3 -14 -9 -18 -5 -3 -10 1 -10 9
0 23 -17 19 -23 -5 -7 -27 -29 -20 -34 11 -7 46 -21 44 -36 -6 -7 -26 -20 -50
-27 -52 -9 -3 -11 1 -7 11 3 9 2 19 -4 22 -5 4 -7 10 -5 14 3 4 1 13 -5 21 -6
11 -9 11 -10 3 -2 -15 -5 -31 -9 -38 -1 -3 -3 -11 -4 -17 -1 -7 -10 -13 -21
-13 -11 0 -26 -4 -32 -8 -9 -6 -13 -1 -13 17 0 35 -20 33 -21 -1 l0 -28 -10
25 -10 25 -16 -30 c-15 -27 -17 -28 -23 -10 -7 19 -7 19 -18 -2 -17 -31 -16
-49 1 -34 8 6 17 8 20 4 4 -3 12 -1 19 5 7 6 35 10 61 10 26 0 54 6 62 12 12
10 18 10 31 -1 14 -11 19 -10 39 13 16 19 26 23 33 16 8 -8 15 -8 25 0 7 6 22
9 34 6 11 -3 24 0 28 7 12 19 15 79 5 79 -6 0 -11 -8 -11 -17z"/>
<path d="M2320 149 c0 -5 5 -7 10 -4 6 3 10 8 10 11 0 2 -4 4 -10 4 -5 0 -10
-5 -10 -11z"/>
<path d="M2360 140 c0 -5 5 -10 10 -10 6 0 10 5 10 10 0 6 -4 10 -10 10 -5 0
-10 -4 -10 -10z"/>
<path d="M2578 133 c7 -3 16 -2 19 1 4 3 -2 6 -13 5 -11 0 -14 -3 -6 -6z"/>
<path d="M699 119 c0 -8 -2 -22 -4 -31 -2 -10 3 -18 10 -18 9 0 12 9 9 27 -6
31 -14 43 -15 22z"/>
<path d="M2668 121 c12 -6 22 -15 22 -21 0 -6 4 -9 9 -6 5 4 11 0 14 -6 2 -7
7 -11 10 -8 11 10 -20 39 -49 45 -25 5 -26 4 -6 -4z"/>
<path d="M861 104 c0 -11 3 -14 6 -6 3 7 2 16 -1 19 -3 4 -6 -2 -5 -13z"/>
<path d="M2236 105 c-11 -8 -15 -15 -10 -15 6 0 15 5 21 11 8 8 15 4 27 -12
11 -16 16 -19 16 -8 0 15 -19 39 -29 39 -4 0 -15 -7 -25 -15z"/>
<path d="M2735 110 c29 -50 85 -83 85 -48 0 5 -5 6 -11 2 -6 -3 -27 9 -46 27
-20 19 -32 27 -28 19z"/>
<path d="M2637 103 c-13 -12 -7 -40 8 -40 8 0 15 6 15 14 0 7 -5 13 -11 13 -5
0 -7 5 -4 10 7 11 2 13 -8 3z"/>
<path d="M2085 91 c-3 -6 -2 -18 3 -27 6 -11 11 -13 16 -5 4 6 2 11 -5 11 -10
0 -10 3 -2 11 13 13 36 3 28 -12 -4 -5 -1 -9 5 -9 6 0 10 8 8 18 -4 19 -43 29
-53 13z"/>
<path d="M2583 93 c9 -2 23 -2 30 0 6 3 -1 5 -18 5 -16 0 -22 -2 -12 -5z"/>
<path d="M2670 73 c0 -6 40 -43 47 -43 1 0 3 6 3 13 0 8 -11 19 -25 25 -14 6
-25 9 -25 5z"/>
<path d="M520 57 c0 -7 -7 -22 -15 -33 -13 -16 -14 -16 -9 -1 8 23 -3 22 -16
-2 -9 -18 -7 -20 30 -18 30 1 39 5 35 15 -3 7 -5 22 -5 33 0 10 -4 19 -10 19
-5 0 -10 -6 -10 -13z"/>
<path d="M2248 63 c7 -3 16 -2 19 1 4 3 -2 6 -13 5 -11 0 -14 -3 -6 -6z"/>
<path d="M2565 60 c-4 -6 2 -9 14 -7 29 4 39 17 13 17 -11 0 -24 -5 -27 -10z"/>
<path d="M2843 63 c-21 -8 -15 -22 7 -16 11 3 20 9 20 14 0 10 -8 10 -27 2z"/>
<path d="M2885 60 c3 -5 8 -10 11 -10 2 0 4 5 4 10 0 6 -5 10 -11 10 -5 0 -7
-4 -4 -10z"/>
<path d="M2920 63 c0 -7 5 -13 10 -13 6 0 10 -6 10 -14 0 -17 27 -29 35 -15 4
5 2 8 -3 7 -5 -2 -19 8 -30 22 -12 14 -21 19 -22 13z"/>
<path d="M2736 45 c-3 -8 -1 -15 4 -15 6 0 10 7 10 15 0 8 -2 15 -4 15 -2 0
-6 -7 -10 -15z"/>
<path d="M399 33 c-1 -5 -1 -11 0 -15 0 -4 -7 -4 -16 -1 -11 4 -14 3 -9 -5 12
-19 36 -14 36 8 0 19 -9 29 -11 13z"/>
<path d="M2764 13 c-10 -7 -13 -13 -7 -13 7 0 14 4 17 8 3 5 21 7 41 6 21 -2
33 1 30 7 -8 13 -59 8 -81 -8z"/>
<path d="M2865 20 c3 -5 10 -10 16 -10 5 0 9 5 9 10 0 6 -7 10 -16 10 -8 0
-12 -4 -9 -10z"/>
<path d="M428 3 c6 -2 18 -2 25 0 6 3 1 5 -13 5 -14 0 -19 -2 -12 -5z"/>
</g>
</svg>
