<?xml version="1.0" standalone="no"?>
<!DOCTYPE svg PUBLIC "-//W3C//DTD SVG 20010904//EN"
 "http://www.w3.org/TR/2001/REC-SVG-20010904/DTD/svg10.dtd">
<svg version="1.0" xmlns="http://www.w3.org/2000/svg"
 width="900.000000pt" height="474.000000pt" viewBox="0 0 900.000000 474.000000"
 preserveAspectRatio="xMidYMid meet">
<metadata>
Created by potrace 1.10, written by Peter Selinger 2001-2011
</metadata>
<g transform="translate(0.000000,474.000000) scale(0.100000,-0.100000)"
fill="#000000" stroke="none">
<path d="M4615 4710 c-4 -16 -13 -30 -21 -30 -34 0 -144 -134 -144 -176 0 -23
24 -11 28 15 4 23 46 71 63 71 21 0 58 33 68 61 8 23 16 29 38 29 22 0 31 -7
41 -30 8 -17 21 -30 32 -30 9 0 23 -7 30 -15 7 -8 19 -15 27 -15 7 0 16 -7 19
-15 4 -8 12 -15 19 -15 8 0 15 -10 17 -22 4 -27 28 -37 28 -11 -1 17 -32 63
-43 63 -13 0 -108 107 -113 128 -5 18 -13 22 -44 22 -35 0 -39 -3 -45 -30z"/>
<path d="M4000 4675 c-25 -13 -62 -24 -82 -24 -20 -1 -39 -5 -43 -10 -3 -5
-34 -19 -70 -31 -36 -12 -67 -26 -70 -31 -4 -5 -14 -9 -24 -9 -31 0 -118 -48
-155 -86 -32 -33 -36 -42 -34 -88 1 -28 5 -55 9 -61 13 -19 21 -75 10 -75 -6
0 -26 -13 -44 -30 -19 -16 -41 -30 -48 -30 -17 0 -97 -39 -105 -51 -3 -5 -31
-9 -62 -9 -64 0 -68 -2 -99 -47 -26 -37 -30 -95 -9 -133 7 -14 23 -44 35 -67
13 -24 27 -43 32 -43 5 0 9 19 9 43 0 36 -4 44 -30 59 -28 16 -30 21 -30 75 0
75 17 88 111 85 51 -1 68 2 73 13 3 8 17 15 31 15 29 0 67 22 107 63 35 35 82
36 121 2 24 -21 27 -31 27 -85 0 -45 4 -62 15 -66 8 -4 15 -15 15 -25 0 -11 7
-22 15 -25 11 -5 15 -23 15 -74 0 -51 -4 -69 -15 -74 -8 -3 -15 -12 -15 -19 0
-8 -9 -22 -21 -32 l-20 -19 23 -18 c17 -13 41 -18 89 -18 50 0 68 -4 73 -15 6
-16 56 -21 56 -5 0 5 -34 25 -75 44 l-74 36 6 83 c4 66 3 86 -9 98 -17 16 -32
108 -22 133 9 23 38 20 71 -7 53 -44 84 -50 134 -29 74 32 108 36 130 16 10
-9 19 -29 19 -43 0 -14 7 -47 15 -74 8 -26 12 -54 9 -62 -3 -7 5 -44 17 -82
19 -56 34 -78 84 -128 l61 -60 -20 -20 c-11 -11 -36 -21 -56 -22 -100 -7 -141
-19 -170 -46 -17 -16 -33 -40 -36 -53 -7 -29 -9 -29 -45 -3 -22 15 -29 28 -29
53 0 19 7 39 15 46 16 13 19 38 9 64 -11 29 -24 16 -24 -24 0 -27 -4 -40 -14
-40 -7 0 -19 -7 -26 -15 -7 -8 -28 -15 -46 -15 -29 0 -34 -4 -35 -25 -1 -14
-2 -31 -3 -37 -1 -9 11 -12 37 -10 29 3 43 -2 62 -20 14 -13 25 -28 25 -34 0
-6 7 -17 15 -24 9 -8 15 -30 15 -60 0 -33 -5 -50 -15 -54 -8 -3 -15 -12 -15
-21 0 -8 -7 -15 -15 -15 -8 0 -15 -4 -15 -9 0 -14 -59 -41 -88 -41 -29 0 -102
30 -102 42 0 15 -28 8 -34 -8 -5 -13 -16 -15 -52 -11 -44 5 -47 3 -101 -51
-55 -54 -56 -55 -24 -49 59 12 2058 9 2080 -3 21 -11 21 -16 21 -620 0 -375
-4 -638 -11 -685 -11 -82 -6 -97 36 -116 11 -5 34 -18 50 -28 17 -11 47 -29
67 -40 21 -11 57 -33 80 -48 62 -40 71 -45 123 -73 73 -38 97 -64 89 -97 -4
-16 -10 -32 -15 -37 -4 -5 -374 -8 -857 -7 -605 2 -852 -1 -857 -9 -3 -6 3
-30 15 -55 12 -24 24 -69 27 -100 8 -73 23 -52 23 32 0 34 4 65 10 68 5 3 48
9 95 12 61 4 89 2 100 -7 21 -17 21 -123 0 -140 -11 -9 -15 -34 -15 -96 0 -74
2 -84 18 -84 38 0 132 -110 132 -154 -1 -32 -29 -76 -49 -76 -7 0 -14 -7 -17
-15 -8 -19 -43 -19 -68 0 -11 8 -36 15 -57 15 -20 0 -42 7 -49 15 -9 11 -33
15 -85 15 -72 0 -73 0 -84 30 -13 40 -49 40 -93 0 -18 -17 -40 -30 -50 -30
-10 0 -18 -7 -18 -15 0 -11 -12 -15 -48 -15 -42 0 -51 4 -70 30 -26 34 -30
101 -7 120 8 7 15 19 15 27 0 7 7 16 15 19 8 4 15 10 15 15 0 11 16 32 43 57
9 9 17 22 17 28 0 7 7 14 15 17 11 5 15 31 17 124 3 116 3 118 30 130 27 14
62 8 52 -8 -3 -5 -14 -9 -25 -9 -30 0 -18 -24 14 -28 19 -2 30 4 43 23 16 24
16 27 -1 45 -18 19 -33 20 -620 20 -570 0 -603 1 -618 18 -18 20 -22 49 -9 68
4 7 32 25 62 42 30 16 71 39 90 51 19 11 44 25 55 31 11 6 34 19 50 29 17 11
50 31 75 44 25 14 61 33 80 44 l35 20 2 697 2 697 -47 -7 c-45 -6 -49 -4 -93
38 -26 24 -48 52 -50 63 -5 23 -29 32 -29 10 0 -31 38 -90 79 -123 57 -46 64
-78 61 -272 -1 -14 -1 -79 0 -145 1 -180 -18 -220 -66 -140 -36 61 -44 83 -50
144 -4 37 -1 70 9 98 15 41 13 83 -4 83 -5 0 -9 -11 -9 -24 0 -13 -7 -26 -15
-30 -12 -4 -15 -28 -15 -126 l0 -122 36 -54 c20 -30 40 -54 45 -54 5 0 9 -5 9
-12 0 -6 7 -19 15 -28 8 -9 16 -31 17 -50 3 -35 3 -35 -44 -38 -25 -2 -52 -10
-58 -18 -19 -21 -242 -20 -264 2 -20 19 -21 48 -2 63 8 7 17 23 20 36 4 14 11
25 16 25 6 0 10 8 10 19 0 10 7 24 15 31 12 10 15 37 15 124 0 87 4 117 16
135 16 22 16 24 0 33 -10 6 -16 22 -16 43 0 28 4 35 19 35 10 0 24 7 31 15 9
11 32 15 77 15 59 0 64 2 52 16 -11 13 -27 15 -82 11 -56 -4 -73 -9 -96 -31
-15 -14 -32 -26 -37 -26 -10 0 -34 118 -34 168 0 31 -26 60 -78 87 -31 15 -35
15 -51 1 -10 -9 -23 -16 -29 -16 -7 0 -12 -4 -12 -10 0 -5 -6 -10 -12 -10 -7
0 -24 -12 -37 -25 -13 -14 -28 -25 -35 -25 -6 0 -17 -9 -24 -20 -7 -12 -23
-25 -35 -31 -68 -31 -127 -89 -127 -126 0 -33 17 -28 25 7 4 17 12 30 19 30 6
0 23 13 36 30 22 25 32 29 75 30 55 0 85 22 85 60 0 12 7 23 15 26 8 4 15 12
15 19 0 15 78 29 106 19 31 -12 34 -24 34 -126 l0 -98 -37 -16 c-28 -11 -43
-13 -55 -5 -29 18 -38 13 -38 -22 0 -21 8 -41 20 -52 15 -14 20 -31 20 -70 0
-35 5 -57 15 -65 11 -9 15 -34 15 -101 0 -48 4 -90 9 -94 5 -3 12 -18 16 -35
5 -21 1 -37 -16 -59 -30 -41 -81 -43 -121 -4 -27 25 -28 31 -28 117 0 50 -4
106 -10 124 -5 19 -12 81 -16 140 l-7 107 -83 0 -84 0 6 -27 c5 -24 2 -28 -16
-28 -11 0 -39 9 -61 20 -23 12 -48 18 -60 15 -31 -10 -22 -25 16 -25 19 0 35
-5 35 -10 0 -25 41 -54 77 -54 37 -1 38 -2 41 -44 3 -33 9 -47 33 -64 23 -17
29 -29 29 -59 0 -38 -24 -64 -72 -82 -13 -5 -18 -17 -18 -46 0 -34 -4 -42 -27
-53 -25 -12 -29 -21 -36 -82 -5 -37 -6 -74 -3 -82 9 -23 26 -16 26 10 0 42 32
86 61 86 15 0 30 -7 33 -16 11 -28 6 -64 -8 -70 -8 -3 -18 -19 -22 -36 -3 -17
-17 -41 -29 -53 -13 -11 -27 -33 -30 -48 -4 -15 -12 -27 -19 -27 -19 0 -56 30
-56 46 0 8 -4 14 -10 14 -5 0 -10 9 -10 20 0 10 -9 28 -21 38 -15 15 -20 29
-17 58 3 36 5 39 31 36 15 -1 27 1 27 5 1 4 2 31 4 60 4 70 -6 83 -35 44 -24
-33 -47 -39 -67 -19 -16 16 -16 -11 -1 -46 9 -19 9 -36 0 -68 -18 -66 4 -127
69 -188 42 -41 49 -54 44 -74 -3 -14 -13 -28 -22 -31 -10 -3 -31 -18 -48 -34
-29 -28 -31 -34 -40 -138 -17 -209 -13 -256 32 -359 32 -73 100 -89 208 -50
38 14 76 32 86 41 9 8 22 15 28 15 6 0 16 9 22 20 9 17 17 20 48 14 20 -4 41
-9 45 -11 13 -8 -22 -40 -49 -47 -28 -7 -33 -26 -6 -26 10 0 22 -12 29 -30 6
-16 18 -30 27 -30 13 0 13 3 0 28 -20 38 -18 62 5 62 15 0 21 -8 23 -32 3 -34
22 -41 24 -10 1 9 2 23 3 30 1 6 11 12 22 12 19 0 21 -4 16 -34 -3 -22 0 -41
8 -53 8 -10 15 -27 15 -38 0 -12 13 -32 30 -45 16 -14 29 -34 30 -44 0 -11 6
-27 14 -35 8 -9 17 -48 21 -88 l7 -72 -48 -46 c-48 -45 -48 -45 -121 -45 -62
0 -76 3 -97 24 -15 13 -26 26 -26 30 0 4 -7 15 -16 23 -13 13 -15 33 -12 98 4
75 7 85 34 114 24 26 30 41 29 69 -2 19 -10 41 -19 47 -8 7 -19 23 -24 36 -8
21 -11 18 -25 -31 -43 -153 -54 -315 -23 -349 9 -10 16 -22 16 -28 0 -34 104
-84 170 -81 22 1 46 -5 55 -12 12 -10 19 -10 27 -2 27 27 36 12 34 -59 -1 -50
3 -73 12 -76 8 -3 12 9 12 42 0 43 17 79 58 123 6 7 12 17 12 21 0 4 17 25 38
46 48 51 132 161 132 173 0 5 7 15 15 22 8 7 15 22 15 34 0 27 79 116 103 116
9 0 26 5 36 12 15 9 24 7 50 -11 17 -12 31 -28 31 -35 0 -8 16 -26 35 -40 26
-20 35 -35 35 -57 0 -17 -6 -32 -15 -35 -8 -4 -15 -14 -15 -23 0 -9 -14 -30
-30 -48 -17 -18 -30 -37 -30 -42 0 -20 -54 -16 -87 5 -38 24 -75 17 -101 -19
-28 -40 -85 -112 -120 -152 -15 -16 -44 -54 -64 -83 -31 -43 -35 -54 -22 -59
8 -3 26 0 38 7 13 6 34 10 47 8 22 -3 24 -10 37 -108 11 -82 19 -109 35 -125
37 -36 72 -55 100 -55 15 0 35 -4 45 -8 9 -5 31 -15 47 -23 35 -17 54 -62 54
-132 2 -91 67 -192 136 -207 63 -15 110 -12 128 8 27 30 67 171 69 243 1 58 3
66 19 62 10 -3 25 -14 35 -24 9 -10 26 -19 36 -19 10 0 36 -9 58 -20 22 -11
47 -20 57 -20 31 -1 70 -43 97 -104 14 -32 26 -65 26 -73 0 -8 12 -37 28 -64
l27 -49 62 0 c34 0 64 4 67 9 3 5 24 18 46 30 21 11 48 29 60 41 11 11 33 20
49 20 17 0 33 5 36 10 3 6 15 10 27 10 30 0 147 87 154 115 3 13 11 26 18 28
19 7 -4 143 -30 182 -8 11 -14 28 -14 38 0 10 -10 31 -22 47 -22 31 -19 52 6
31 7 -6 57 -14 110 -18 107 -7 109 -9 76 -70 -24 -45 -26 -105 -4 -142 18 -31
73 -56 88 -41 12 12 -10 39 -41 51 -19 7 -23 16 -23 53 0 55 27 75 102 79 48
2 53 4 57 27 4 30 17 40 54 40 22 0 27 4 27 25 0 14 7 28 15 31 9 4 15 19 15
40 0 21 9 42 24 59 l25 27 160 -4 c111 -2 164 -7 173 -15 6 -7 22 -13 33 -13
12 0 31 -8 42 -18 12 -9 39 -32 62 -51 l41 -35 0 -138 0 -138 -34 0 c-18 0
-39 -7 -46 -15 -19 -23 -77 -20 -85 5 -6 18 -15 20 -85 20 -82 0 -90 -5 -82
-47 4 -19 8 -21 36 -15 17 4 59 7 94 7 51 0 66 -4 78 -19 14 -19 15 -19 57 2
73 37 91 59 104 134 22 129 -15 268 -82 312 -34 22 -33 53 3 61 28 6 72 37 73
52 0 4 21 24 47 44 39 29 59 37 110 41 56 6 66 4 91 -18 35 -29 74 -31 108 -4
14 11 36 20 48 20 13 0 41 15 63 33 22 17 54 41 73 52 77 47 99 62 116 77 10
10 45 29 78 44 78 35 106 66 122 134 24 104 10 207 -37 267 -20 25 -29 28 -98
33 -70 5 -77 7 -74 25 2 11 6 45 10 75 6 48 10 55 30 58 13 2 48 -9 77 -24 45
-24 57 -26 77 -17 13 6 31 14 41 17 9 3 17 10 17 16 0 16 -40 12 -46 -5 -8
-19 -53 -19 -60 0 -4 8 -12 15 -20 15 -16 0 -16 1 -14 190 1 113 5 147 16 153
8 4 14 13 14 19 0 6 6 19 14 27 9 10 15 46 18 98 3 72 1 84 -16 96 -15 11 -19
26 -19 75 1 71 6 82 37 82 13 0 29 7 36 15 7 8 23 15 36 15 29 0 32 16 4 25
-39 12 -96 -5 -127 -38 -44 -46 -48 -87 -17 -177 24 -71 25 -79 13 -150 -6
-41 -17 -80 -24 -85 -8 -6 -15 -24 -17 -40 -2 -24 -8 -31 -30 -33 -15 -2 -39
3 -55 11 -15 8 -41 13 -58 10 -25 -4 -33 0 -47 25 -10 17 -18 38 -18 47 0 10
-7 23 -15 29 -20 16 -48 186 -35 220 5 14 14 26 20 26 6 0 38 19 72 42 81 57
75 54 138 73 30 9 60 23 66 31 6 7 26 20 43 27 32 14 45 30 76 94 17 37 20 89
5 98 -5 3 -10 14 -10 23 0 20 -92 111 -135 136 -17 9 -37 20 -45 25 -33 20
-111 51 -151 60 -23 5 -46 14 -52 20 -6 6 -21 11 -34 11 -12 0 -26 7 -31 17
-13 23 -42 9 -42 -21 0 -13 -3 -31 -6 -40 -5 -14 6 -16 84 -16 67 0 93 -4 102
-15 7 -8 27 -15 45 -15 20 0 35 -6 39 -15 3 -8 15 -15 26 -15 11 0 23 -7 26
-15 4 -8 11 -15 18 -15 7 0 23 -13 36 -30 14 -16 28 -29 33 -30 9 0 47 -38 47
-46 0 -4 7 -12 15 -18 8 -6 16 -31 17 -56 3 -44 2 -45 -29 -48 -17 -2 -37 -10
-43 -18 -7 -8 -21 -14 -31 -14 -11 0 -19 -7 -19 -15 0 -8 -7 -15 -15 -15 -10
0 -15 -10 -15 -30 l0 -30 -72 0 c-71 0 -73 -1 -90 -31 -10 -17 -18 -37 -18
-45 0 -22 -53 -17 -73 7 -21 24 -52 22 -51 -4 0 -9 1 -41 2 -71 1 -33 8 -60
17 -70 11 -11 15 -39 15 -113 0 -65 4 -103 12 -111 7 -7 11 -28 9 -48 -2 -33
-1 -35 26 -32 24 3 28 -1 31 -25 4 -34 -20 -74 -54 -89 -28 -13 -42 -54 -25
-71 17 -17 13 -35 -10 -42 -14 -5 -19 -13 -16 -26 4 -14 1 -19 -11 -17 -13 2
-16 -3 -14 -22 4 -21 2 -23 -13 -10 -14 12 -19 10 -40 -15 -14 -15 -22 -32
-19 -36 10 -17 36 -9 87 26 80 54 94 67 80 72 -19 7 -16 23 3 23 17 0 64 44
64 59 0 5 8 12 18 16 16 6 16 7 -2 20 -14 11 -17 21 -12 48 7 40 27 60 53 55
12 -3 17 -12 16 -30 -1 -21 4 -27 28 -32 27 -5 30 -9 27 -38 -3 -31 -6 -33
-45 -36 -34 -3 -45 -9 -65 -38 -12 -19 -31 -37 -40 -40 -29 -9 -21 -34 10 -34
33 0 52 -16 52 -45 0 -28 -37 -48 -86 -45 -75 5 -104 0 -121 -20 -19 -22 -96
-29 -108 -9 -17 27 -6 76 24 109 16 19 33 46 36 62 4 15 11 30 16 33 5 4 9 15
9 26 0 10 9 27 20 36 23 20 25 40 6 62 -19 22 -26 138 -9 153 18 14 17 89 -2
124 -10 20 -15 59 -15 124 0 73 -3 91 -12 82 -17 -17 -48 -15 -48 3 0 9 -9 25
-19 37 -25 26 -59 19 -112 -23 -20 -16 -42 -29 -48 -29 -6 0 -11 -4 -11 -9 0
-17 31 -21 74 -9 51 14 77 2 121 -56 21 -28 25 -42 20 -66 -8 -38 -36 -37 -45
0 -4 19 -13 25 -32 25 -15 1 -35 7 -45 15 -46 37 -62 41 -84 21 -13 -12 -40
-20 -73 -23 -33 -3 -65 -13 -84 -27 -18 -12 -36 -20 -42 -16 -14 9 -23 67 -24
159 0 74 1 81 20 84 11 2 28 -6 39 -18 10 -11 28 -20 41 -20 12 0 36 -11 52
-25 42 -35 52 -32 52 16 0 59 -13 77 -49 71 -18 -2 -31 -10 -31 -18 0 -8 -10
-14 -25 -14 -23 0 -25 4 -25 44 0 25 4 47 9 50 4 3 21 32 37 63 57 113 232
283 292 283 11 0 22 24 22 48 0 10 -9 23 -20 30 -18 11 -24 8 -57 -26 -47 -47
-101 -88 -129 -96 -17 -5 -24 -1 -32 21 -15 41 -22 199 -9 212 6 6 30 11 54
11 57 0 55 14 -4 26 -41 8 -49 13 -51 34 -2 14 -8 29 -13 35 -5 5 -9 24 -9 41
0 28 -4 33 -27 36 -19 2 -29 10 -33 28 -9 37 5 120 21 131 8 6 53 8 100 6 l87
-3 29 45 c16 26 33 54 36 64 4 9 11 17 17 17 5 0 10 6 10 14 0 8 10 16 22 18
12 2 23 9 26 16 5 17 -33 15 -48 -3 -7 -8 -18 -15 -24 -15 -7 0 -22 -10 -34
-22 -64 -67 -108 -96 -123 -81 -5 5 -5 27 0 54 10 45 62 196 75 218 4 6 8 61
8 121 1 108 0 111 -29 148 -16 20 -47 46 -69 56 -21 11 -47 23 -56 28 -27 12
-33 11 -111 -26 -135 -63 -208 -166 -211 -296 -1 -24 -3 -25 -56 -21 -59 3
-105 30 -115 66 -6 20 38 152 69 210 9 17 16 36 16 44 0 8 6 22 13 30 7 9 20
36 27 59 11 35 11 47 2 60 -7 10 -15 25 -18 34 -10 29 -74 52 -154 55 -114 5
-331 30 -364 42 -30 12 -30 12 -10 96 l7 30 -27 -28 c-17 -18 -26 -39 -26 -61
0 -18 -7 -41 -15 -52 -8 -10 -15 -33 -15 -50 0 -22 -8 -36 -30 -52 -25 -19
-42 -22 -114 -22 -81 0 -86 1 -115 31 -27 26 -31 38 -31 83 0 45 -4 55 -30 76
-16 14 -29 30 -30 37 0 6 -5 15 -10 18 -8 5 -9 -9 -4 -42 l6 -49 -44 2 c-23 0
-71 -4 -106 -9 -53 -9 -66 -8 -79 5 -14 14 -14 22 0 76 15 60 13 102 -4 102
-5 0 -9 -14 -9 -30 0 -22 -9 -39 -35 -61 -19 -17 -35 -39 -35 -49 0 -11 -5
-22 -11 -26 -8 -4 -10 -27 -6 -65 5 -57 -9 -99 -34 -99 -6 0 -17 -7 -25 -15
-9 -8 -26 -15 -38 -15 -13 0 -29 -7 -37 -16 -8 -10 -23 -14 -42 -11 -23 3 -31
0 -35 -15 -3 -13 -14 -18 -37 -18 -36 0 -45 12 -45 65 0 26 -7 38 -36 60 -36
28 -73 30 -141 9 -19 -5 -23 -2 -23 13 0 11 -9 31 -21 44 -13 15 -19 33 -16
47 3 15 -3 30 -15 42 -20 19 -20 19 5 44 15 14 37 26 50 26 26 0 83 25 92 41
4 5 15 9 26 9 10 0 36 9 56 20 21 11 48 20 60 20 12 0 24 4 28 9 3 5 19 12 36
16 17 4 42 13 57 21 15 8 34 14 43 14 9 0 22 7 29 15 7 8 19 15 27 15 7 0 16
7 19 15 4 8 12 15 19 15 17 0 49 -48 55 -83 6 -34 24 -36 28 -3 4 28 -34 86
-55 86 -7 0 -13 5 -13 10 0 18 -84 8 -130 -15z m380 -366 c0 -5 14 -15 30 -20
25 -9 30 -17 30 -42 0 -18 7 -41 15 -51 9 -12 15 -42 15 -77 0 -38 5 -61 15
-69 10 -8 15 -31 15 -70 0 -42 4 -59 15 -64 18 -7 20 -67 3 -84 -7 -7 -25 -12
-40 -12 -15 0 -28 -4 -28 -10 0 -12 -77 -14 -82 -2 -1 5 -21 12 -43 15 -37 6
-38 5 -21 -8 11 -8 30 -15 43 -15 14 0 23 -6 23 -15 0 -10 -11 -15 -35 -15
-24 0 -39 -6 -47 -20 -9 -14 -24 -20 -49 -20 -29 0 -38 5 -47 25 -7 14 -12 34
-12 45 0 10 -5 20 -12 22 -8 3 -11 28 -10 80 2 57 -1 78 -13 88 -10 9 -15 32
-16 79 0 36 -4 75 -8 85 -13 33 -1 60 36 84 19 12 40 22 46 22 7 0 21 7 31 15
11 8 27 15 37 15 9 0 22 7 29 15 14 17 80 21 80 4z m770 -34 c9 -11 33 -15 89
-15 92 0 113 -5 130 -31 15 -25 5 -103 -15 -124 -8 -7 -14 -23 -14 -35 0 -11
-7 -23 -15 -26 -9 -4 -15 -19 -15 -35 0 -17 -6 -32 -15 -35 -10 -4 -15 -20
-15 -44 0 -24 -5 -40 -15 -44 -8 -3 -15 -16 -15 -30 0 -14 -7 -31 -15 -40 -8
-8 -15 -24 -15 -35 0 -11 -9 -29 -21 -40 -15 -13 -20 -28 -17 -52 3 -36 21
-43 26 -12 7 33 33 43 119 43 73 0 86 -3 106 -22 33 -33 44 -76 52 -196 6 -92
5 -110 -9 -121 -9 -7 -16 -20 -16 -27 0 -8 -6 -14 -14 -14 -7 0 -19 -7 -26
-15 -9 -11 -34 -14 -108 -12 l-97 2 -1 -28 c-2 -52 -13 -55 -226 -59 -197 -3
-198 -3 -214 20 -15 21 -15 26 0 57 21 44 55 53 205 55 63 0 118 3 122 6 4 2
1 23 -7 46 -19 55 -19 214 1 252 8 15 15 39 15 51 0 13 7 30 15 39 8 8 15 30
15 49 0 19 7 40 15 47 8 7 15 27 15 45 0 18 7 38 15 45 8 7 15 25 15 41 0 15
7 34 15 43 8 8 15 26 15 41 0 14 7 28 15 31 8 4 15 14 15 24 0 10 7 25 15 34
8 8 15 18 15 23 0 5 -56 8 -125 8 -69 0 -125 -3 -125 -6 0 -4 7 -12 15 -19 8
-7 15 -20 15 -30 0 -10 6 -20 14 -23 22 -9 33 -105 19 -172 -6 -30 -16 -44
-38 -55 -27 -14 -30 -20 -30 -65 0 -43 -3 -50 -20 -50 -17 0 -20 7 -21 55 -1
59 -17 68 -18 10 -1 -26 -6 -36 -20 -38 -17 -4 -18 1 -14 42 5 40 3 46 -13 46
-15 0 -19 -7 -19 -38 0 -21 -5 -43 -11 -49 -9 -9 -8 -16 5 -28 9 -9 16 -21 16
-26 0 -10 13 -27 42 -57 13 -13 17 -32 15 -69 -1 -39 3 -56 18 -73 19 -21 19
-23 2 -52 -9 -16 -17 -40 -17 -53 0 -13 -5 -27 -10 -30 -16 -10 -50 5 -50 21
0 23 -35 12 -35 -11 -1 -24 -13 -45 -26 -45 -5 0 -18 9 -29 20 -20 20 -20 20
-59 0 -36 -18 -40 -24 -46 -70 -4 -28 -13 -57 -21 -64 -11 -12 -79 -14 -378
-13 -332 2 -367 4 -383 19 -16 17 -16 20 0 53 9 20 17 49 17 64 0 29 31 54 38
32 2 -6 12 -11 23 -11 10 0 19 -4 19 -10 0 -5 7 -10 16 -10 13 0 10 6 -10 25
-15 14 -31 25 -37 25 -5 0 -9 20 -9 44 0 33 6 52 24 70 21 23 31 26 98 26 50
0 81 -5 94 -15 22 -16 60 -20 69 -6 3 5 19 12 36 16 29 7 29 8 14 25 -21 23
-8 51 37 78 29 16 50 18 155 16 67 -1 127 -5 132 -9 6 -3 11 -19 11 -34 0 -15
7 -36 15 -47 32 -42 5 -134 -39 -134 -8 0 -19 -7 -26 -15 -32 -39 -112 0 -125
62 -11 48 -15 55 -28 50 -8 -3 -11 -24 -8 -71 3 -59 0 -70 -20 -92 -12 -13
-31 -24 -41 -24 -10 0 -30 -7 -44 -16 -23 -15 -26 -15 -43 0 -9 9 -22 16 -28
16 -13 0 -43 44 -43 62 -1 7 -9 23 -19 36 -25 28 -111 33 -111 5 0 -9 -7 -24
-16 -34 -22 -25 -10 -39 29 -33 27 4 40 -2 87 -41 80 -67 101 -76 141 -63 19
6 63 26 99 44 67 34 126 46 213 44 60 -1 83 12 90 50 4 18 13 30 22 30 22 0
18 18 -5 25 -26 8 -26 39 0 63 18 16 18 20 5 38 -15 20 -20 54 -7 54 4 0 18
23 31 50 13 28 28 50 32 50 5 0 9 7 9 15 0 8 9 23 20 32 24 21 28 83 6 83 -10
0 -16 -13 -18 -37 -3 -32 -8 -39 -33 -46 -50 -15 -58 -22 -70 -57 -15 -44 -29
-47 -78 -19 -28 15 -59 23 -94 24 -60 1 -72 8 -51 32 9 10 21 35 29 55 13 39
12 53 -23 188 -17 64 -15 127 3 145 12 12 27 13 88 6 41 -5 78 -15 83 -23 5
-7 6 -26 3 -43 -17 -90 -16 -141 2 -194 19 -56 43 -79 43 -42 0 33 38 27 47
-6 l6 -28 13 30 c15 36 10 45 -23 45 -59 0 -96 86 -58 136 8 10 15 28 15 39 0
26 68 102 94 106 13 3 23 17 29 39 15 58 19 60 147 60 92 0 120 -3 130 -15z
m23 -185 c-3 -11 -9 -20 -14 -20 -5 0 -9 9 -9 20 0 11 6 20 14 20 9 0 12 -7 9
-20z m677 -81 l60 -42 0 -107 c0 -83 -3 -110 -15 -120 -8 -7 -15 -27 -15 -46
0 -18 -6 -37 -12 -41 -7 -4 -22 -26 -33 -48 -11 -22 -27 -47 -35 -56 -8 -8
-29 -32 -47 -52 -17 -20 -36 -37 -41 -37 -5 0 -12 -7 -16 -15 -4 -11 -21 -15
-63 -15 -53 0 -60 3 -89 35 -28 32 -32 44 -37 113 -5 65 -2 81 13 104 16 21
19 42 18 107 -1 52 2 85 10 93 7 7 12 19 12 28 0 19 52 80 67 80 6 0 16 7 23
15 7 8 24 15 39 15 14 0 35 7 45 15 30 23 50 18 116 -26z m-755 -184 c0 -23
-4 -30 -20 -30 -15 0 -21 8 -23 33 -3 30 -1 33 20 30 18 -2 23 -9 23 -33z
m592 -451 c7 -10 16 -39 19 -66 4 -26 13 -53 20 -59 8 -6 14 -17 14 -23 0 -13
-84 -76 -100 -76 -6 0 -27 16 -49 35 -21 19 -48 35 -59 35 -12 0 -24 5 -27 11
-4 6 -14 8 -23 4 -18 -7 -82 13 -82 25 0 5 9 12 20 15 11 3 20 10 20 14 0 4
18 27 40 52 22 24 40 48 40 53 0 5 34 6 77 3 57 -4 81 -10 90 -23z m56 -247
c11 -17 15 -50 15 -121 0 -53 5 -102 10 -109 6 -7 13 -37 17 -68 6 -51 5 -59
-17 -79 -38 -36 -59 -40 -91 -16 l-29 21 7 170 c4 94 12 182 18 198 15 34 49
36 70 4z m-2748 -304 c14 -20 18 -48 18 -125 0 -89 -2 -101 -23 -123 -36 -38
-56 -32 -69 19 -6 25 -11 55 -11 68 0 13 -5 29 -11 35 -24 24 34 153 69 153 6
0 18 -12 27 -27z m-371 -69 c9 -3 16 -13 16 -20 0 -12 -4 -12 -20 -4 -11 6
-20 15 -20 20 0 12 3 12 24 4z m3071 -111 c0 -27 -6 -39 -18 -41 -21 -4 -34
42 -17 63 22 27 37 17 35 -22z m-3060 -233 c3 -5 17 -10 31 -10 25 0 28 -4 38
-50 10 -50 41 -70 104 -70 36 0 66 6 78 15 25 19 48 19 87 -2 43 -22 187 -20
261 3 41 13 63 15 88 8 l33 -10 7 -144 c3 -80 2 -185 -3 -235 -9 -77 -14 -93
-35 -112 -14 -13 -31 -23 -38 -23 -8 0 -16 -6 -19 -14 -8 -20 -110 -76 -140
-76 l-26 0 0 178 c1 101 -3 188 -9 203 -6 15 -27 42 -46 61 -45 44 -123 58
-158 30 -66 -54 -85 -75 -108 -118 -14 -27 -31 -55 -37 -62 -7 -7 -13 -21 -13
-31 0 -9 -14 -36 -31 -59 -38 -51 -73 -57 -91 -14 -14 30 -59 78 -100 105 -28
18 -37 37 -17 37 19 0 89 54 89 69 0 8 6 22 14 30 7 9 21 39 31 67 21 59 15
112 -15 139 -23 21 -24 31 -7 68 13 28 22 33 32 17z m3185 -203 c3 0 20 3 37
7 23 5 39 3 55 -8 12 -9 30 -16 38 -16 9 0 27 -11 39 -24 19 -20 21 -28 11
-45 -9 -17 -8 -22 5 -27 17 -7 21 -34 5 -34 -16 0 -11 -27 6 -34 15 -6 15 -8
-1 -26 -15 -17 -16 -24 -6 -46 10 -23 8 -30 -14 -59 -14 -19 -25 -38 -25 -43
0 -25 -39 -42 -99 -43 -33 -1 -64 -5 -67 -10 -10 -17 -34 -9 -34 11 0 12 -16
31 -40 48 -47 32 -61 67 -34 86 17 13 16 15 -9 40 -28 28 -35 46 -17 46 18 0
10 22 -10 27 -11 3 -20 11 -20 18 0 7 9 15 20 18 14 3 20 14 20 32 0 18 6 29
20 32 11 3 20 12 20 20 0 17 59 44 80 37 8 -3 17 -6 20 -7z m-2869 -93 c8 -9
21 -13 35 -10 37 10 62 -26 66 -92 5 -68 -3 -82 -49 -82 -30 0 -33 -2 -23 -19
5 -11 10 -29 10 -40 0 -18 5 -21 33 -19 l32 3 2 -55 c1 -48 -2 -58 -25 -77
-15 -12 -31 -23 -37 -23 -5 0 -28 -19 -50 -41 -22 -22 -58 -52 -80 -67 -22
-15 -52 -40 -67 -56 -36 -40 -63 -30 -55 20 3 20 2 57 -3 83 -5 25 -13 68 -18
94 -7 36 -6 51 3 61 7 6 15 21 19 33 4 12 13 27 21 33 8 7 15 20 15 30 0 10 7
20 15 24 8 3 15 13 15 21 0 9 7 23 15 31 8 9 15 26 15 40 0 14 7 27 15 30 8 4
15 17 15 30 0 54 50 85 81 48z m-401 -218 c0 -35 34 -94 57 -100 16 -5 24 -17
29 -43 4 -20 13 -48 20 -62 8 -14 14 -38 14 -53 0 -14 5 -28 10 -30 6 -2 13
-26 16 -54 6 -49 5 -52 -33 -92 -23 -24 -49 -42 -62 -42 -12 0 -24 -7 -27 -15
-5 -11 -22 -15 -69 -15 -73 0 -100 17 -92 58 3 14 -4 42 -14 62 -16 30 -19 53
-15 132 2 64 8 103 19 118 17 24 12 56 -9 64 -38 15 14 95 62 96 12 0 24 7 28
15 4 13 9 12 36 -3 17 -10 30 -25 30 -36z m3740 -91 c0 -8 -7 -15 -16 -15 -8
0 -22 -7 -30 -15 -18 -17 -44 -20 -44 -5 0 6 8 14 18 17 9 4 21 12 25 20 11
18 47 17 47 -2z m-296 -32 c3 -10 -1 -40 -8 -68 l-14 -50 -41 2 c-31 1 -52 11
-85 39 -47 39 -50 54 -13 55 12 0 47 9 77 19 70 24 78 24 84 3z m-3069 -265
c-8 -25 -53 -67 -72 -68 -20 0 -16 9 20 50 37 44 62 52 52 18z m3249 -16 c8
-14 -23 -72 -39 -72 -8 0 -21 -11 -27 -25 -6 -14 -15 -25 -20 -25 -14 0 -9 58
9 95 13 27 23 35 44 35 15 0 30 -3 33 -8z m171 -12 c39 -26 110 -27 124 -3 8
14 14 16 38 7 l28 -9 0 -160 0 -160 -27 -3 c-23 -3 -30 2 -38 23 -6 15 -10 32
-9 39 3 23 -1 36 -12 36 -8 0 -10 -14 -6 -40 4 -34 1 -45 -18 -63 -38 -36 -68
-57 -82 -57 -7 0 -13 -4 -13 -10 0 -5 -6 -10 -14 -10 -7 0 -19 -7 -26 -15 -7
-8 -21 -15 -32 -15 -10 0 -21 -7 -24 -15 -4 -8 -12 -15 -19 -15 -8 0 -20 -6
-27 -13 -7 -7 -20 -16 -28 -20 -8 -4 -22 -11 -30 -16 -8 -5 -23 -12 -32 -15
-10 -3 -18 -14 -18 -24 0 -45 -54 -56 -83 -17 -14 20 -16 32 -8 59 5 19 6 37
3 40 -3 3 -29 6 -59 6 -38 0 -55 -4 -59 -15 -4 -8 -17 -15 -30 -15 -17 0 -24
-6 -24 -19 0 -23 -25 -51 -46 -51 -8 0 -20 12 -27 28 -11 25 -12 21 -15 -45
l-3 -72 -55 -7 c-30 -3 -73 -4 -95 0 -22 3 -48 2 -57 -3 -10 -5 -87 -11 -171
-12 -190 -3 -183 -9 -179 141 l3 105 64 5 64 5 -2 70 c-1 49 3 80 14 103 l16
32 109 0 c83 0 110 -3 120 -15 7 -8 18 -15 24 -15 7 0 22 -14 35 -31 24 -32
23 -73 -4 -115 -15 -24 -11 -34 14 -34 9 0 29 -16 45 -35 49 -58 62 -44 68 75
3 36 7 45 23 48 31 5 85 32 85 42 0 6 11 10 24 10 13 0 29 7 36 15 7 8 23 15
35 15 13 0 25 7 29 15 3 8 16 15 29 15 14 0 30 7 37 15 7 8 18 15 26 15 7 0
19 6 26 13 7 6 34 22 61 35 26 13 47 29 47 36 0 7 16 29 35 49 19 20 35 42 35
50 0 16 20 37 35 37 5 0 24 -9 40 -20z m-3155 -175 c41 -4 78 -12 82 -18 3 -6
-5 -27 -18 -46 -13 -20 -24 -41 -24 -47 0 -6 -11 -21 -24 -33 -13 -13 -27 -34
-30 -47 -4 -13 -12 -24 -20 -24 -7 0 -20 -10 -28 -22 -22 -33 -48 -17 -48 30
0 21 -11 67 -25 102 -14 35 -25 71 -25 80 0 26 22 40 55 36 16 -3 64 -8 105
-11z m858 -19 c28 -27 45 -95 36 -142 -3 -18 -23 -53 -43 -76 -20 -24 -52 -62
-70 -85 -18 -24 -38 -43 -44 -43 -7 0 -27 21 -46 46 -40 53 -64 68 -97 60 -38
-10 -28 -26 16 -26 l40 0 0 -57 c0 -42 5 -64 23 -87 12 -17 30 -47 39 -66 32
-66 58 -129 58 -139 0 -6 4 -11 8 -11 4 0 13 -12 19 -27 31 -73 70 -126 108
-147 22 -11 42 -24 45 -27 3 -4 16 -9 30 -10 34 -5 40 -52 10 -84 -19 -21 -30
-23 -93 -21 -59 1 -79 6 -112 27 -58 38 -145 135 -145 162 0 12 -6 32 -14 43
-10 13 -16 67 -21 167 -6 105 -12 150 -21 158 -8 6 -14 17 -14 23 0 6 -12 22
-25 35 -20 18 -25 20 -25 7 0 -9 4 -16 9 -16 5 0 8 -34 8 -75 -1 -41 -6 -75
-11 -75 -5 0 -17 -7 -26 -15 -15 -14 -20 -11 -47 34 -21 33 -47 58 -82 77 -41
23 -51 34 -51 55 0 15 7 32 15 39 8 7 33 44 54 84 36 66 39 74 31 117 -5 25
-14 57 -21 72 -7 15 -9 30 -5 35 10 9 271 21 366 15 61 -3 79 -8 98 -27z m840
4 c19 -12 32 -28 32 -41 0 -11 7 -27 15 -35 11 -12 15 -40 15 -119 l0 -103
-47 -49 -48 -48 3 -102 3 -103 27 0 c58 -1 81 -51 42 -90 -18 -18 -33 -20
-136 -20 -112 0 -118 1 -140 26 -13 14 -24 27 -24 29 0 2 11 15 24 29 16 19
34 26 58 26 43 0 48 12 48 122 0 74 -13 108 -41 108 -13 0 -49 38 -49 52 0 6
-8 20 -17 31 -14 15 -18 36 -17 103 1 46 6 90 12 97 6 6 12 28 14 47 3 31 7
35 33 38 17 2 34 8 40 13 17 17 118 10 153 -11z m357 14 c25 -4 35 -12 35 -25
0 -10 -4 -21 -10 -24 -5 -3 -10 -20 -10 -37 0 -42 -28 -96 -59 -113 -14 -7
-38 -29 -53 -49 -26 -32 -28 -42 -28 -121 0 -66 5 -95 20 -125 26 -51 25 -72
-5 -100 -14 -13 -25 -32 -25 -42 0 -23 -61 -88 -83 -88 -9 0 -20 -7 -25 -16
-6 -11 -16 -14 -31 -9 -25 8 -27 22 -4 47 16 18 15 23 -22 93 -34 66 -37 79
-32 128 3 31 18 80 35 114 27 53 31 71 33 159 1 54 -1 118 -5 140 -12 60 8 71
135 73 55 1 115 -1 134 -5z m592 -6 c15 -7 29 -13 31 -14 1 0 0 -9 -4 -18 -3
-9 -17 -16 -30 -16 -13 0 -24 -5 -24 -10 0 -6 -8 -14 -17 -17 -10 -4 -31 -17
-46 -30 -34 -28 -58 -29 -81 -4 -23 25 -57 93 -50 100 6 6 94 17 156 20 20 0
50 -4 65 -11z m-2327 -451 c8 -3 28 -7 45 -9 19 -2 34 -11 41 -26 6 -13 17
-29 23 -35 6 -6 11 -46 11 -92 0 -77 -2 -83 -29 -109 -16 -16 -34 -25 -40 -21
-6 3 -24 -15 -43 -44 -22 -37 -37 -51 -53 -51 -13 0 -28 -7 -35 -15 -16 -19
-44 -19 -60 0 -7 8 -25 15 -41 15 -16 0 -29 5 -29 10 0 6 -11 15 -25 20 -24 9
-25 12 -25 113 0 57 3 131 6 163 6 53 9 61 38 75 31 16 182 20 216 6z m742
-38 c12 -6 57 -19 102 -29 45 -10 113 -25 151 -34 44 -10 88 -14 118 -10 53 7
58 0 26 -40 -12 -15 -23 -44 -26 -65 -5 -39 -31 -61 -69 -61 -18 0 -99 -45
-129 -71 -19 -17 -119 -59 -140 -59 -16 0 -167 117 -178 137 -5 10 -21 27 -35
39 -18 15 -26 33 -29 70 l-5 51 50 21 c28 12 54 22 57 22 4 0 18 9 32 20 29
23 46 25 75 9z m-532 -71 c0 -16 -3 -19 -11 -11 -6 6 -8 16 -5 22 11 17 16 13
16 -11z m0 -68 c0 -12 -28 -25 -36 -17 -9 9 6 27 22 27 8 0 14 -5 14 -10z
m898 -162 c2 -20 10 -42 18 -48 8 -7 14 -27 14 -45 0 -20 6 -35 15 -39 9 -3
15 -18 15 -40 0 -19 5 -38 10 -41 6 -3 10 -12 10 -19 0 -18 -67 -86 -85 -86
-9 0 -18 -7 -21 -15 -4 -10 -20 -15 -49 -15 -29 0 -45 -5 -49 -15 -3 -10 -19
-15 -45 -15 -25 0 -41 -5 -45 -15 -3 -8 -15 -15 -26 -15 -11 0 -40 -20 -63
-45 -24 -25 -48 -45 -53 -45 -17 0 -54 58 -54 85 0 15 -7 33 -15 41 -8 9 -15
24 -15 35 0 11 -7 22 -15 25 -10 4 -15 20 -15 44 0 32 7 44 46 79 25 22 54 41
64 41 10 0 20 7 24 15 3 8 16 15 29 15 24 0 128 50 158 76 8 8 18 14 22 14 3
0 22 16 42 36 47 47 79 44 83 -8z m-860 9 c19 -20 21 -35 23 -155 1 -110 -1
-136 -15 -151 -11 -12 -16 -36 -16 -79 l0 -62 -44 0 c-30 0 -46 5 -50 15 -3 9
-18 15 -36 15 -18 0 -33 6 -36 15 -4 8 -12 15 -20 15 -10 0 -14 12 -14 39 0
22 -6 44 -15 51 -12 10 -15 36 -15 119 0 58 4 111 8 118 4 6 19 14 34 18 15 4
32 13 39 21 6 8 24 14 39 14 16 0 30 7 34 15 8 23 59 18 84 -8z"/>
<path d="M4343 4249 c5 -20 3 -21 -39 -15 -41 5 -45 4 -39 -13 4 -13 0 -23
-12 -30 -15 -8 -16 -12 -5 -23 11 -11 16 -10 26 4 7 9 24 20 39 23 15 4 30 11
33 16 3 5 16 9 30 9 29 0 32 20 4 27 -11 3 -20 9 -20 14 0 5 -5 9 -11 9 -7 0
-9 -9 -6 -21z"/>
<path d="M4183 4199 c14 -8 22 -8 30 0 8 8 3 11 -18 11 -26 -1 -28 -2 -12 -11z"/>
<path d="M4355 4144 c-33 -12 -70 -23 -82 -23 -13 -1 -23 -7 -23 -14 0 -15 34
-49 68 -66 12 -6 22 -21 22 -32 0 -18 4 -20 25 -15 32 8 56 -13 53 -46 -2 -17
2 -23 17 -23 17 0 20 6 17 40 -2 22 -10 47 -17 55 -8 9 -15 43 -17 81 l-3 65
-60 -22z"/>
<path d="M4160 4146 c0 -10 9 -16 21 -16 24 0 21 23 -4 28 -10 2 -17 -3 -17
-12z"/>
<path d="M4262 3880 c1 -13 9 -25 16 -28 17 -5 15 23 -4 39 -14 11 -15 10 -12
-11z"/>
<path d="M4995 4230 c27 -12 67 -12 85 0 11 7 -3 10 -45 9 -43 0 -54 -3 -40
-9z"/>
<path d="M4891 4181 c-11 -7 -9 -11 8 -20 24 -14 28 -43 6 -61 -8 -7 -15 -23
-15 -36 0 -12 -6 -29 -13 -36 -8 -7 -17 -25 -20 -40 -12 -45 12 -58 109 -58
l84 0 0 74 c0 56 -4 75 -15 80 -8 3 -15 16 -15 28 0 36 -45 78 -83 78 -18 0
-38 -4 -46 -9z m89 -145 c0 -18 -16 -29 -30 -21 -13 8 -1 35 16 35 8 0 14 -6
14 -14z"/>
<path d="M4820 4060 c0 -19 11 -26 23 -14 8 8 -3 34 -14 34 -5 0 -9 -9 -9 -20z"/>
<path d="M4794 4015 c-7 -17 4 -37 17 -30 12 8 12 45 -1 45 -6 0 -13 -7 -16
-15z"/>
<path d="M4877 3672 c-7 -11 4 -62 13 -62 10 0 22 48 15 60 -7 12 -22 13 -28
2z"/>
<path d="M5244 3664 c-4 -10 -13 -23 -21 -27 -10 -6 -13 -40 -13 -133 0 -112
2 -125 17 -122 14 3 16 18 14 126 -2 110 0 125 16 137 14 11 15 16 6 26 -10
10 -14 8 -19 -7z"/>
<path d="M5310 3662 c0 -6 7 -12 15 -16 10 -3 15 -19 15 -46 0 -40 0 -40 38
-40 60 0 66 10 40 61 -21 40 -27 44 -66 47 -23 2 -42 -1 -42 -6z"/>
<path d="M5126 3633 c-10 -10 -7 -201 3 -207 15 -10 21 22 21 114 0 82 -7 110
-24 93z"/>
<path d="M4400 3599 c0 -16 5 -19 20 -15 11 3 29 9 40 12 34 9 22 24 -20 24
-34 0 -40 -3 -40 -21z"/>
<path d="M4830 3605 c0 -8 5 -15 10 -15 6 0 10 7 10 15 0 8 -4 15 -10 15 -5 0
-10 -7 -10 -15z"/>
<path d="M5275 3597 c-4 -10 -3 -23 3 -29 14 -14 21 3 12 27 -7 19 -8 19 -15
2z"/>
<path d="M4520 3574 c0 -4 9 -22 21 -40 13 -22 28 -34 43 -34 34 0 58 23 54
50 -4 29 -28 39 -28 11 0 -37 -43 -38 -53 0 -5 17 -37 28 -37 13z"/>
<path d="M4904 3558 c-36 -43 -45 -66 -28 -72 23 -9 24 -8 24 20 0 17 6 28 20
31 22 6 24 11 12 31 -6 9 -13 6 -28 -10z"/>
<path d="M4830 3526 c0 -14 5 -26 10 -26 6 0 10 9 10 19 0 11 -4 23 -10 26 -6
4 -10 -5 -10 -19z"/>
<path d="M4303 3506 c-26 -12 -29 -28 -10 -48 7 -7 16 -21 20 -30 8 -21 46
-24 71 -5 13 9 17 23 14 52 -3 39 -28 63 -28 27 0 -36 -11 -52 -36 -52 -29 0
-33 36 -6 56 20 16 6 16 -25 0z"/>
<path d="M5276 3495 c-4 -14 -2 -33 3 -42 7 -14 10 -13 16 6 4 14 13 21 23 19
13 -3 17 -15 17 -53 0 -55 12 -64 54 -42 24 12 56 91 45 109 -3 4 -32 8 -64 8
-32 0 -62 5 -65 10 -11 17 -23 11 -29 -15z"/>
<path d="M5186 3353 c-12 -12 -6 -33 9 -33 8 0 15 6 15 14 0 17 -14 28 -24 19z"/>
<path d="M4985 3323 c-122 -3 -159 -9 -150 -23 4 -6 67 -10 146 -10 126 0 140
2 137 17 -4 20 2 19 -133 16z"/>
<path d="M5657 3960 c-22 -27 -22 -47 3 -62 26 -17 25 -35 -2 -44 -15 -4 -25
-1 -35 12 -12 17 -13 17 -13 -3 0 -24 26 -36 68 -32 15 2 33 0 40 -5 22 -13
24 -1 13 60 -8 41 -8 61 0 71 9 10 7 13 -9 13 -11 0 -26 2 -34 5 -7 3 -21 -4
-31 -15z"/>
<path d="M5807 3908 c-8 -69 -39 -178 -52 -178 -23 0 -95 -41 -95 -54 0 -7 -7
-19 -15 -26 -16 -14 -20 -65 -6 -74 11 -7 55 43 78 88 8 17 17 33 19 35 1 2
16 -6 31 -17 24 -17 31 -18 46 -7 9 7 17 23 17 36 0 13 7 36 14 51 16 29 24
157 12 176 -4 7 -15 12 -26 12 -14 0 -19 -10 -23 -42z"/>
<path d="M5590 3760 c0 -5 21 -10 46 -10 27 0 43 4 39 10 -3 6 -24 10 -46 10
-21 0 -39 -4 -39 -10z"/>
<path d="M5561 3687 c-6 -8 -11 -48 -12 -89 -1 -65 2 -79 20 -97 12 -12 29
-21 39 -21 16 1 16 1 -1 11 -14 8 -18 21 -16 49 2 21 -3 45 -10 54 -17 20 1
46 30 46 12 0 19 7 19 18 0 37 -46 56 -69 29z"/>
<path d="M5759 3632 c-8 -9 -39 -38 -67 -64 -55 -50 -62 -62 -36 -72 26 -10
69 29 99 89 29 56 31 78 4 47z"/>
<path d="M5695 2889 c-10 -15 3 -25 16 -12 7 7 7 13 1 17 -6 3 -14 1 -17 -5z"/>
<path d="M5690 2816 c0 -27 15 -42 25 -26 8 13 -3 50 -16 50 -5 0 -9 -11 -9
-24z"/>
<path d="M5748 2126 c-12 -8 -18 -27 -18 -50 0 -40 4 -43 26 -21 25 25 105 19
132 -9 30 -32 28 -43 -8 -51 -16 -4 -32 -11 -35 -16 -4 -5 -17 -9 -30 -9 -29
0 -43 -19 -24 -31 8 -5 29 -9 47 -9 31 0 45 -21 22 -35 -5 -3 -10 -11 -10 -17
0 -7 5 -6 15 2 8 6 23 9 34 5 15 -4 25 1 37 21 16 23 16 33 6 82 -6 30 -21 66
-33 78 -18 19 -20 26 -9 39 7 8 21 15 32 15 10 0 16 5 13 10 -9 15 -177 12
-197 -4z"/>
<path d="M2848 1864 c-13 -13 16 -73 38 -78 35 -9 57 3 50 28 -3 11 -6 25 -6
29 0 5 -11 7 -24 5 -13 -1 -30 3 -38 10 -8 6 -17 9 -20 6z"/>
<path d="M2815 1781 c-3 -5 -1 -12 5 -16 12 -7 30 2 30 16 0 12 -27 12 -35 0z"/>
<path d="M2790 1712 c0 -17 38 -44 45 -32 4 6 -1 18 -11 25 -22 16 -34 19 -34
7z"/>
<path d="M2872 1679 c2 -6 8 -10 13 -10 5 0 11 4 13 10 2 6 -4 11 -13 11 -9 0
-15 -5 -13 -11z"/>
<path d="M2481 1811 c-11 -7 -11 -18 -2 -58 7 -28 11 -62 9 -78 -2 -17 2 -30
10 -33 10 -3 13 3 11 20 -3 18 6 34 30 55 35 32 35 37 -3 80 -21 25 -33 28
-55 14z"/>
<path d="M2571 1697 c-17 -17 -13 -27 9 -27 11 0 20 -7 20 -15 0 -8 5 -15 10
-15 18 0 11 45 -9 57 -14 9 -21 9 -30 0z"/>
<path d="M2544 1636 c-9 -24 12 -44 28 -28 10 10 8 16 -5 29 -15 15 -17 15
-23 -1z"/>
<path d="M2595 1611 c-8 -15 3 -31 21 -31 9 0 14 7 12 17 -4 20 -24 28 -33 14z"/>
<path d="M2490 1571 c0 -6 5 -13 10 -16 6 -4 8 -15 5 -26 -7 -21 12 -89 24
-89 18 0 89 41 94 55 4 8 2 15 -3 15 -6 0 -10 -4 -10 -10 0 -5 -16 -10 -35
-10 -31 0 -35 3 -35 25 0 14 -9 34 -20 45 -22 22 -30 25 -30 11z"/>
<path d="M2540 1568 c0 -7 11 -18 25 -25 28 -12 30 -10 15 18 -12 21 -40 26
-40 7z"/>
<path d="M6337 1393 c-12 -11 14 -33 39 -33 17 0 24 -6 24 -20 0 -13 7 -20 20
-20 11 0 20 7 20 15 0 7 7 18 17 23 10 6 14 16 10 26 -5 12 -20 16 -65 16 -32
0 -62 -3 -65 -7z"/>
<path d="M6263 1294 c-3 -7 -2 -18 2 -23 3 -6 -7 -13 -22 -17 -15 -4 -60 -26
-99 -50 -39 -24 -80 -44 -92 -44 -11 0 -23 -4 -27 -10 -7 -11 25 -50 42 -50 8
0 13 -14 13 -39 0 -49 8 -71 26 -71 10 0 11 6 4 24 -14 37 6 96 32 96 17 0 19
2 7 16 -10 13 -10 17 2 25 8 5 20 9 27 9 6 0 12 5 12 10 0 6 6 10 13 10 7 0
36 16 66 35 29 19 61 35 72 35 10 0 19 6 19 14 0 7 9 16 20 19 41 11 18 22
-46 23 -45 1 -67 -3 -71 -12z"/>
<path d="M6440 1295 c0 -8 7 -15 15 -15 8 0 15 7 15 15 0 8 -7 15 -15 15 -8 0
-15 -7 -15 -15z"/>
<path d="M6372 1238 c5 -15 37 -18 41 -3 1 6 -9 12 -22 13 -16 3 -22 -1 -19
-10z"/>
<path d="M5546 1188 c-12 -36 -12 -138 0 -142 24 -9 34 20 28 83 -7 59 -20 87
-28 59z"/>
<path d="M5377 1183 c-3 -4 -8 -29 -12 -55 -6 -40 -5 -48 9 -48 9 0 16 8 16
19 0 27 21 38 32 17 5 -9 14 -14 19 -10 6 4 5 11 -3 21 -7 8 -17 24 -23 36
-11 22 -30 33 -38 20z"/>
<path d="M5455 1181 c-3 -5 -1 -12 5 -16 12 -7 30 2 30 16 0 12 -27 12 -35 0z"/>
<path d="M5845 1100 c-11 -18 10 -27 50 -22 36 4 50 22 18 22 -10 0 -28 3 -39
6 -12 3 -25 0 -29 -6z"/>
<path d="M5323 1003 c-38 -5 -42 -22 -13 -48 22 -20 26 -55 9 -72 -9 -9 -5
-14 16 -19 39 -10 55 15 55 88 0 63 4 60 -67 51z"/>
<path d="M5482 988 c-20 -20 -14 -37 18 -53 16 -8 33 -22 38 -32 12 -21 47
-10 38 13 -3 9 -6 31 -6 50 0 33 -1 34 -38 34 -21 0 -43 -5 -50 -12z"/>
<path d="M5247 984 c-10 -10 -9 -112 1 -118 5 -3 18 -2 31 1 20 5 21 7 6 23
-11 12 -16 32 -13 56 3 35 -9 53 -25 38z"/>
<path d="M5634 976 c-3 -7 -4 -35 -2 -62 3 -42 6 -49 26 -52 12 -2 23 0 23 5
7 45 5 63 -9 91 -18 34 -29 40 -38 18z"/>
<path d="M5465 910 c-3 -5 -4 -10 -1 -10 2 0 11 -3 20 -6 11 -4 16 -1 16 10 0
18 -25 22 -35 6z"/>
<path d="M3886 664 c-7 -19 2 -37 15 -29 12 8 12 45 0 45 -5 0 -12 -7 -15 -16z"/>
<path d="M3916 623 c-12 -12 -6 -43 9 -43 8 0 15 9 15 19 0 21 -13 34 -24 24z"/>
<path d="M3950 545 c0 -8 5 -15 10 -15 6 0 10 7 10 15 0 8 -4 15 -10 15 -5 0
-10 -7 -10 -15z"/>
<path d="M4707 1234 c-4 -4 -7 -16 -7 -26 0 -16 9 -18 76 -18 41 0 84 -5 96
-11 21 -11 41 -3 21 9 -6 4 -12 16 -15 27 -3 16 -10 19 -33 17 -59 -6 -100 -6
-116 1 -8 4 -18 4 -22 1z"/>
<path d="M4740 1140 c0 -13 20 -13 40 0 12 8 9 10 -12 10 -16 0 -28 -4 -28
-10z"/>
<path d="M4680 1110 c0 -13 11 -13 30 0 12 8 11 10 -7 10 -13 0 -23 -4 -23
-10z"/>
<path d="M4825 1110 c-3 -5 -22 -10 -41 -10 -21 0 -37 -6 -40 -14 -13 -34 52
-105 96 -106 39 0 60 32 60 90 l0 50 -34 0 c-19 0 -38 -4 -41 -10z"/>
<path d="M4792 670 c-8 -13 -23 -20 -41 -20 -31 0 -50 -15 -28 -21 6 -2 48 -2
92 1 71 5 76 6 44 14 -21 4 -40 16 -45 27 -9 19 -9 19 -22 -1z"/>
<path d="M3471 786 c-7 -8 -43 -17 -87 -21 -50 -4 -74 -11 -71 -18 2 -7 16
-13 31 -15 l27 -3 -7 -77 c-7 -85 -15 -102 -44 -95 -25 7 -26 -9 -2 -30 13
-12 37 -17 75 -17 86 0 92 10 100 158 7 118 1 146 -22 118z"/>
<path d="M3534 726 c-9 -24 0 -89 14 -94 8 -3 12 12 12 52 0 53 -14 74 -26 42z"/>
<path d="M4544 406 c-15 -12 -17 -17 -6 -27 10 -11 15 -10 29 4 24 23 4 43
-23 23z"/>
<path d="M4378 352 c-15 -10 -32 -28 -37 -42 -11 -33 -2 -93 15 -103 8 -4 14
-12 14 -16 0 -15 -59 -33 -85 -27 -21 5 -25 3 -25 -14 0 -22 16 -27 23 -7 3 9
9 8 22 -5 17 -15 20 -15 44 0 46 28 61 45 52 56 -12 17 -32 106 -26 117 4 5
15 9 26 9 14 0 19 7 19 25 0 29 -5 29 -42 7z"/>
<path d="M4588 344 c-7 -6 24 -84 33 -84 13 0 19 51 9 70 -10 19 -31 26 -42
14z"/>
<path d="M4460 310 c-9 -16 -7 -22 5 -26 8 -3 15 -13 15 -20 0 -8 11 -20 25
-26 14 -6 25 -15 25 -20 0 -4 9 -8 20 -8 26 0 25 8 -5 32 -14 11 -25 30 -25
42 0 15 -9 27 -25 34 -21 10 -26 9 -35 -8z"/>
<path d="M4245 310 c-18 -8 -17 -9 7 -9 15 -1 31 -9 37 -18 12 -23 25 -11 16
16 -7 22 -26 25 -60 11z"/>
<path d="M4200 238 c0 -38 34 -47 60 -16 12 15 14 24 7 27 -6 2 -13 -1 -15 -7
-5 -17 -23 -15 -38 6 -12 15 -13 15 -14 -10z"/>
<path d="M4420 191 c0 -13 27 -21 45 -15 8 4 12 10 9 15 -7 12 -54 12 -54 0z"/>
<path d="M3690 475 c-7 -8 -25 -15 -40 -15 -15 0 -35 -9 -45 -20 -12 -13 -14
-20 -6 -20 7 0 27 -6 44 -14 18 -8 40 -16 50 -20 12 -4 17 -16 17 -46 0 -40
14 -55 22 -22 2 9 2 52 0 95 -4 79 -15 95 -42 62z"/>
<path d="M3570 370 c0 -21 24 -26 50 -10 15 9 16 9 -35 25 -10 3 -15 -2 -15
-15z"/>
<path d="M3655 340 c-4 -6 -3 -16 3 -22 6 -6 12 -6 17 2 4 6 3 16 -3 22 -6 6
-12 6 -17 -2z"/>
<path d="M3570 294 c0 -36 20 -54 61 -54 34 0 41 -4 51 -27 l12 -28 4 38 c4
49 -11 67 -59 67 -21 0 -41 5 -44 10 -9 15 -25 12 -25 -6z"/>
<path d="M3600 177 c0 -20 6 -23 58 -32 38 -6 42 -5 42 14 0 14 -6 21 -19 21
-10 0 -33 3 -50 6 -24 5 -31 3 -31 -9z"/>
<path d="M4058 4573 c-24 -6 -23 -14 8 -38 l25 -20 -30 -57 c-36 -68 -38 -78
-11 -78 15 0 20 7 20 25 0 14 3 25 8 25 4 0 17 15 30 34 17 24 22 45 20 73 -3
33 -7 38 -28 40 -14 0 -33 -1 -42 -4z"/>
<path d="M4590 4551 c0 -22 -19 -41 -42 -41 -11 0 -18 -7 -18 -19 0 -11 -3
-26 -6 -35 -5 -12 1 -16 24 -16 17 0 32 -6 36 -15 3 -9 19 -15 41 -15 22 0 38
6 41 15 4 8 12 15 19 15 7 0 15 -7 19 -15 16 -42 93 15 80 59 -13 42 -54 73
-54 41 0 -8 -7 -15 -15 -15 -17 0 -20 25 -5 35 25 15 5 24 -55 24 -55 0 -65
-3 -65 -18z m66 -46 c25 -23 26 -27 13 -41 -14 -13 -18 -12 -44 10 -18 15 -26
30 -22 40 9 22 22 20 53 -9z"/>
<path d="M3965 4530 c-3 -5 3 -10 14 -10 12 0 21 5 21 10 0 6 -6 10 -14 10 -8
0 -18 -4 -21 -10z"/>
<path d="M3900 4480 c0 -30 13 -40 25 -20 8 13 -4 50 -16 50 -5 0 -9 -13 -9
-30z"/>
<path d="M3795 4480 c-3 -6 1 -13 9 -16 18 -7 43 -57 48 -94 5 -38 32 -32 36
9 3 24 -2 39 -17 52 -12 11 -21 29 -21 39 0 15 -7 20 -24 20 -14 0 -28 -5 -31
-10z"/>
<path d="M4643 4362 c-13 -8 -6 -52 8 -52 9 0 29 33 29 49 0 13 -20 14 -37 3z"/>
<path d="M3714 4341 c-12 -12 0 -21 30 -21 18 0 39 -7 46 -15 17 -20 60 -20
60 0 0 9 -12 21 -27 27 -27 11 -100 17 -109 9z"/>
<path d="M3910 4320 c-11 -11 -20 -24 -20 -30 0 -5 -7 -10 -15 -10 -16 0 -19
-17 -9 -44 9 -22 24 -20 24 3 0 11 6 26 13 33 7 7 16 21 20 30 4 12 12 15 24
11 24 -9 33 -23 33 -55 0 -24 4 -28 29 -28 41 0 55 21 44 67 l-9 38 -57 3
c-46 2 -61 -2 -77 -18z"/>
<path d="M4622 4288 c-20 -20 -14 -28 25 -28 35 0 36 0 18 20 -21 23 -27 24
-43 8z"/>
<path d="M3557 4169 c-22 -13 -22 -29 0 -29 9 0 25 -7 35 -17 17 -15 18 -15
18 10 0 31 -27 50 -53 36z"/>
<path d="M3448 4092 c-20 -1 -42 -10 -48 -18 -7 -8 -18 -14 -25 -14 -7 0 -15
-8 -19 -17 -3 -10 -9 -25 -14 -33 -40 -70 -56 -140 -32 -140 5 0 13 -12 16
-26 15 -58 79 -89 114 -54 19 19 19 20 -5 46 -14 15 -25 33 -25 40 0 25 40 55
68 52 25 -3 27 -7 27 -47 0 -27 5 -46 13 -48 19 -7 14 -22 -12 -34 -13 -6 -26
-19 -29 -29 -4 -15 -1 -16 32 -4 20 7 41 13 48 14 22 0 83 64 83 86 0 12 7 27
15 34 8 7 15 20 15 30 0 10 -7 23 -15 30 -8 7 -15 23 -15 36 0 13 -15 38 -34
57 -35 36 -81 47 -158 39z m92 -97 c0 -20 -5 -25 -25 -25 -20 0 -25 5 -25 25
0 20 5 25 25 25 20 0 25 -5 25 -25z m-125 -40 c0 -23 -4 -30 -20 -30 -15 0
-21 8 -23 33 -3 30 -1 33 20 30 18 -2 23 -9 23 -33z"/>
<path d="M3240 4025 c0 -28 4 -35 20 -35 13 0 20 7 20 20 0 11 7 23 15 26 27
11 16 24 -20 24 -33 0 -35 -2 -35 -35z"/>
<path d="M2865 3881 c-17 -4 -42 -15 -55 -23 -14 -9 -36 -19 -50 -23 -24 -7
-71 -50 -83 -77 -4 -7 -12 -21 -19 -30 -10 -14 -9 -34 5 -102 9 -46 17 -97 17
-112 0 -16 7 -38 15 -48 8 -11 15 -28 15 -38 0 -10 5 -18 10 -18 6 0 10 -9 10
-20 0 -27 53 -120 87 -152 84 -79 309 21 327 146 4 23 4 50 0 59 -4 12 -1 17
10 17 9 0 19 -6 22 -14 3 -8 14 -16 25 -19 19 -5 28 -47 10 -47 -5 0 -9 -20
-9 -45 0 -25 4 -45 9 -45 5 0 9 6 9 14 0 7 6 19 14 26 8 6 16 21 18 32 3 20
13 24 116 54 19 5 14 31 -10 53 -17 17 -23 18 -32 7 -13 -16 -71 -26 -109 -19
-24 5 -27 10 -27 43 0 24 5 40 15 44 8 3 15 13 15 23 1 17 88 93 107 93 11 0
63 53 63 63 0 4 -7 7 -17 7 -24 0 -83 48 -93 76 -10 26 -30 33 -30 9 0 -8 9
-30 20 -50 27 -47 25 -71 -5 -91 -14 -9 -25 -20 -25 -24 0 -4 -13 -22 -30 -40
-16 -17 -35 -47 -42 -66 -12 -34 -28 -46 -28 -20 0 8 -11 36 -24 63 -13 26
-29 66 -36 88 -34 106 -48 133 -87 173 -44 44 -63 48 -128 33z m80 -33 c14 -6
25 -17 25 -25 0 -7 7 -16 15 -19 8 -4 15 -18 15 -34 0 -16 7 -30 15 -34 10 -3
15 -19 15 -44 0 -23 6 -45 15 -52 10 -8 15 -31 15 -70 0 -43 4 -59 15 -64 13
-5 15 -21 13 -87 -3 -70 -6 -83 -23 -93 -11 -5 -32 -18 -47 -28 -15 -10 -38
-18 -51 -18 -14 0 -30 -7 -37 -15 -7 -9 -29 -15 -51 -15 -33 0 -40 4 -45 25
-3 13 -12 29 -20 36 -8 6 -14 22 -14 36 0 13 -7 31 -15 39 -8 9 -15 26 -15 39
0 13 -4 27 -10 30 -5 3 -10 21 -10 39 0 18 -9 45 -20 59 -13 16 -20 40 -20 66
0 23 -6 50 -12 61 -11 16 -9 26 6 55 11 19 24 35 29 35 14 0 100 43 115 58 7
6 22 12 32 12 10 0 22 5 25 10 8 13 9 12 40 -2z"/>
<path d="M2874 3755 c-4 -8 -23 -18 -44 -21 -34 -6 -38 -10 -44 -43 -9 -53 -7
-109 3 -129 6 -9 13 -34 16 -54 9 -58 23 -54 30 9 7 65 14 82 39 97 14 9 25 3
63 -37 50 -53 61 -52 70 9 5 36 4 37 -9 20 -19 -25 -38 -13 -38 24 0 16 -7 35
-15 44 -8 8 -15 30 -15 49 0 23 -6 37 -16 41 -24 9 -34 7 -40 -9z"/>
<path d="M2943 3493 c-7 -2 -13 -13 -13 -22 0 -25 -11 -33 -26 -20 -8 6 -25 8
-39 5 -28 -7 -34 -36 -10 -56 8 -7 15 -25 15 -41 0 -36 8 -40 61 -31 37 6 45
12 54 37 5 17 15 34 22 38 18 11 16 43 -3 72 -16 24 -34 29 -61 18z"/>
<path d="M3586 3745 c-11 -8 -30 -15 -42 -15 -13 0 -33 -4 -46 -9 -13 -5 -35
-12 -49 -15 -21 -5 -28 -13 -34 -43 -4 -21 -10 -42 -15 -48 -16 -21 -19 -101
-5 -129 8 -16 15 -37 15 -48 0 -30 19 -58 39 -58 10 0 28 -9 41 -20 13 -11 27
-20 31 -20 4 0 9 -10 11 -22 3 -20 9 -23 47 -22 51 1 71 21 71 68 0 21 10 41
30 60 17 16 30 33 30 38 0 4 7 8 16 8 14 0 16 9 11 63 -3 34 -14 78 -24 98
-21 40 -92 129 -102 129 -3 0 -15 -7 -25 -15z m2 -82 c49 -28 65 -65 65 -153
0 -74 -2 -80 -32 -109 -42 -41 -82 -41 -121 -1 -29 30 -30 34 -30 125 0 86 2
96 26 124 29 35 50 38 92 14z"/>
<path d="M3720 3701 c0 -5 7 -14 15 -21 8 -7 15 -21 15 -31 0 -15 8 -19 39
-19 22 0 44 6 51 15 7 9 11 17 9 18 -44 32 -129 56 -129 38z"/>
<path d="M3290 3563 l-42 -48 25 -3 c42 -5 75 23 75 63 0 19 -4 35 -8 35 -5 0
-27 -21 -50 -47z"/>
<path d="M6100 3591 c0 -10 30 -24 37 -17 3 3 2 9 -2 15 -8 13 -35 15 -35 2z"/>
<path d="M6156 3563 c-3 -3 -6 -30 -6 -60 0 -38 -4 -55 -15 -59 -8 -4 -15 -17
-15 -30 0 -21 5 -23 57 -26 56 -3 58 -4 63 -33 4 -21 11 -30 24 -30 11 0 21
-6 24 -13 2 -6 19 -12 39 -12 44 0 40 17 -12 46 -21 11 -60 43 -87 70 -44 44
-48 52 -48 96 0 44 -10 65 -24 51z"/>
<path d="M6081 3521 c-10 -6 -10 -10 -1 -16 13 -8 24 -1 19 14 -3 6 -10 7 -18
2z"/>
<path d="M6021 3446 c-19 -21 -20 -24 -6 -30 31 -11 54 -6 60 14 14 43 -19 53
-54 16z"/>
<path d="M3798 3443 c-9 -10 -19 -28 -22 -40 -4 -13 -12 -23 -17 -23 -5 0 -9
-18 -9 -40 0 -51 26 -68 69 -46 15 8 31 23 34 33 4 10 12 26 19 35 10 14 9 20
-4 35 -9 10 -18 27 -20 38 -4 26 -30 30 -50 8z"/>
<path d="M3710 3425 c0 -8 -7 -15 -15 -15 -16 0 -21 -62 -9 -95 9 -23 24 1 24
39 0 16 7 37 16 47 9 10 13 23 9 28 -9 16 -25 13 -25 -4z"/>
<path d="M6030 3365 c0 -9 9 -15 24 -15 30 0 42 15 20 24 -27 10 -44 7 -44 -9z"/>
<path d="M5810 3357 c0 -7 9 -29 20 -50 11 -20 20 -50 20 -65 0 -55 21 -62
176 -62 108 0 145 3 160 15 10 8 40 15 67 15 26 0 47 4 47 9 0 4 -12 20 -26
35 -22 21 -36 26 -79 26 -35 0 -57 5 -65 15 -8 10 -30 15 -65 15 -35 0 -57 5
-65 15 -7 9 -30 15 -54 15 -22 1 -52 7 -66 15 -31 18 -70 19 -70 2z m147 -78
c7 -7 38 -13 71 -14 44 -2 68 -8 92 -26 l32 -24 -38 -3 c-21 -2 -47 2 -59 8
-15 8 -29 8 -49 1 -41 -16 -96 -14 -102 4 -17 44 23 84 53 54z"/>
<path d="M3300 3301 c0 -44 4 -55 35 -86 36 -35 79 -47 88 -22 2 6 -2 26 -10
44 -7 18 -13 39 -13 48 0 23 -34 52 -69 60 l-31 7 0 -51z"/>
<path d="M3420 3339 c0 -6 7 -17 15 -25 8 -9 15 -24 15 -33 0 -10 7 -24 16
-32 13 -10 17 -10 25 2 15 23 10 54 -11 77 -22 23 -60 30 -60 11z"/>
<path d="M6365 3289 c-9 -25 -2 -114 10 -114 14 0 19 90 6 112 -9 16 -10 16
-16 2z"/>
<path d="M6275 3150 c-3 -5 0 -13 9 -16 21 -8 61 -1 61 11 0 14 -62 19 -70 5z"/>
<path d="M6052 3123 c-28 -11 3 -23 61 -23 71 0 109 8 101 21 -5 9 -140 11
-162 2z"/>
<path d="M3510 3065 c0 -5 0 -273 -1 -595 l-1 -585 996 -3 996 -2 0 601 0 601
-995 -3 c-654 -3 -995 -7 -995 -14z m673 -36 c15 1 39 1 55 2 15 0 63 -2 107
-6 112 -9 229 -5 236 7 4 7 21 8 45 3 36 -8 174 -12 614 -18 l165 -2 16 -35
c19 -39 22 -122 21 -510 0 -422 -3 -457 -30 -483 l-24 -22 -811 -2 c-764 -1
-978 4 -999 25 -7 7 -15 204 -10 262 6 72 -7 520 -15 535 -6 11 -11 50 -11 86
-1 62 1 70 35 113 l37 47 83 -2 c45 -2 85 0 89 3 3 4 88 4 187 2 100 -3 194
-5 210 -5z"/>
<path d="M4828 2706 c-15 -8 -40 -17 -57 -21 -16 -3 -35 -13 -41 -20 -8 -9
-17 -11 -28 -6 -38 20 -120 31 -177 24 -88 -11 -192 -8 -208 6 -23 18 -83 -12
-89 -44 -5 -21 -2 -25 11 -19 13 6 237 8 346 3 17 0 51 2 78 6 51 8 55 4 35
-40 -10 -22 -8 -30 12 -57 18 -25 23 -45 24 -92 1 -59 0 -61 -24 -61 -26 0
-26 -3 -17 90 1 14 -5 21 -21 23 -22 3 -23 1 -21 -45 1 -27 0 -54 -4 -59 -3
-6 -42 -11 -86 -12 -75 -1 -80 1 -96 25 -19 29 -13 91 11 100 8 3 14 19 14 38
0 39 -19 57 -27 26 -6 -22 -27 -28 -38 -11 -4 6 -11 8 -16 4 -6 -3 -3 -11 6
-18 24 -17 16 -70 -10 -75 -42 -7 -36 -51 7 -51 13 0 18 -6 16 -17 -2 -13 -15
-19 -42 -21 -32 -3 -43 1 -58 20 -23 31 -23 73 2 98 25 25 26 40 1 40 -13 0
-21 -8 -23 -22 -4 -29 -19 -28 -35 3 -11 22 -13 18 -13 -36 0 -34 5 -66 11
-72 17 -17 1 -33 -32 -33 -28 0 -29 1 -31 53 -1 64 -1 68 3 86 2 7 -2 16 -8
18 -7 3 -13 -2 -13 -10 0 -9 -13 -18 -29 -22 -62 -13 -68 -63 -11 -81 47 -16
45 -38 -4 -42 -29 -3 -43 2 -58 17 -24 26 -34 26 -41 1 -4 -17 -14 -20 -55
-20 l-50 0 2 63 c0 34 5 67 9 74 4 6 3 14 -3 18 -5 3 -10 28 -10 56 0 43 3 49
21 49 11 0 29 10 38 22 21 25 51 19 51 -10 0 -11 7 -26 16 -33 14 -11 18 -10
29 5 28 37 76 -8 53 -49 -8 -12 -6 -20 3 -26 22 -14 34 -5 39 32 8 54 -8 77
-65 93 -114 32 -127 30 -188 -23 -34 -31 -35 -32 -42 -136 l-7 -106 34 -29
c18 -16 40 -30 48 -31 8 -1 29 -4 45 -6 17 -2 48 -3 70 -2 22 1 61 1 88 1 87
-1 134 -2 182 -1 49 0 111 -2 190 -4 44 -2 109 0 144 5 42 6 67 5 76 -2 20
-17 87 3 121 36 24 25 29 37 31 84 2 76 10 151 18 175 4 12 3 15 -2 9 -4 -6
-21 -17 -38 -25 -26 -12 -30 -20 -33 -61 -2 -37 -7 -48 -23 -53 -18 -6 -17 -9
15 -33 33 -25 48 -62 26 -62 -5 0 -10 -7 -10 -15 0 -11 -12 -15 -49 -15 -55 0
-73 14 -60 48 8 22 29 31 29 12 0 -5 8 -10 18 -10 12 0 8 8 -18 30 -30 26 -33
32 -23 49 10 16 8 22 -13 40 -29 25 -30 38 -3 70 19 23 20 23 39 6 19 -17 20
-17 20 3 0 11 5 24 10 27 9 6 44 65 38 65 -2 0 -15 -6 -30 -14z"/>
<path d="M4593 2557 c-48 -25 -51 -32 -23 -47 17 -9 22 -7 30 15 7 19 17 25
41 25 20 0 29 4 27 13 -7 19 -30 18 -75 -6z"/>
<path d="M4043 2527 c-4 -8 -17 -18 -27 -24 -19 -10 -19 -11 2 -17 11 -4 24
-16 28 -28 5 -16 8 -18 15 -7 5 8 9 24 9 35 0 12 7 24 15 28 8 3 15 10 15 16
0 15 -48 12 -57 -3z"/>
<path d="M4553 2476 c-37 -13 -60 -32 -50 -42 4 -4 26 -8 49 -8 38 -1 43 2 46
23 5 33 -8 40 -45 27z"/>
<path d="M2820 3026 c0 -8 -14 -31 -30 -50 l-30 -34 25 -6 c14 -4 25 -11 25
-16 0 -6 7 -10 15 -10 12 0 15 13 15 59 0 33 -4 63 -10 66 -5 3 -10 -1 -10 -9z"/>
<path d="M2872 2979 c4 -79 23 -81 23 -2 0 37 -4 58 -13 61 -10 3 -12 -11 -10
-59z"/>
<path d="M2680 2923 c-8 -3 -23 -14 -34 -24 -18 -17 -18 -19 -2 -25 11 -4 28
1 43 12 36 27 31 51 -7 37z"/>
<path d="M2754 2886 c-4 -9 -2 -31 3 -49 l10 -32 8 38 c8 42 -8 76 -21 43z"/>
<path d="M6195 2861 c-7 -12 2 -17 46 -25 21 -4 42 -13 49 -21 7 -8 23 -15 35
-15 15 0 48 -25 94 -71 39 -39 71 -74 71 -78 0 -3 4 -12 9 -20 7 -10 13 -11
30 -2 34 19 30 28 -44 102 -21 21 -42 39 -46 39 -4 0 -14 6 -22 14 -22 23 -90
56 -113 56 -12 0 -35 7 -50 15 -33 17 -50 19 -59 6z"/>
<path d="M6117 2823 c-11 -10 -8 -39 9 -90 9 -26 18 -88 20 -138 6 -147 4
-140 44 -140 29 0 36 4 38 23 2 12 -4 36 -12 54 -9 17 -16 48 -16 68 0 21 -7
43 -15 50 -9 7 -15 29 -15 51 0 28 -5 41 -20 49 -20 11 -21 19 -3 68 5 12 -19
17 -30 5z"/>
<path d="M3125 2802 c-5 -4 -10 -53 -11 -110 0 -65 -5 -107 -12 -114 -24 -24
-14 -39 25 -36 l38 3 -4 125 c-3 143 -6 154 -36 132z"/>
<path d="M6040 2767 c-14 -23 -26 -60 -27 -82 -1 -22 -7 -76 -14 -121 -14 -94
-10 -114 26 -114 l25 0 0 135 c0 82 4 135 10 135 14 0 22 42 13 67 -8 21 -10
19 -33 -20z"/>
<path d="M6192 2801 c-26 -16 -9 -46 26 -49 29 -3 36 -10 57 -57 14 -30 25
-63 25 -74 0 -12 5 -21 10 -21 6 0 10 -18 10 -39 l0 -39 40 2 c22 1 47 9 56
17 13 14 12 22 -18 78 -37 71 -111 151 -139 151 -10 0 -23 9 -29 20 -12 22
-18 24 -38 11z"/>
<path d="M2342 2760 c-12 -16 -22 -37 -22 -46 0 -19 -32 -74 -67 -117 -29 -36
-29 -60 0 -106 12 -19 27 -51 32 -70 17 -58 35 -51 35 14 0 54 -2 57 -30 68
-24 9 -30 17 -30 40 0 44 63 94 102 82 23 -8 25 26 3 45 -9 7 -15 29 -15 51 0
28 4 39 15 39 8 0 15 7 15 15 0 23 -14 18 -38 -15z"/>
<path d="M2786 2753 c-8 -8 4 -115 15 -128 4 -6 8 -44 7 -86 0 -58 5 -84 22
-118 16 -30 25 -39 31 -30 5 8 2 20 -7 30 -10 11 -14 40 -14 97 0 60 -4 85
-16 96 -10 11 -15 36 -16 76 -1 58 -8 77 -22 63z"/>
<path d="M5898 2673 c-30 -65 -43 -106 -55 -165 -4 -21 -1 -28 11 -28 10 0 16
9 16 24 0 31 18 44 26 19 3 -10 8 -25 11 -33 4 -13 6 -12 14 3 7 12 6 26 -5
49 -20 39 -20 77 -1 84 8 4 15 18 15 34 0 16 7 30 15 34 20 7 20 46 0 46 -9 0
-28 -27 -47 -67z"/>
<path d="M2424 2719 c-7 -9 -9 -34 -5 -64 6 -51 21 -65 51 -45 13 8 13 13 -1
42 -9 18 -21 44 -26 57 -7 19 -11 21 -19 10z"/>
<path d="M6206 2707 c-7 -31 1 -54 15 -40 5 5 5 22 0 38 l-8 30 -7 -28z"/>
<path d="M6091 2645 l1 -60 10 49 c6 33 6 52 -2 60 -7 7 -10 -8 -9 -49z"/>
<path d="M2510 2654 c0 -31 23 -28 28 4 2 15 -2 22 -12 22 -11 0 -16 -9 -16
-26z"/>
<path d="M2517 2594 c-4 -4 -7 -22 -7 -41 0 -44 23 -53 56 -23 25 25 32 60 12
60 -7 0 -22 3 -33 6 -11 3 -24 2 -28 -2z"/>
<path d="M2332 2567 c-20 -12 -21 -14 -6 -29 12 -12 20 -13 40 -4 26 12 28 39
4 43 -8 1 -25 -3 -38 -10z"/>
<path d="M2382 2481 c-15 -21 -19 -36 -14 -54 7 -24 8 -25 27 -9 39 34 47 49
35 71 -14 28 -22 26 -48 -8z"/>
<path d="M3060 2491 c0 -14 18 -23 24 -12 3 5 15 7 25 4 10 -3 22 0 25 6 5 7
-7 11 -33 11 -23 0 -41 -4 -41 -9z"/>
<path d="M3170 2490 c0 -5 11 -10 25 -10 14 0 25 5 25 10 0 6 -11 10 -25 10
-14 0 -25 -4 -25 -10z"/>
<path d="M2482 2454 c2 -15 9 -29 16 -32 10 -3 13 4 10 24 -2 15 -9 29 -16 32
-10 3 -13 -4 -10 -24z"/>
<path d="M3236 2458 c-13 -30 -3 -63 22 -66 15 -2 22 2 22 12 0 9 -4 16 -8 16
-5 0 -13 12 -19 28 -8 22 -11 24 -17 10z"/>
<path d="M6660 2317 c0 -102 -3 -138 -15 -153 -19 -26 -20 -90 0 -98 11 -4 15
-21 15 -66 0 -47 3 -60 15 -60 16 0 15 29 -1 136 -2 16 3 68 12 115 26 136 27
179 8 221 -9 21 -21 38 -26 38 -4 0 -8 -60 -8 -133z"/>
<path d="M3092 2381 c-11 -7 -10 -10 3 -15 37 -14 111 -3 99 15 -7 11 -85 12
-102 0z"/>
<path d="M6594 2267 c-4 -10 -2 -23 3 -28 14 -14 24 13 13 32 -7 11 -10 10
-16 -4z"/>
<path d="M6565 2040 c-4 -12 -4 -38 0 -60 5 -29 3 -40 -9 -47 -19 -10 -25
-148 -8 -165 22 -22 29 7 35 144 6 126 -2 179 -18 128z"/>
<path d="M6630 1800 c0 -78 3 -100 14 -100 19 0 24 35 18 125 -3 54 -8 75 -18
75 -11 0 -14 -22 -14 -100z"/>
<path d="M4150 1510 c-10 -7 33 -10 130 -10 97 0 140 3 130 10 -8 5 -67 10
-130 10 -63 0 -122 -5 -130 -10z"/>
<path d="M4440 1510 c-10 -7 30 -10 123 -10 90 0 136 4 132 10 -8 13 -235 13
-255 0z"/>
<path d="M4226 1285 c-11 -8 -28 -15 -37 -15 -15 0 -17 -12 -17 -94 0 -93 -1
-96 -31 -125 -17 -17 -31 -35 -31 -41 0 -5 -4 -10 -10 -10 -12 0 -50 -37 -50
-47 0 -5 16 -26 35 -48 27 -30 38 -37 44 -27 11 18 56 44 96 57 11 3 15 18 15
51 0 26 6 55 13 63 22 26 37 92 27 112 -6 10 -10 45 -10 78 0 65 -8 73 -44 46z"/>
<path d="M4378 1274 c-4 -3 -4 -28 -1 -55 4 -36 1 -55 -11 -73 -20 -32 -21
-76 -1 -76 8 0 15 -7 15 -15 0 -8 5 -15 10 -15 6 0 10 -11 10 -24 0 -14 -4
-28 -10 -31 -30 -18 4 -115 40 -115 10 0 25 -7 34 -15 20 -20 46 -19 46 2 0 9
6 24 14 32 21 24 31 81 14 81 -7 1 -24 9 -36 20 -23 19 -24 24 -21 140 2 68
-1 124 -6 129 -13 12 -89 24 -97 15z"/>
<path d="M3436 1224 c-10 -25 -7 -34 9 -34 9 0 15 9 15 25 0 28 -15 34 -24 9z"/>
<path d="M2830 1177 c-31 -25 -53 -128 -30 -142 6 -3 10 -13 10 -21 0 -19 39
-53 61 -54 8 0 25 9 37 20 18 17 22 32 22 86 0 80 -21 124 -60 124 -14 0 -32
-6 -40 -13z"/>
<path d="M3467 1140 c-16 -19 -23 -40 -12 -40 14 0 46 43 38 51 -5 5 -16 0
-26 -11z"/>
<path d="M4295 1028 c-10 -28 -9 -61 2 -65 16 -6 47 43 39 62 -7 18 -35 20
-41 3z"/>
<path d="M4578 891 c-28 -60 -24 -69 30 -55 27 8 30 53 5 77 -17 14 -19 12
-35 -22z"/>
<path d="M4302 912 c-9 -6 -7 -14 8 -30 34 -37 65 -20 33 18 -19 22 -22 23
-41 12z"/>
<path d="M4017 903 c-9 -14 16 -57 36 -61 9 -2 17 1 17 6 0 16 -47 65 -53 55z"/>
<path d="M5265 671 l-30 -8 25 -6 c14 -4 36 -8 50 -9 16 -2 26 -11 31 -28 5
-21 7 -22 13 -8 4 9 6 27 4 40 -3 25 -37 32 -93 19z"/>
<path d="M5432 672 c-26 -4 -20 -22 8 -22 20 0 36 16 23 22 -5 2 -18 2 -31 0z"/>
<path d="M5186 605 c-4 -14 -11 -25 -16 -25 -6 0 -10 -12 -10 -26 0 -22 3 -25
23 -20 12 3 33 0 47 -7 21 -11 27 -9 47 9 25 23 31 72 11 78 -7 3 -32 7 -54
10 -38 5 -42 4 -48 -19z"/>
<path d="M5411 601 c-12 -16 -21 -38 -21 -49 0 -11 -5 -22 -12 -24 -23 -8 4
-28 38 -28 l34 0 0 59 c0 33 -4 62 -9 66 -5 3 -19 -8 -30 -24z"/>
<path d="M5542 563 c3 -54 5 -58 28 -58 36 0 40 50 8 88 -13 15 -27 27 -31 27
-5 0 -7 -26 -5 -57z"/>
<path d="M5634 556 c-3 -14 -3 -37 0 -50 9 -36 -12 -48 -67 -37 -52 9 -57 7
-57 -24 0 -11 -5 -26 -11 -32 -13 -13 -4 -33 15 -33 7 0 21 9 31 20 27 30 63
26 83 -10 9 -16 20 -30 24 -30 6 0 -1 212 -7 219 -2 2 -7 -8 -11 -23z"/>
<path d="M5126 493 c-3 -8 -6 -17 -6 -19 0 -9 99 -3 105 6 7 11 -4 16 -57 23
-27 4 -38 1 -42 -10z"/>
<path d="M5347 446 l-27 -22 29 -25 c35 -31 83 -29 106 4 21 30 19 38 -8 32
-15 -4 -32 1 -48 13 -24 20 -25 20 -52 -2z"/>
<path d="M5235 442 c-40 -3 -89 -37 -79 -53 11 -18 85 -9 114 13 47 34 37 46
-35 40z"/>
<path d="M5010 425 c0 -8 7 -15 15 -15 8 0 15 4 15 9 0 5 -7 11 -15 15 -9 3
-15 0 -15 -9z"/>
<path d="M5085 400 c-11 -17 5 -32 21 -19 7 6 11 15 8 20 -7 12 -21 11 -29 -1z"/>
<path d="M5286 339 c-15 -26 -16 -33 -5 -40 27 -17 44 -5 44 30 0 45 -16 49
-39 10z"/>
<path d="M5572 349 c1 -13 8 -23 13 -21 15 3 12 35 -3 40 -9 3 -13 -3 -10 -19z"/>
<path d="M5035 309 c-11 -16 -5 -17 82 -21 48 -3 88 -10 98 -18 23 -19 41 1
26 29 -11 19 -20 21 -106 21 -56 0 -96 -4 -100 -11z"/>
<path d="M4917 248 c-22 -13 4 -22 74 -26 58 -4 69 -2 69 12 0 18 3 17 -73 20
-32 1 -63 -2 -70 -6z"/>
<path d="M5113 253 c-23 -9 -14 -33 12 -33 27 0 28 1 19 24 -6 17 -11 18 -31
9z"/>
<path d="M5170 220 c-16 -10 60 -30 111 -30 40 0 42 1 27 17 -17 16 -117 26
-138 13z"/>
<path d="M5394 211 c7 -11 105 -22 133 -15 44 12 11 24 -63 24 -41 0 -73 -4
-70 -9z"/>
</g>
</svg>
