<?xml version="1.0" standalone="no"?>
<!DOCTYPE svg PUBLIC "-//W3C//DTD SVG 20010904//EN"
 "http://www.w3.org/TR/2001/REC-SVG-20010904/DTD/svg10.dtd">
<svg version="1.0" xmlns="http://www.w3.org/2000/svg"
 width="900.000000pt" height="1755.000000pt" viewBox="0 0 900.000000 1755.000000"
 preserveAspectRatio="xMidYMid meet">
<metadata>
Created by potrace 1.10, written by Peter Selinger 2001-2011
</metadata>
<g transform="translate(0.000000,1755.000000) scale(0.100000,-0.100000)"
fill="#000000" stroke="none">
<path d="M745 17368 c-242 -58 -402 -152 -540 -317 -63 -76 -69 -85 -117 -186
-37 -75 -60 -147 -78 -235 -16 -80 -9 -15853 8 -15928 62 -288 290 -547 572
-651 148 -54 -106 -51 3912 -51 2640 0 3721 3 3755 11 208 47 351 123 479 254
114 116 178 224 231 390 5 17 15 29 21 28 9 -2 12 1865 12 8002 0 7063 -2
8005 -15 8005 -8 0 -17 12 -21 28 -10 49 -36 116 -71 182 -130 244 -350 406
-633 464 -67 14 -464 16 -3775 15 -2302 -1 -3715 -5 -3740 -11z m4923 -1284
c41 -24 82 -90 94 -149 18 -92 -22 -209 -89 -252 -25 -17 -93 -18 -1113 -21
-597 -2 -1104 0 -1127 3 -158 23 -205 303 -70 410 l32 25 1123 0 c1011 0 1127
-2 1150 -16z m3113 -1064 c19 -11 19 -91 19 -6225 0 -6134 0 -6214 -19 -6225
-21 -11 -8536 -15 -8565 -4 -15 6 -16 564 -16 6229 0 4969 3 6224 13 6228 26
11 8548 7 8568 -3z m-4079 -12715 c190 -40 360 -149 480 -306 58 -76 128 -202
128 -230 0 -8 4 -19 9 -25 15 -16 34 -135 38 -236 15 -364 -228 -709 -575
-818 -37 -12 -82 -26 -100 -31 -43 -14 -281 -14 -324 0 -18 5 -63 19 -100 31
-276 86 -503 340 -560 627 -16 75 -15 261 0 339 44 224 191 427 407 561 57 36
174 77 260 92 33 6 71 13 85 15 40 7 176 -3 252 -19z"/>
</g>
</svg>
