<?xml version="1.0" standalone="no"?>
<!DOCTYPE svg PUBLIC "-//W3C//DTD SVG 20010904//EN"
 "http://www.w3.org/TR/2001/REC-SVG-20010904/DTD/svg10.dtd">
<svg version="1.0" xmlns="http://www.w3.org/2000/svg"
 width="300.000000pt" height="158.000000pt" viewBox="0 0 300.000000 158.000000"
 preserveAspectRatio="xMidYMid meet">
<metadata>
Created by potrace 1.10, written by Peter Selinger 2001-2011
</metadata>
<g transform="translate(0.000000,158.000000) scale(0.100000,-0.100000)"
fill="#000000" stroke="none">
<path d="M0 1080 c0 -5 3 -10 8 -10 4 0 7 -115 7 -255 0 -140 -3 -255 -7 -255
-5 0 -8 -4 -8 -10 0 -7 506 -10 1498 -10 l1497 0 -2 168 c-4 319 -4 348 3 365
6 16 -90 17 -1495 17 -994 0 -1501 -3 -1501 -10z m2960 -265 l0 -245 -1460 0
-1460 0 0 245 0 245 1460 0 1460 0 0 -245z"/>
<path d="M1160 815 l0 -205 883 0 882 0 0 205 1 205 -883 0 -883 0 0 -205z
m1741 60 c1 -69 2 -144 3 -167 4 -86 92 -78 -867 -76 l-852 3 0 165 c0 91 2
173 4 183 3 16 52 17 857 17 l854 0 1 -125z"/>
<path d="M1266 921 c-22 -24 -21 -184 0 -202 8 -7 39 -12 69 -13 47 0 57 3 81
29 21 22 28 41 30 82 3 49 1 55 -33 87 -31 29 -44 34 -84 34 -33 1 -52 -5 -63
-17z m124 -26 c0 -8 8 -15 18 -15 14 0 17 -10 17 -60 0 -50 -3 -60 -17 -60
-10 0 -18 -7 -18 -17 0 -15 -10 -18 -60 -18 l-60 0 0 93 0 92 60 0 c47 0 60
-3 60 -15z"/>
<path d="M1310 821 l0 -61 40 0 40 0 0 55 c0 52 -2 55 -24 55 -13 0 -31 3 -40
6 -14 5 -16 -3 -16 -55z m49 11 c11 -21 -2 -48 -18 -38 -14 9 -15 56 -1 56 5
0 14 -8 19 -18z"/>
<path d="M1513 902 c-33 -34 -34 -36 -31 -111 l3 -76 35 0 c31 0 36 3 40 30 6
36 30 45 30 12 0 -29 18 -47 46 -47 32 0 37 13 35 93 -1 62 -5 75 -27 98 -16
17 -40 29 -62 31 -30 4 -41 -1 -69 -30z m100 -8 c-3 -9 2 -14 16 -14 20 0 21
-5 21 -80 0 -75 -1 -80 -21 -80 -19 0 -21 5 -17 40 l4 40 -38 0 c-38 0 -38 0
-38 -40 0 -33 -3 -40 -20 -40 -18 0 -20 7 -20 80 0 73 2 80 20 80 12 0 20 7
20 18 0 14 7 17 39 14 29 -3 38 -8 34 -18z"/>
<path d="M1540 855 c0 -11 11 -15 40 -15 31 0 38 3 34 15 -4 9 -19 15 -40 15
-24 0 -34 -5 -34 -15z"/>
<path d="M1731 928 c-30 -11 -32 -22 -10 -62 13 -24 18 -49 15 -73 -6 -56 11
-85 48 -81 31 3 31 4 34 64 2 46 8 66 22 79 22 20 25 42 10 65 -10 16 -84 21
-119 8z m109 -39 c0 -16 -4 -19 -20 -14 -19 6 -20 2 -20 -74 0 -74 -2 -81 -20
-81 -18 0 -20 7 -20 79 0 74 -1 79 -20 74 -15 -4 -20 0 -20 16 0 19 6 21 60
21 54 0 60 -2 60 -21z"/>
<path d="M1922 904 c-29 -33 -32 -42 -32 -104 0 -48 5 -73 15 -84 23 -22 59
-6 65 30 6 36 23 34 32 -5 9 -33 38 -45 66 -25 16 11 19 25 18 83 -1 66 -3 72
-35 105 -48 49 -86 49 -129 0z m108 -10 c0 -8 7 -14 15 -14 12 0 15 -16 15
-81 0 -71 -2 -80 -17 -77 -14 3 -17 12 -15 41 l4 37 -41 0 -41 0 0 -40 c0 -33
-3 -40 -20 -40 -18 0 -20 7 -20 80 0 73 2 80 20 80 12 0 20 7 20 18 0 14 7 17
40 14 26 -3 40 -9 40 -18z"/>
<path d="M1950 855 c0 -11 11 -15 40 -15 29 0 40 4 40 15 0 11 -11 15 -40 15
-29 0 -40 -4 -40 -15z"/>
<path d="M190 895 c0 -10 11 -15 35 -15 24 0 35 5 35 15 0 10 -11 15 -35 15
-24 0 -35 -5 -35 -15z"/>
<path d="M380 825 c0 -47 -1 -88 -2 -92 -2 -3 5 -7 15 -9 14 -2 17 5 17 37 0
39 0 39 40 39 33 0 40 3 40 20 0 13 7 20 20 20 13 0 20 7 20 20 0 12 -7 20
-16 20 -9 0 -18 -9 -21 -20 -4 -16 -14 -20 -44 -20 -32 0 -39 3 -39 20 0 17 7
20 40 20 29 0 40 4 40 15 0 12 -13 15 -55 15 l-55 0 0 -85z"/>
<path d="M600 818 l0 -93 55 0 c46 0 55 3 55 18 0 13 -8 17 -35 17 -28 0 -35
4 -35 20 0 16 7 20 35 20 28 0 35 4 35 20 0 16 -7 20 -35 20 -29 0 -35 4 -35
21 0 18 5 21 35 17 29 -3 35 -1 35 14 0 15 -9 18 -55 18 l-55 0 0 -92z"/>
<path d="M790 816 c0 -83 2 -94 17 -92 14 2 16 13 14 59 -2 52 -1 57 18 57 14
0 21 -6 21 -20 0 -13 7 -20 20 -20 14 0 20 -7 20 -21 0 -16 5 -20 20 -16 16 4
20 0 20 -18 0 -18 4 -22 20 -18 18 5 20 14 20 94 0 82 -2 89 -20 89 -18 0 -20
-7 -20 -55 0 -48 -2 -55 -20 -55 -13 0 -20 7 -20 20 0 13 -7 20 -20 20 -14 0
-20 7 -20 21 0 16 -4 19 -21 14 -19 -6 -21 -4 -16 14 4 16 1 21 -14 21 -17 0
-19 -8 -19 -94z"/>
<path d="M150 820 c0 -53 2 -60 20 -60 12 0 20 -7 20 -17 0 -14 8 -18 35 -18
27 0 35 4 35 18 0 10 8 17 20 17 18 0 20 7 20 61 0 52 -2 60 -16 55 -9 -3 -18
-6 -20 -6 -2 0 -4 -25 -4 -55 l0 -55 -35 0 -35 0 0 54 c0 50 -9 66 -36 66 -2
0 -4 -27 -4 -60z"/>
</g>
</svg>
