<?xml version="1.0" standalone="no"?>
<!DOCTYPE svg PUBLIC "-//W3C//DTD SVG 20010904//EN"
 "http://www.w3.org/TR/2001/REC-SVG-20010904/DTD/svg10.dtd">
<svg version="1.0" xmlns="http://www.w3.org/2000/svg"
 width="900.000000pt" height="444.000000pt" viewBox="0 0 900.000000 444.000000"
 preserveAspectRatio="xMidYMid meet">
<metadata>
Created by potrace 1.10, written by Peter Selinger 2001-2011
</metadata>
<g transform="translate(0.000000,444.000000) scale(0.100000,-0.100000)"
fill="#000000" stroke="none">
<path d="M0 4419 c0 -11 4 -17 10 -14 13 8 13 35 0 35 -5 0 -10 -9 -10 -21z"/>
<path d="M75 4431 c-3 -5 -1 -12 5 -16 12 -7 30 2 30 16 0 12 -27 12 -35 0z"/>
<path d="M155 4431 c-3 -6 5 -13 17 -16 13 -3 455 -5 982 -3 733 2 960 6 963
15 5 15 -1952 19 -1962 4z"/>
<path d="M2281 4208 c-2 -128 -4 -246 -4 -263 -2 -25 1 -29 18 -27 11 2 28 13
38 24 26 26 61 20 65 -12 3 -29 23 -72 37 -82 13 -10 63 -10 69 0 7 12 -51 99
-79 118 -14 9 -25 20 -25 25 0 5 -11 26 -24 47 -22 35 -24 50 -27 196 -4 141
-2 159 14 170 31 23 20 36 -31 36 l-48 0 -3 -232z"/>
<path d="M2560 4422 c0 -10 4 -22 8 -27 4 -6 5 -111 1 -235 -5 -177 -10 -233
-23 -264 -9 -23 -13 -43 -8 -48 5 -5 64 -11 130 -13 67 -3 125 -5 129 -6 31
-5 32 2 30 306 l-2 305 -72 0 c-75 0 -93 -11 -49 -31 30 -14 34 -44 32 -212
-1 -104 -4 -128 -18 -144 -10 -11 -18 -29 -18 -40 0 -23 -39 -63 -63 -63 -10
0 -20 11 -24 28 -10 36 -9 411 1 440 8 20 5 22 -23 22 -23 0 -31 -5 -31 -18z
m205 -478 c27 -27 15 -58 -22 -62 -33 -3 -38 2 -34 38 5 44 27 53 56 24z"/>
<path d="M3034 4429 c-7 -11 209 -21 390 -17 131 2 170 6 174 16 4 12 -44 13
-278 11 -155 -2 -284 -7 -286 -10z"/>
<path d="M3785 4430 c-3 -6 0 -12 7 -15 7 -3 1165 -4 2572 -3 2037 2 2560 6
2564 16 5 16 -5133 18 -5143 2z"/>
<path d="M8950 4426 c0 -13 20 -26 41 -26 5 0 9 9 9 20 0 15 -7 20 -25 20 -15
0 -25 -6 -25 -14z"/>
<path d="M3025 4216 c-4 -52 -4 -104 -1 -114 4 -12 0 -26 -10 -37 -16 -16 -16
-17 7 -13 l24 3 -3 125 c-2 69 -5 126 -7 128 -1 2 -6 -40 -10 -92z"/>
<path d="M3114 4209 c-11 -18 11 -32 25 -16 9 12 8 16 -3 20 -9 4 -18 1 -22
-4z"/>
<path d="M3189 4201 c8 -5 36 -7 61 -4 27 3 56 1 68 -6 18 -10 22 -9 22 4 0
12 -15 15 -82 15 -54 0 -78 -3 -69 -9z"/>
<path d="M3666 4185 c4 -8 10 -15 15 -15 5 0 9 7 9 15 0 8 -7 15 -15 15 -9 0
-12 -6 -9 -15z"/>
<path d="M1290 4175 c0 -3 12 -10 27 -16 29 -11 86 -3 77 12 -5 9 -104 13
-104 4z"/>
<path d="M1430 4170 c0 -6 36 -11 85 -12 47 -1 93 -2 102 -2 9 -1 18 5 21 12
3 9 -22 12 -102 12 -64 0 -106 -4 -106 -10z"/>
<path d="M1770 4170 c0 -5 17 -10 38 -10 27 0 33 3 22 10 -20 13 -60 13 -60 0z"/>
<path d="M2090 4170 c0 -5 9 -10 20 -10 11 0 20 5 20 10 0 6 -9 10 -20 10 -11
0 -20 -4 -20 -10z"/>
<path d="M3324 4136 c-6 -14 -8 -28 -3 -33 4 -4 9 -21 12 -38 2 -16 5 -2 6 33
0 34 0 62 -1 62 -2 0 -8 -11 -14 -24z"/>
<path d="M3120 4114 c0 -22 2 -25 15 -14 12 10 13 16 4 26 -16 20 -19 18 -19
-12z"/>
<path d="M3205 4121 c-7 -12 12 -24 25 -16 11 7 4 25 -10 25 -5 0 -11 -4 -15
-9z"/>
<path d="M1675 4051 c-7 -12 12 -24 25 -16 11 7 4 25 -10 25 -5 0 -11 -4 -15
-9z"/>
<path d="M1790 4050 c0 -5 7 -10 15 -10 8 0 15 5 15 10 0 6 -7 10 -15 10 -8 0
-15 -4 -15 -10z"/>
<path d="M1955 4050 c3 -5 12 -10 20 -10 8 0 17 5 20 10 4 6 -5 10 -20 10 -15
0 -24 -4 -20 -10z"/>
<path d="M3121 4001 c-1 -27 2 -32 11 -23 8 8 8 17 0 34 -10 22 -11 21 -11
-11z"/>
<path d="M3320 4003 c0 -5 5 -15 10 -23 8 -12 10 -11 10 8 0 12 -4 22 -10 22
-5 0 -10 -3 -10 -7z"/>
<path d="M3122 3913 c2 -10 11 -18 21 -17 9 0 55 1 102 2 51 1 85 6 85 12 0 7
-13 9 -32 5 -18 -4 -44 -2 -58 3 -16 6 -33 6 -47 -1 -16 -7 -31 -7 -49 2 -22
10 -25 9 -22 -6z"/>
<path d="M1455 3850 c-88 -3 -155 -8 -150 -12 15 -9 333 -13 342 -4 7 7 -17
28 -27 24 -3 -1 -77 -5 -165 -8z"/>
<path d="M2147 3853 c-26 -7 -10 -23 24 -23 20 0 29 4 27 13 -5 13 -24 17 -51
10z"/>
<path d="M1770 3840 c0 -6 35 -10 85 -10 50 0 85 4 85 10 0 6 -35 10 -85 10
-50 0 -85 -4 -85 -10z"/>
<path d="M2013 3839 c11 -7 23 -7 35 0 14 9 11 10 -18 10 -29 0 -32 -1 -17
-10z"/>
<path d="M2995 3840 c3 -5 19 -10 35 -10 16 0 32 5 35 10 4 6 -10 10 -35 10
-25 0 -39 -4 -35 -10z"/>
<path d="M2245 3821 c-3 -6 5 -23 20 -38 14 -16 28 -37 31 -48 4 -11 9 -22 13
-25 13 -11 51 -70 51 -80 0 -5 4 -10 9 -10 5 0 39 -51 77 -112 37 -62 80 -131
96 -152 15 -21 28 -43 28 -47 0 -9 59 -110 70 -119 11 -10 110 -161 110 -168
0 -4 20 -29 45 -55 48 -51 53 -70 33 -133 -10 -29 -12 -104 -8 -289 3 -137 3
-394 0 -570 -3 -208 -1 -323 5 -327 6 -4 423 -8 927 -8 l917 0 3 48 3 47 55 0
c54 0 54 0 62 35 6 31 4 38 -20 57 -15 13 -30 23 -34 23 -4 0 -8 9 -10 21 -3
21 -4 21 -438 21 l-435 -1 0 -33 c0 -18 -4 -39 -8 -45 -11 -18 12 -17 58 3 32
13 88 15 385 12 276 -2 350 -6 363 -17 24 -19 21 -28 -15 -48 -30 -16 -68 -18
-426 -18 -364 0 -394 1 -403 18 -9 15 -33 17 -271 17 -235 0 -263 -2 -281 -17
-16 -15 -44 -19 -177 -22 -146 -3 -157 -2 -161 15 -7 33 6 1008 14 1024 5 10
0 18 -15 25 -17 7 -23 19 -24 45 -1 19 -7 49 -15 65 -13 30 -98 165 -109 175
-3 3 -17 23 -30 45 -13 22 -27 42 -30 45 -3 3 -27 41 -53 85 -53 90 -51 85
-109 179 -24 37 -48 76 -53 85 -6 9 -42 59 -81 111 -39 52 -81 115 -95 140
-24 44 -59 64 -74 41z"/>
<path d="M2525 3793 c-85 -8 -79 -53 29 -228 17 -28 36 -58 41 -67 6 -10 46
-70 91 -135 44 -65 98 -147 119 -183 22 -36 44 -71 50 -79 20 -27 109 -111
117 -111 4 0 8 -8 8 -18 0 -20 69 -50 87 -39 7 5 1781 12 1852 8 11 -1 12 -65
8 -373 -4 -361 -13 -458 -38 -458 -5 0 -18 14 -28 30 -16 27 -19 60 -23 258
-5 255 -10 273 -75 314 l-38 23 -502 0 c-430 0 -503 2 -503 14 0 8 -21 34 -46
58 l-47 43 -264 0 c-173 0 -271 4 -285 11 -15 8 -26 8 -42 0 -11 -6 -33 -15
-48 -21 -20 -7 -28 -16 -28 -34 0 -14 5 -28 10 -31 6 -4 10 -98 10 -248 l0
-242 25 -38 c14 -20 43 -46 64 -56 20 -11 43 -26 50 -35 12 -14 33 -232 25
-248 -9 -16 47 -108 65 -108 3 0 7 89 9 198 1 108 5 214 8 235 l6 38 -109 -3
-108 -3 -1 255 c-2 300 -1 303 72 288 25 -6 160 -8 305 -6 225 3 259 1 260
-12 0 -8 0 -117 -1 -242 l-1 -228 40 0 c31 0 41 4 46 21 4 11 4 88 0 170 -5
119 -3 149 7 150 40 2 1041 0 1043 -3 5 -7 -15 -635 -21 -660 -8 -34 6 -36 45
-7 23 17 32 19 50 10 11 -7 21 -16 21 -21 0 -17 44 -10 68 9 27 24 28 36 2 63
-34 37 -26 60 30 86 l50 22 0 98 c-1 53 -1 106 -2 117 0 11 -1 154 -2 318 -2
264 -4 299 -19 317 -17 20 -31 20 -999 20 -660 0 -996 4 -1021 11 -21 5 -41
18 -44 27 -4 9 -21 31 -40 49 -18 17 -33 39 -33 47 0 9 -12 42 -27 73 -14 32
-30 67 -35 78 -5 11 -24 31 -43 45 -19 14 -39 34 -44 45 -6 11 -20 34 -31 50
-11 17 -23 37 -27 45 -3 8 -19 31 -35 51 -15 20 -28 40 -28 44 0 10 -71 98
-87 108 -7 4 -13 15 -13 22 0 13 26 15 155 15 l155 0 0 30 0 30 -122 -2 c-68
-1 -141 -3 -163 -5z"/>
<path d="M1675 3721 c-8 -14 7 -20 37 -14 15 3 25 9 22 14 -7 12 -51 12 -59 0z"/>
<path d="M3530 3720 c0 -5 9 -10 21 -10 11 0 17 5 14 10 -3 6 -13 10 -21 10
-8 0 -14 -4 -14 -10z"/>
<path d="M4076 3721 c-6 -10 33 -23 46 -15 4 3 8 9 8 15 0 12 -47 12 -54 0z"/>
<path d="M7770 3695 c-9 -11 -12 -148 -12 -589 -1 -315 2 -579 6 -585 10 -16
867 -16 884 1 17 17 17 1159 0 1176 -9 9 -120 12 -439 12 -366 0 -428 -2 -439
-15z m442 -74 c161 0 311 2 333 3 28 1 40 -3 40 -13 0 -11 -62 -14 -372 -15
-362 -1 -392 1 -366 28 4 4 22 5 40 1 18 -3 164 -5 325 -4z m373 -63 c3 -3 5
-205 6 -449 l0 -444 -383 -3 -383 -2 2 446 c2 245 5 448 7 452 5 8 744 8 751
0z m-357 -940 c20 -20 14 -54 -12 -67 -46 -25 -89 15 -65 61 11 21 58 25 77 6z"/>
<path d="M8145 3451 c-3 -5 -1 -12 5 -16 12 -7 30 2 30 16 0 12 -27 12 -35 0z"/>
<path d="M8250 3324 c0 -111 3 -135 14 -131 7 3 50 9 95 12 44 4 78 12 75 16
-3 5 -9 7 -14 4 -5 -3 -38 -1 -74 6 -74 12 -76 15 -76 121 0 45 5 71 15 81 16
17 10 27 -17 27 -17 0 -18 -11 -18 -136z"/>
<path d="M8065 3233 c-154 -7 -131 -31 29 -32 86 0 97 2 94 17 -4 19 -10 20
-123 15z"/>
<path d="M7965 2940 c8 -13 475 -13 495 0 10 6 -73 10 -243 10 -170 0 -256 -3
-252 -10z"/>
<path d="M7950 2861 l-35 -7 40 -7 c54 -9 505 -8 530 2 33 13 -82 20 -300 19
-110 0 -216 -4 -235 -7z"/>
<path d="M8045 2770 l-90 -5 120 -5 c66 -3 181 -2 255 1 148 6 154 5 -125 13
-38 1 -110 -1 -160 -4z"/>
<path d="M2780 3660 c-16 -30 -4 -54 43 -86 42 -29 76 -63 77 -76 0 -6 45 -76
56 -87 2 -2 13 4 24 14 13 11 41 20 75 23 61 5 66 19 8 20 -23 1 -62 14 -95
32 -47 25 -58 36 -58 56 0 28 -41 74 -65 74 -8 0 -21 11 -27 25 -14 30 -24 32
-38 5z"/>
<path d="M4350 3591 c0 -12 6 -21 16 -21 9 0 14 7 12 17 -5 25 -28 28 -28 4z"/>
<path d="M5378 3603 c-22 -5 -23 -19 -2 -27 25 -9 34 -7 34 8 0 18 -10 24 -32
19z"/>
<path d="M1677 3594 c-14 -14 -7 -24 17 -24 14 0 28 5 31 10 3 6 2 10 -4 10
-5 0 -16 2 -23 5 -8 3 -17 2 -21 -1z"/>
<path d="M2264 3589 c-9 -15 14 -29 49 -29 20 0 27 5 27 20 0 16 -7 20 -34 20
-19 0 -38 -5 -42 -11z"/>
<path d="M3030 3586 c0 -9 7 -16 16 -16 17 0 14 22 -4 28 -7 2 -12 -3 -12 -12z"/>
<path d="M4095 3590 l-60 -7 80 -1 c44 -1 90 -5 103 -8 16 -5 22 -2 22 10 0
17 -30 19 -145 6z"/>
<path d="M4975 3590 c-64 -6 -66 -7 -20 -8 28 -1 67 -5 88 -8 30 -5 37 -4 37
10 0 9 -7 15 -17 14 -10 -1 -49 -4 -88 -8z"/>
<path d="M5185 3589 c-4 -6 -5 -13 -2 -15 8 -9 107 8 101 17 -7 13 -92 11 -99
-2z"/>
<path d="M5575 3590 c-11 -18 -1 -21 44 -14 48 8 48 9 -1 18 -23 4 -39 2 -43
-4z"/>
<path d="M5855 3590 c-45 -8 -40 -11 23 -15 31 -2 42 1 42 11 0 15 -3 15 -65
4z"/>
<path d="M6030 3587 c0 -11 25 -14 116 -16 91 -1 115 1 112 11 -7 20 -228 24
-228 5z"/>
<path d="M4428 3583 c17 -2 47 -2 65 0 17 2 3 4 -33 4 -36 0 -50 -2 -32 -4z"/>
<path d="M4573 3583 c15 -2 39 -2 55 0 15 2 2 4 -28 4 -30 0 -43 -2 -27 -4z"/>
<path d="M4738 3583 c29 -2 74 -2 100 0 26 2 2 3 -53 3 -55 0 -76 -1 -47 -3z"/>
<path d="M2296 3512 c-2 -4 -10 -36 -17 -71 -19 -88 -33 -96 -171 -96 -59 0
-107 -3 -105 -8 1 -4 52 -9 112 -11 61 -1 118 -6 128 -10 13 -6 17 -20 17 -61
0 -46 4 -58 30 -83 35 -36 37 -43 10 -60 -30 -18 -25 -27 25 -47 25 -9 50 -26
56 -38 22 -40 -8 -47 -203 -47 -139 0 -178 -3 -178 -13 0 -10 32 -12 153 -9
170 5 240 -5 314 -45 27 -14 50 -27 52 -29 12 -12 -40 -33 -81 -34 -27 0 -48
-4 -48 -10 0 -5 15 -10 33 -9 17 0 94 -6 170 -15 175 -20 203 -12 117 33 -22
12 -49 21 -60 21 -10 0 -22 5 -25 10 -3 6 -14 10 -24 10 -10 0 -24 7 -31 15
-7 8 -22 15 -33 15 -27 0 -117 93 -117 121 0 12 -13 44 -30 71 -16 26 -30 54
-30 61 0 6 -16 25 -35 40 -39 31 -46 67 -21 115 13 27 27 157 19 180 -5 13
-19 16 -27 4z"/>
<path d="M5400 3463 c0 -9 19 -13 72 -13 87 0 80 16 -9 22 -48 3 -63 1 -63 -9z"/>
<path d="M6008 3473 c-25 -6 -22 -20 4 -27 25 -6 44 7 34 23 -7 11 -10 12 -38
4z"/>
<path d="M1675 3460 c-4 -6 12 -10 40 -10 28 0 44 4 40 10 -3 6 -21 10 -40 10
-19 0 -37 -4 -40 -10z"/>
<path d="M2000 3460 c0 -5 7 -10 15 -10 8 0 15 5 15 10 0 6 -7 10 -15 10 -8 0
-15 -4 -15 -10z"/>
<path d="M2195 3460 c-3 -5 3 -10 14 -10 12 0 21 5 21 10 0 6 -6 10 -14 10 -8
0 -18 -4 -21 -10z"/>
<path d="M3385 3460 c-4 -6 7 -10 25 -10 18 0 29 4 25 10 -3 6 -15 10 -25 10
-10 0 -22 -4 -25 -10z"/>
<path d="M3745 3460 c-4 -6 7 -10 27 -10 25 0 29 3 18 10 -19 13 -37 13 -45 0z"/>
<path d="M3840 3460 c0 -5 9 -10 20 -10 11 0 20 5 20 10 0 6 -9 10 -20 10 -11
0 -20 -4 -20 -10z"/>
<path d="M4080 3460 c0 -5 18 -10 41 -10 24 0 38 4 34 10 -3 6 -22 10 -41 10
-19 0 -34 -4 -34 -10z"/>
<path d="M4224 3459 c-3 -5 134 -9 312 -9 175 0 315 3 311 6 -9 10 -617 12
-623 3z"/>
<path d="M4887 3458 c-7 -4 16 -8 51 -8 40 0 61 4 57 10 -7 11 -90 9 -108 -2z"/>
<path d="M5035 3460 c-4 -6 17 -10 54 -10 34 0 61 4 61 10 0 6 -24 10 -54 10
-30 0 -58 -4 -61 -10z"/>
<path d="M2967 3383 c-12 -12 -7 -59 8 -79 8 -10 15 -37 15 -59 1 -62 11 -72
57 -55 29 11 118 15 388 16 193 2 350 5 350 8 0 4 -160 7 -355 9 -195 1 -363
6 -373 11 -10 5 -24 21 -32 37 -14 26 -14 29 7 41 15 8 83 15 193 19 169 5
159 8 -50 12 -91 2 -118 6 -154 25 -52 25 -46 24 -54 15z"/>
<path d="M1673 3338 c-5 -10 -16 -9 107 -10 58 -1 103 2 100 7 -6 11 -200 13
-207 3z"/>
<path d="M3490 3339 c0 -5 55 -9 122 -9 67 0 119 2 116 5 -9 9 -238 12 -238 4z"/>
<path d="M3990 3338 c0 -5 92 -9 205 -10 113 -1 214 -2 225 -2 11 -1 20 3 20
9 0 5 -90 9 -225 10 -124 0 -225 -3 -225 -7z"/>
<path d="M7365 3330 c-4 -6 -4 -14 -1 -17 8 -9 192 -13 246 -6 44 6 44 7 15
14 -16 5 -65 8 -110 7 -44 -1 -94 2 -112 6 -20 5 -34 3 -38 -4z"/>
<path d="M7403 3228 c-28 -14 -35 -34 -25 -73 l8 -30 105 -3 c132 -4 172 3
160 26 -37 78 -36 77 -71 78 -19 0 -62 3 -95 7 -37 4 -68 2 -82 -5z"/>
<path d="M2003 3217 c-7 -12 17 -15 94 -14 43 1 72 6 70 12 -2 12 -157 14
-164 2z"/>
<path d="M6592 3222 c-7 -5 -10 -16 -6 -25 4 -11 1 -17 -9 -17 -8 0 -17 5 -19
11 -3 8 -14 7 -35 -5 -18 -9 -43 -16 -56 -16 -13 0 -32 -10 -43 -21 -10 -12
-42 -36 -70 -54 -61 -39 -164 -152 -181 -197 -16 -46 -16 -68 2 -68 8 0 15 3
15 8 0 10 97 112 107 112 5 0 17 15 27 34 10 19 43 51 74 73 46 31 63 38 101
36 25 -1 53 5 65 13 11 8 34 14 51 15 16 0 39 4 50 8 20 8 20 8 0 14 -15 5
-20 16 -20 44 0 30 -4 39 -20 41 -11 1 -26 -2 -33 -6z"/>
<path d="M7281 3223 c-1 -7 -10 -21 -21 -31 -18 -16 -19 -23 -10 -48 6 -16 18
-37 27 -46 21 -23 2 -48 -37 -48 -15 0 -42 -5 -59 -11 -27 -10 -36 -9 -48 4
-11 10 -21 13 -32 7 -9 -5 -28 -11 -43 -15 -16 -3 -28 -12 -28 -19 0 -8 -8
-16 -19 -19 -29 -7 -51 11 -51 44 0 17 -3 29 -7 27 -47 -23 -61 -34 -81 -63
-25 -39 -52 -46 -52 -14 0 15 -5 20 -18 17 -15 -4 -17 1 -14 33 3 31 0 40 -22
54 -31 21 -48 12 -20 -10 19 -15 19 -15 -2 -33 -12 -10 -24 -34 -28 -55 -5
-28 -20 -48 -62 -84 -30 -27 -61 -63 -69 -81 -11 -26 -20 -33 -37 -30 -19 2
-24 12 -31 53 -22 133 -21 130 -47 134 -14 1 -28 8 -32 15 -5 8 -12 8 -25 0
-26 -16 -26 -29 -1 -41 13 -6 31 -27 42 -46 l18 -36 -27 -25 -28 -26 29 -29
c50 -51 64 -71 64 -86 0 -8 5 -15 10 -15 6 0 10 7 10 15 0 9 15 32 34 51 30
31 39 35 67 29 l31 -7 -5 -77 c-8 -115 -16 -172 -27 -216 -8 -27 -8 -48 -1
-65 9 -23 10 -22 10 16 1 28 7 47 21 59 11 10 20 23 20 28 0 6 8 19 17 29 14
16 15 23 5 38 -20 32 -15 57 14 64 20 5 24 11 19 29 -7 22 -35 52 -58 60 -8 3
-2 14 17 31 34 33 68 31 76 -3 3 -14 12 -27 19 -29 11 -4 12 8 6 57 -5 41 -3
61 4 61 6 0 17 14 26 30 9 17 23 30 32 30 9 0 24 7 34 16 17 15 21 14 64 -15
38 -25 50 -29 66 -20 15 8 20 19 18 42 -4 44 26 77 68 77 43 0 42 -18 -2 -53
-19 -15 -35 -32 -35 -37 0 -16 36 -12 50 5 7 8 27 15 45 15 18 0 38 7 45 15
33 40 144 62 156 31 4 -11 31 -13 137 -9 153 5 177 8 177 27 0 20 -24 24 -156
25 -162 3 -206 29 -231 135 -6 28 -12 46 -12 39z m-542 -322 c24 -15 -2 -61
-34 -61 -21 0 -25 5 -25 28 0 16 3 32 7 35 9 10 35 8 52 -2z"/>
<path d="M6870 3158 c1 -18 0 -42 -2 -53 -2 -16 2 -19 22 -17 34 5 38 11 17
26 -19 14 -23 41 -7 51 17 11 11 25 -10 25 -17 0 -20 -6 -20 -32z"/>
<path d="M4 3050 c0 -52 1 -74 3 -47 2 26 2 68 0 95 -2 26 -3 4 -3 -48z"/>
<path d="M7430 2944 c0 -3 20 -28 44 -56 24 -28 56 -74 70 -104 14 -29 31 -56
36 -59 15 -9 12 -61 -5 -75 -8 -7 -15 -21 -15 -31 0 -22 1 -22 33 -10 21 8 25
18 31 80 7 65 5 74 -19 115 -28 48 -27 86 3 86 9 0 22 11 28 24 10 21 9 25
-10 30 -28 8 -196 8 -196 0z"/>
<path d="M6356 2908 c-3 -7 -6 -22 -8 -33 -2 -11 -14 -22 -28 -25 -43 -10 -34
-70 11 -70 14 0 19 7 19 30 0 19 7 33 21 40 14 8 19 19 17 37 -3 29 -25 43
-32 21z"/>
<path d="M3 2855 c0 -27 2 -38 4 -22 2 15 2 37 0 50 -2 12 -4 0 -4 -28z"/>
<path d="M5113 2864 c-8 -4 -8 -14 3 -40 17 -42 10 -74 -16 -74 -10 0 -21 -4
-24 -9 -11 -18 25 -20 70 -5 50 17 79 12 70 -11 -6 -17 10 -30 19 -15 13 21
27 10 21 -16 -6 -22 -4 -25 13 -19 31 9 43 -27 46 -129 2 -99 -11 -136 -47
-136 -15 0 -18 -5 -13 -20 5 -17 2 -20 -24 -20 -23 0 -29 -4 -25 -15 5 -12 -2
-15 -31 -15 -20 0 -45 5 -56 10 -11 6 -24 8 -31 4 -7 -4 -1 -12 16 -21 31 -16
32 -22 5 -74 -11 -23 -18 -43 -16 -46 5 -5 32 -11 57 -12 11 -1 8 -7 -8 -19
-35 -27 -28 -76 11 -80 41 -5 56 13 55 64 0 25 3 48 6 52 4 4 46 5 93 4 58 -2
83 0 78 7 -3 6 -26 11 -51 11 -49 0 -55 10 -22 32 22 14 22 16 5 41 -9 15 -17
31 -17 36 0 16 48 25 63 12 10 -8 19 -4 35 19 27 36 27 46 2 60 -36 19 -15 79
23 64 11 -4 18 2 22 19 11 41 2 72 -20 73 -11 1 -26 2 -32 3 -20 2 -15 40 7
53 26 17 25 36 -5 73 -24 29 -25 29 -39 10 -12 -16 -18 -18 -33 -9 -25 15 -29
45 -8 57 16 8 14 12 -11 33 -36 29 -52 30 -80 3 -30 -28 -54 -19 -54 21 0 25
-4 30 -22 29 -13 0 -28 -3 -35 -5z m121 -601 c5 -11 1 -22 -11 -30 -24 -18
-37 -11 -41 20 -3 23 0 27 21 27 14 0 28 -7 31 -17z"/>
<path d="M2312 2843 c2 -12 11 -17 23 -15 28 5 32 12 15 22 -24 15 -42 11 -38
-7z"/>
<path d="M6004 2802 c-6 -4 -14 -19 -17 -33 -6 -22 -16 -28 -63 -39 -56 -14
-57 -14 -76 13 -17 23 -22 25 -44 15 -20 -9 -24 -17 -19 -38 5 -22 -1 -30 -40
-58 l-46 -32 -26 20 -27 21 -20 -20 c-17 -18 -18 -23 -6 -45 12 -23 10 -29
-24 -70 -32 -40 -39 -44 -56 -34 -15 10 -23 9 -39 -6 -26 -24 -27 -42 -1 -49
45 -12 7 -118 -45 -127 -27 -5 -30 -9 -30 -40 0 -28 4 -35 25 -40 22 -6 25
-11 22 -46 -4 -56 -8 -64 -37 -64 -29 0 -35 -29 -10 -50 21 -17 51 -3 75 36
16 26 28 34 50 34 19 0 29 6 33 20 3 11 13 20 22 20 9 0 37 14 62 30 24 17 48
30 54 30 5 0 9 9 9 19 0 14 5 18 19 14 11 -3 30 2 43 11 12 9 31 16 41 16 10
0 23 5 30 10 46 39 61 50 69 50 5 0 16 7 24 15 12 12 41 15 129 15 65 0 116 4
120 10 3 6 -3 10 -14 10 -11 0 -24 7 -29 16 -7 13 -16 15 -38 9 -16 -5 -73 -9
-127 -9 -76 0 -95 -3 -83 -12 27 -19 18 -27 -24 -20 -25 4 -40 2 -40 -4 0 -5
5 -10 10 -10 6 0 10 -5 10 -11 0 -7 -10 -9 -26 -5 -23 6 -26 4 -21 -14 4 -17
2 -20 -15 -15 -14 5 -21 1 -25 -14 -3 -12 -12 -21 -19 -21 -28 0 -10 69 26 96
8 7 33 28 55 48 24 22 50 36 66 36 15 0 32 7 39 15 9 10 32 15 75 15 43 0 66
-5 75 -15 7 -8 23 -15 36 -15 15 0 41 -17 69 -46 42 -42 48 -45 92 -42 64 4
63 23 -2 77 -57 47 -104 71 -192 96 -92 26 -181 6 -311 -70 -32 -19 -82 -68
-88 -87 -3 -11 -19 -39 -34 -62 -16 -22 -31 -59 -35 -80 -9 -47 -43 -86 -56
-65 -24 38 -2 131 53 221 32 53 48 71 123 133 60 49 190 95 268 95 128 -2 286
-85 369 -195 22 -30 50 -54 70 -61 41 -14 47 -31 14 -44 -29 -11 -32 -20 -13
-38 8 -9 12 -49 13 -120 l1 -107 68 -8 c39 -4 73 -3 78 2 12 12 -9 51 -28 51
-18 0 -21 6 -29 62 -7 47 -7 47 28 62 40 17 40 15 27 50 -7 18 -15 23 -30 19
-14 -3 -28 4 -45 23 -31 36 -34 79 -6 94 26 14 26 45 -1 64 -17 12 -25 12 -40
3 -17 -10 -24 -7 -55 27 -35 38 -36 41 -24 74 10 28 10 36 -1 43 -20 13 -43
11 -64 -5 -18 -13 -47 -6 -65 15 -3 3 -15 11 -28 18 -18 10 -20 15 -12 31 9
16 6 22 -16 37 -26 17 -27 16 -51 -11 -24 -28 -26 -28 -66 -16 -23 7 -48 14
-54 16 -7 2 -13 12 -13 22 0 17 -18 42 -29 42 -4 0 -11 -4 -17 -8z"/>
<path d="M1676 2658 c-8 -24 -13 -206 -6 -217 4 -8 29 -8 85 -1 53 7 82 7 89
0 5 -5 19 -10 29 -10 17 0 19 5 13 38 -3 20 -6 47 -6 60 0 23 -28 32 -34 10
-15 -48 -16 -50 -30 -39 -10 8 -16 9 -21 1 -3 -5 -17 -10 -30 -10 -20 0 -26 7
-35 41 -6 22 -10 53 -8 67 l3 27 331 -1 c182 0 338 -3 347 -7 14 -5 15 -88 11
-807 -2 -441 -6 -806 -10 -811 -4 -7 -10 -7 -18 0 -6 5 -42 8 -81 5 -39 -3
-172 -6 -297 -7 -152 -1 -231 -6 -238 -13 -19 -19 18 -21 358 -23 l322 -1 1
437 c0 241 -1 533 -2 648 0 116 -1 301 -1 413 l1 202 -362 -2 c-199 -2 -372 1
-385 5 -15 6 -23 4 -26 -5z"/>
<path d="M6772 2638 c-21 -21 -13 -38 15 -38 16 0 39 -12 58 -29 27 -27 34
-29 74 -21 64 12 81 50 22 50 -15 0 -36 9 -46 20 -12 13 -22 17 -33 11 -9 -5
-28 -3 -47 5 -24 10 -35 10 -43 2z"/>
<path d="M3153 2592 c-35 -2 -63 -7 -63 -11 0 -13 100 -24 241 -26 69 -1 131
-5 137 -9 6 -4 25 0 42 9 24 13 35 14 46 5 11 -10 15 -9 20 4 4 9 5 19 3 21
-6 5 -347 11 -426 7z"/>
<path d="M4053 2583 c37 -2 96 -2 130 0 34 2 4 3 -68 3 -71 0 -99 -1 -62 -3z"/>
<path d="M7508 2578 c7 -7 12 -30 12 -51 0 -39 0 -39 32 -33 40 8 63 29 55 50
-7 18 -27 22 -27 6 0 -5 -4 -10 -10 -10 -5 0 -10 11 -10 25 0 21 -5 25 -32 25
-25 0 -29 -3 -20 -12z"/>
<path d="M1918 2558 c9 -9 15 -9 24 0 9 9 7 12 -12 12 -19 0 -21 -3 -12 -12z"/>
<path d="M2176 2544 c-3 -9 -6 -42 -6 -75 l0 -60 -57 3 -58 3 -3 68 c-3 64 -4
68 -25 65 -20 -3 -22 -10 -25 -67 l-3 -64 -45 7 -44 6 0 -40 c0 -38 -2 -40
-42 -51 -23 -6 -57 -8 -76 -5 -40 6 -62 -1 -62 -20 0 -11 18 -14 79 -14 46 0
83 5 86 11 4 5 18 15 32 20 14 5 27 18 30 29 9 34 33 24 33 -13 0 -21 8 -41
20 -52 26 -23 25 -36 -3 -67 -21 -23 -27 -24 -82 -17 -108 13 -185 11 -192 -6
-3 -9 -3 -18 0 -21 9 -10 297 -5 315 5 10 6 41 13 69 17 l51 6 -2 -58 c-3 -55
-5 -59 -32 -66 -16 -4 -44 -5 -64 -3 -50 7 -312 13 -327 8 -7 -3 -13 -11 -13
-19 0 -15 47 -18 196 -14 65 1 72 0 87 -23 14 -22 14 -26 -4 -57 -13 -21 -18
-42 -14 -57 6 -25 9 -153 6 -275 l-1 -67 -52 6 c-29 3 -57 11 -61 17 -4 6 -6
89 -4 184 2 94 1 172 -2 172 -3 1 -53 2 -111 3 l-105 1 2 -29 c5 -66 3 -224
-3 -287 -6 -63 -17 -85 -27 -55 -3 9 -7 9 -18 0 -8 -7 -48 -13 -89 -15 -47 -2
-75 -7 -77 -15 -4 -10 53 -12 257 -12 144 1 265 -2 269 -7 5 -5 11 -35 15 -66
l6 -57 -52 6 c-29 3 -58 9 -63 14 -6 4 -53 9 -105 11 -79 2 -95 1 -95 -12 0
-11 12 -15 48 -15 57 0 100 -31 95 -67 -4 -30 -49 -46 -87 -31 -33 12 -57 2
-48 -21 4 -10 18 -16 35 -16 28 0 62 -26 62 -47 0 -18 -42 -48 -68 -48 -32 0
-42 -30 -14 -39 44 -14 31 -56 -25 -85 -20 -10 -22 -17 -16 -59 7 -58 13 -65
47 -56 24 6 27 11 23 37 -3 21 3 41 19 65 13 19 24 48 24 64 0 16 6 31 14 34
8 3 20 25 27 48 11 37 16 42 36 38 22 -4 23 -2 23 51 0 82 4 87 66 87 l54 0 0
-69 c0 -64 2 -70 23 -74 l22 -4 -22 -2 c-21 -1 -23 -6 -23 -68 0 -75 10 -99
34 -90 13 5 16 21 16 77 l0 70 49 0 c28 0 53 5 56 10 6 10 -3 11 -70 14 l-30
1 -3 73 -3 72 51 0 c59 0 67 16 13 25 -65 11 -64 10 -61 77 l3 63 30 -3 c17
-1 41 0 54 4 37 8 7 24 -46 24 l-43 0 0 56 c0 30 5 65 11 77 9 16 9 22 0 25
-7 2 -11 30 -11 72 l0 68 56 7 c31 4 58 5 60 2 3 -3 5 -67 5 -143 0 -151 3
-174 24 -174 15 0 22 109 17 241 l-3 76 -38 12 c-21 6 -55 11 -75 11 l-36 0 0
48 c0 60 14 78 67 86 l42 6 3 -72 3 -73 50 -12 c66 -17 120 -8 133 22 21 45
24 92 10 120 -13 24 -13 33 1 70 14 39 13 46 -3 89 l-18 47 -67 -2 -66 -3 0
79 0 78 70 1 70 1 7 45 c7 52 1 107 -15 117 -7 4 -8 -15 -4 -58 3 -36 2 -70
-2 -77 -5 -9 -27 -12 -67 -10 l-59 3 -3 73 c-2 52 -7 72 -16 72 -8 0 -17 -7
-20 -16z m-6 -225 c0 -80 0 -81 -22 -75 -13 4 -35 9 -50 12 -30 7 -33 14 -43
86 l-7 47 53 4 c30 2 57 4 62 5 4 1 7 -35 7 -79z m170 -169 l0 -71 -62 3 -63
3 -3 68 -3 67 66 0 65 0 0 -70z m-2 -167 l3 -71 -61 -4 c-34 -1 -64 -1 -66 1
-6 6 -5 137 1 142 2 3 31 5 62 4 l58 -1 3 -71z m-500 -235 l-3 -123 -47 -3
c-45 -3 -46 -2 -58 34 -14 42 -8 170 9 202 13 25 83 44 94 25 4 -7 6 -68 5
-135z"/>
<path d="M3890 2530 l-85 -6 68 -4 c109 -6 127 -6 128 5 0 13 -7 13 -111 5z"/>
<path d="M4202 2533 c-25 -10 1 -23 46 -22 74 1 96 14 38 22 -54 8 -65 8 -84
0z"/>
<path d="M4427 2533 c-67 -6 -48 -23 24 -23 44 0 60 3 57 13 -5 14 -15 15 -81
10z"/>
<path d="M4568 2534 c-5 -4 -8 -11 -8 -16 0 -12 118 -10 125 2 3 6 -4 10 -17
10 -13 0 -39 3 -58 6 -19 3 -38 2 -42 -2z"/>
<path d="M7099 2533 c-1 -5 -2 -19 -2 -33 -2 -23 -5 -25 -44 -22 -35 3 -43 0
-53 -19 -17 -31 12 -53 55 -42 57 13 197 5 231 -13 38 -21 64 -62 64 -101 0
-16 3 -33 6 -36 12 -11 44 13 44 33 0 32 18 24 86 -35 35 -31 92 -69 128 -85
76 -35 96 -55 45 -47 -63 10 -114 23 -136 35 -12 7 -30 12 -40 12 -26 0 -103
43 -103 57 0 7 -7 13 -15 13 -8 0 -15 -5 -15 -11 0 -20 -73 -88 -113 -104 -26
-11 -67 -15 -122 -14 -45 1 -91 -3 -101 -9 -17 -10 -16 -12 16 -26 19 -8 48
-28 64 -45 53 -55 96 -71 195 -71 67 0 92 4 101 15 7 8 19 15 26 15 7 0 23 14
36 30 23 32 49 38 67 16 6 -7 43 -24 81 -36 39 -13 73 -27 76 -31 3 -5 14 -9
24 -9 23 0 40 -28 40 -65 0 -14 4 -24 9 -21 4 3 9 71 10 151 l2 145 -28 11
c-15 7 -46 15 -68 19 -78 16 -120 36 -123 62 -13 105 -91 194 -185 212 -18 3
-44 17 -57 31 -29 31 -70 33 -77 5 -3 -11 -14 -20 -23 -20 -10 0 -22 9 -25 20
-5 15 -15 20 -41 20 -19 0 -34 -3 -35 -7z m296 -409 c13 -5 11 -9 -11 -20 -31
-17 -42 -11 -24 11 14 17 13 17 35 9z"/>
<path d="M528 2503 l-528 -3 0 -43 0 -42 118 -1 c64 -1 273 -2 465 -3 333 -1
348 -2 367 -21 11 -11 25 -20 30 -20 6 0 10 -7 10 -15 0 -7 8 -18 18 -24 16
-9 16 -11 -3 -24 -16 -13 -89 -15 -450 -14 -309 0 -442 -3 -473 -12 -39 -11
-46 -10 -63 5 -18 16 -19 16 -19 -9 l0 -27 523 -1 c287 -1 536 -4 552 -8 29
-6 30 -8 28 -63 -2 -60 -16 -98 -35 -98 -6 0 -19 -7 -29 -16 -10 -9 -23 -13
-29 -9 -11 7 -767 8 -900 1 -58 -3 -79 0 -92 12 -17 14 -18 12 -18 -30 l0 -46
556 -1 c402 -2 561 -5 574 -14 11 -6 22 -8 26 -4 4 3 7 125 7 269 l-1 263 -53
0 c-30 0 -291 -1 -581 -2z m547 -88 c0 -27 -3 -30 -30 -30 -21 0 -31 5 -33 18
-5 25 17 49 42 45 16 -2 21 -10 21 -33z"/>
<path d="M1385 2500 c-46 -9 -124 -49 -135 -70 -16 -30 20 -45 51 -22 49 36
75 42 199 44 117 3 125 4 125 23 0 16 -8 21 -35 23 -76 6 -177 7 -205 2z"/>
<path d="M3297 2489 c-99 -4 -183 -11 -189 -17 -13 -13 196 -25 352 -20 97 2
115 6 118 20 2 12 -5 16 -31 16 -19 0 -43 2 -53 4 -11 3 -99 1 -197 -3z"/>
<path d="M2628 2463 c12 -2 30 -2 40 0 9 3 -1 5 -23 4 -22 0 -30 -2 -17 -4z"/>
<path d="M6013 2458 c21 -7 32 -7 40 1 8 8 0 11 -28 10 -40 -1 -40 -1 -12 -11z"/>
<path d="M3813 2423 c-12 -30 5 -34 154 -36 109 -1 156 -6 165 -15 9 -9 14
-59 16 -173 4 -159 4 -161 -17 -154 -28 9 -27 -12 1 -37 48 -42 51 -31 54 209
l3 222 -186 -2 c-135 -1 -187 -5 -190 -14z"/>
<path d="M4263 2425 c-35 -26 -3 -35 117 -35 118 0 146 8 121 33 -16 16 -217
17 -238 2z"/>
<path d="M6740 2411 c-23 -7 -21 -8 15 -14 81 -14 162 -6 149 14 -6 10 -127
10 -164 0z"/>
<path d="M7767 2400 c-14 -11 -30 -20 -36 -20 -12 0 -14 -50 -5 -99 10 -50 24
-36 24 27 1 59 10 80 45 100 11 6 15 12 9 12 -6 0 -23 -9 -37 -20z"/>
<path d="M7860 2408 c0 -5 4 -8 9 -8 18 0 32 -59 29 -121 -3 -60 -2 -64 20
-67 22 -3 23 -2 20 83 -3 73 0 89 15 99 26 20 22 23 -38 22 -30 -1 -55 -4 -55
-8z"/>
<path d="M6942 2352 c-12 -37 -5 -51 26 -52 19 0 14 -28 -8 -40 -37 -20 -20
-88 19 -75 16 5 23 1 31 -19 10 -27 18 -30 69 -20 27 6 46 34 22 34 -6 0 -24
15 -40 33 -26 27 -30 37 -25 67 4 19 17 49 30 67 13 17 20 34 15 37 -4 3 -35
5 -68 5 -60 -1 -60 -1 -71 -37z"/>
<path d="M8062 2301 c-2 -75 1 -91 13 -91 8 0 17 10 19 23 3 12 7 34 10 49 8
38 32 58 71 58 41 0 65 -33 65 -90 0 -48 12 -51 46 -10 15 17 39 32 60 36 25
5 34 11 34 26 0 15 -5 18 -17 14 -22 -9 -114 19 -143 44 -13 11 -37 20 -54 20
-17 0 -47 3 -66 6 l-35 6 -3 -91z"/>
<path d="M7118 2361 c-22 -22 -23 -31 -3 -31 8 0 15 6 15 13 0 7 12 18 28 24
l27 11 -25 0 c-14 1 -33 -7 -42 -17z"/>
<path d="M2345 2359 c-9 -24 -2 -94 10 -94 14 0 18 71 6 92 -9 16 -10 17 -16
2z"/>
<path d="M2617 2351 c-18 -6 -18 -7 0 -22 31 -27 49 -28 77 -4 l26 22 -31 7
c-38 7 -48 7 -72 -3z"/>
<path d="M5974 2345 c-4 -8 -14 -15 -23 -15 -9 0 -31 -15 -49 -33 -30 -31 -32
-38 -32 -104 l0 -71 46 -46 c43 -44 48 -46 102 -46 57 0 79 9 130 55 12 11 22
30 22 42 0 27 -18 31 -27 6 -3 -10 -20 -30 -37 -45 -25 -22 -41 -27 -84 -28
-47 0 -57 4 -90 35 -34 32 -37 38 -37 92 0 60 25 112 53 113 7 0 15 7 18 15 4
10 20 15 51 15 35 0 54 -7 84 -30 21 -17 41 -40 44 -51 7 -22 25 -16 25 9 -1
21 -44 72 -62 72 -7 0 -22 7 -32 15 -26 20 -95 20 -102 0z"/>
<path d="M6146 2352 c-3 -5 5 -17 19 -26 32 -21 65 -90 65 -136 0 -36 -22 -94
-41 -105 -5 -4 -9 -15 -9 -25 0 -17 2 -18 28 -4 17 9 57 14 109 14 82 0 83 0
90 28 8 34 9 109 1 187 l-6 60 -58 0 c-60 0 -79 -14 -42 -30 15 -6 25 -23 30
-45 4 -19 10 -47 14 -62 4 -18 0 -41 -10 -62 -9 -19 -16 -39 -16 -45 0 -6 -6
-11 -13 -11 -30 0 -48 119 -27 176 15 39 -6 84 -41 84 -15 0 -40 3 -57 6 -16
3 -32 2 -36 -4z m114 -57 c0 -14 -4 -25 -10 -25 -11 0 -14 33 -3 43 11 11 13
8 13 -18z"/>
<path d="M4555 2339 c56 -11 125 -11 125 1 0 6 -33 10 -82 9 -71 -1 -77 -2
-43 -10z"/>
<path d="M3235 2320 c-8 -13 12 -20 45 -18 14 1 42 1 63 0 31 -2 38 -6 35 -19
-2 -12 -13 -18 -31 -19 -15 -1 -30 -4 -34 -8 -3 -3 76 -6 177 -6 101 0 181 2
179 5 -3 2 -60 5 -127 6 -67 0 -125 5 -128 10 -13 21 20 41 65 38 25 -1 71 -1
101 1 44 2 50 4 30 10 -37 12 -368 12 -375 0z"/>
<path d="M6723 2323 c-28 -5 -30 -20 -4 -28 28 -9 71 -104 71 -158 0 -50 12
-66 36 -46 10 8 12 15 4 23 -5 5 -10 38 -10 72 0 35 -5 66 -11 69 -5 4 -9 21
-7 38 3 29 0 32 -27 33 -16 1 -40 0 -52 -3z"/>
<path d="M7077 2297 c-3 -8 -1 -20 4 -28 6 -10 9 -7 9 14 0 29 -5 35 -13 14z"/>
<path d="M3809 2240 c-1 -19 -1 -62 0 -95 1 -33 -2 -73 -7 -90 -18 -64 9 -80
88 -51 l35 13 -33 7 c-50 12 -66 45 -64 133 1 80 -15 150 -19 83z"/>
<path d="M5811 2251 c-7 -12 -16 -21 -22 -21 -6 0 -25 -11 -42 -24 -18 -14
-44 -28 -60 -31 -15 -4 -30 -11 -33 -16 -3 -5 -16 -9 -30 -9 -34 0 -32 -35 4
-57 15 -10 30 -22 35 -28 10 -14 -2 -58 -19 -68 -21 -12 -17 -44 7 -68 21 -21
23 -21 49 -5 47 27 73 21 94 -21 10 -21 22 -45 27 -53 5 -8 12 -23 15 -32 9
-26 26 -22 54 14 14 18 53 60 88 94 34 34 62 64 62 68 0 3 -20 6 -45 6 -108 0
-195 116 -165 220 12 40 -2 63 -19 31z m-61 -121 c0 -45 23 -56 35 -17 6 18 8
19 12 5 2 -9 -1 -26 -6 -37 -15 -28 -14 -51 4 -51 8 0 15 7 15 15 0 21 8 19
36 -7 27 -27 30 -38 9 -38 -8 0 -15 7 -15 15 0 8 -7 15 -15 15 -21 0 -19 -16
5 -40 24 -24 29 -25 44 -5 8 10 15 12 26 5 13 -8 11 -11 -7 -16 -13 -4 -23
-13 -23 -20 0 -8 -3 -14 -7 -14 -15 0 -113 112 -113 129 0 11 -7 21 -15 25
-16 6 -20 33 -9 60 11 29 24 16 24 -24z m180 -200 c0 -5 -11 -10 -25 -10 -14
0 -25 5 -25 10 0 6 11 10 25 10 14 0 25 -4 25 -10z"/>
<path d="M5979 2251 c-18 -14 -24 -29 -24 -59 0 -54 18 -72 70 -72 34 0 46 5
59 25 23 35 20 68 -9 99 -28 31 -64 33 -96 7z"/>
<path d="M8398 2238 c11 -22 16 -62 17 -125 1 -95 12 -126 34 -99 15 18 21
140 9 186 -12 42 -35 70 -59 70 -16 0 -16 -2 -1 -32z"/>
<path d="M2615 2243 c-77 -14 -82 -21 -31 -48 40 -22 66 -14 66 19 0 28 -7 34
-35 29z"/>
<path d="M2704 2226 c-3 -9 -3 -23 0 -31 5 -14 9 -14 31 1 14 9 24 22 22 28
-6 18 -46 19 -53 2z"/>
<path d="M4607 2210 c-57 -11 -56 -20 1 -20 40 0 52 4 52 15 0 8 -3 14 -7 14
-5 -1 -25 -5 -46 -9z"/>
<path d="M6175 2208 c-4 -10 -4 -26 0 -35 8 -17 8 -17 12 0 3 9 3 25 0 35 -4
16 -4 16 -12 0z"/>
<path d="M2612 2130 c-18 -17 -25 -18 -40 -9 -20 12 -52 7 -52 -9 0 -5 11 -15
25 -22 51 -27 60 -55 60 -187 0 -67 3 -125 7 -129 4 -3 14 -4 23 0 14 5 15 28
11 187 -3 100 -7 184 -9 185 -2 2 -13 -5 -25 -16z"/>
<path d="M3554 2139 c-4 -6 -7 -32 -8 -58 l-1 -46 53 -3 52 -3 0 60 0 61 -44
0 c-25 0 -48 -5 -52 -11z m66 -64 c0 -8 -7 -15 -15 -15 -8 0 -15 7 -15 15 0 8
7 15 15 15 8 0 15 -7 15 -15z"/>
<path d="M4355 2140 c-64 -6 -66 -7 -20 -8 28 -1 94 -5 148 -9 86 -5 97 -4 97
10 0 15 -11 17 -77 15 -43 -1 -109 -4 -148 -8z"/>
<path d="M3298 2133 c-22 -5 -23 -19 -4 -26 8 -3 16 -18 18 -33 2 -15 9 -29
16 -32 8 -2 12 11 12 47 0 52 -3 55 -42 44z"/>
<path d="M3413 2090 l2 -50 38 0 37 0 0 50 0 50 -39 0 -39 0 1 -50z"/>
<path d="M3702 2088 c4 -74 28 -77 28 -4 0 44 -3 56 -16 56 -12 0 -14 -10 -12
-52z"/>
<path d="M4268 2079 c-24 -13 -23 -56 1 -69 11 -5 42 -10 70 -10 41 0 52 4 62
21 8 16 8 28 0 45 -9 21 -17 24 -63 24 -29 0 -61 -5 -70 -11z"/>
<path d="M6473 2040 c-18 -11 -33 -27 -33 -35 0 -8 -12 -34 -26 -58 -83 -134
-229 -217 -380 -217 -50 0 -75 5 -100 20 -31 20 -35 20 -70 5 -44 -18 -47 -19
-41 -2 4 10 -4 12 -31 8 -31 -5 -38 -11 -40 -33 -2 -20 3 -30 25 -42 56 -30
76 -36 143 -42 65 -6 69 -8 72 -33 3 -22 8 -26 38 -26 31 0 35 3 38 27 3 21
10 29 30 34 15 3 40 10 55 16 31 12 47 1 47 -34 0 -22 33 -24 50 -4 6 8 10 27
8 41 -2 22 4 30 44 53 41 23 49 25 71 13 44 -24 89 18 52 49 -21 18 -19 24 23
66 28 28 45 38 72 38 30 1 35 5 38 29 2 19 -1 27 -12 27 -21 0 -21 43 0 75 30
46 -14 61 -73 25z"/>
<path d="M1230 2037 c0 -52 17 -82 92 -157 43 -44 87 -80 96 -80 21 0 42 -19
42 -36 0 -7 -21 -24 -47 -37 -85 -42 -112 -63 -143 -105 -16 -23 -52 -58 -80
-79 -57 -43 -63 -72 -17 -84 21 -6 32 -3 47 14 11 11 20 24 20 28 0 4 39 47
86 95 85 86 88 87 133 86 25 -1 68 1 94 4 l49 6 -36 37 c-43 44 -45 52 -8 45
29 -6 73 18 59 33 -5 4 -42 9 -83 11 -74 4 -75 5 -117 50 -23 25 -61 64 -85
86 -23 22 -48 51 -55 65 -13 28 -47 41 -47 18z"/>
<path d="M5334 2016 c-4 -10 -18 -16 -35 -16 -19 0 -29 -5 -29 -15 0 -8 -7
-15 -15 -15 -9 0 -18 -7 -21 -15 -4 -8 -14 -15 -24 -15 -10 0 -23 -7 -30 -15
-7 -8 -18 -15 -25 -15 -6 0 -22 -9 -35 -20 -13 -11 -27 -20 -32 -20 -4 0 -8
-4 -8 -10 0 -15 16 -12 34 5 8 8 19 15 24 15 24 0 103 43 120 65 11 14 25 25
31 25 19 0 80 35 78 44 -5 17 -27 18 -33 2z"/>
<path d="M6865 2019 c-2 -3 0 -47 5 -98 5 -51 6 -107 3 -125 -3 -20 -1 -36 6
-40 6 -4 11 -4 11 1 2 138 9 185 32 215 41 55 41 56 -8 54 -25 0 -47 -4 -49
-7z"/>
<path d="M6273 2013 c-7 -2 -13 -9 -13 -14 0 -16 -43 -69 -56 -69 -6 0 -17 -7
-24 -15 -7 -8 -25 -15 -41 -15 -16 0 -29 -5 -29 -11 0 -8 -17 -10 -50 -7 -47
5 -53 3 -95 -34 -25 -22 -45 -44 -45 -50 0 -16 191 1 211 18 8 8 23 14 32 14
42 0 186 114 218 173 9 15 4 17 -43 16 -29 0 -59 -3 -65 -6z"/>
<path d="M2502 1985 c-15 -33 -15 -32 8 -45 18 -10 20 -8 20 30 0 46 -11 52
-28 15z"/>
<path d="M2707 1994 c-11 -11 -8 -54 3 -54 6 0 13 6 16 14 7 17 -9 50 -19 40z"/>
<path d="M6070 1959 c-23 -23 -38 -45 -33 -49 13 -13 73 1 73 16 0 8 10 14 24
14 13 0 29 7 36 15 7 8 19 15 26 15 8 0 14 4 14 9 0 17 -19 22 -39 11 -13 -7
-22 -7 -26 0 -12 19 -34 10 -75 -31z"/>
<path d="M3707 1983 c-4 -3 -7 -26 -7 -50 l0 -43 37 0 c37 0 37 0 15 16 -15
11 -22 25 -22 50 0 32 -8 42 -23 27z"/>
<path d="M3420 1935 c0 -45 0 -45 35 -45 35 0 35 0 35 45 0 45 0 45 -35 45
-35 0 -35 0 -35 -45z"/>
<path d="M3615 1970 c-4 -6 -14 -9 -23 -8 -11 2 -18 -7 -23 -29 -8 -39 -5 -43
38 -43 33 0 33 1 33 45 0 42 -11 58 -25 35z"/>
<path d="M1492 1958 c3 -9 26 -13 71 -13 92 0 91 19 -1 23 -57 2 -73 0 -70
-10z"/>
<path d="M8784 1954 c-22 -8 -46 -14 -55 -14 -9 0 -32 -16 -52 -35 -20 -19
-44 -35 -53 -35 -16 0 -71 23 -147 62 -20 11 -47 18 -59 16 -21 -3 -22 -8 -21
-108 1 -95 3 -106 23 -122 12 -10 35 -18 51 -18 15 0 44 -8 64 -17 28 -13 35
-23 35 -45 0 -60 68 -149 144 -187 69 -36 216 -40 216 -6 0 12 -64 36 -124 47
-21 3 -44 70 -53 149 -5 44 -3 48 44 94 74 73 82 76 125 61 21 -7 41 -15 44
-19 4 -4 13 -7 21 -7 10 0 13 18 13 70 0 62 -2 70 -19 70 -10 0 -21 6 -24 14
-3 7 -18 16 -34 19 -15 3 -44 10 -64 15 -26 7 -47 6 -75 -4z m9 -113 c7 -28 5
-39 -11 -60 -17 -23 -25 -26 -68 -23 -27 2 -53 8 -59 12 -5 4 -25 11 -42 15
-18 3 -35 11 -39 16 -3 5 -21 16 -40 24 -45 19 -46 41 -1 29 56 -15 152 -10
178 9 39 27 71 18 82 -22z"/>
<path d="M7548 1895 c-4 -81 0 -96 35 -133 19 -20 63 -67 97 -104 35 -37 70
-70 79 -73 14 -4 29 -24 69 -93 10 -17 11 -31 4 -52 -9 -23 -7 -31 9 -46 17
-16 22 -16 29 -4 6 8 10 31 10 51 0 20 3 57 6 82 6 44 6 46 -29 64 -19 10 -92
72 -161 138 -107 101 -126 124 -126 150 0 16 -5 37 -10 45 -7 11 -10 5 -12
-25z"/>
<path d="M5355 1890 c3 -5 15 -10 26 -10 10 0 19 5 19 10 0 6 -12 10 -26 10
-14 0 -23 -4 -19 -10z"/>
<path d="M5420 1874 c0 -4 20 -24 45 -46 25 -22 45 -46 45 -54 0 -8 5 -14 10
-14 6 0 16 -11 22 -25 13 -29 23 -32 32 -9 4 11 -1 18 -14 21 -11 3 -20 10
-20 17 0 10 -37 52 -88 99 -19 17 -32 22 -32 11z"/>
<path d="M2500 1855 c-10 -12 -10 -18 0 -30 19 -23 30 -18 30 15 0 33 -11 38
-30 15z"/>
<path d="M2700 1846 c0 -17 5 -26 16 -26 10 0 14 7 12 22 -5 32 -28 35 -28 4z"/>
<path d="M2346 1853 c-9 -9 -7 -76 3 -91 15 -24 33 12 25 52 -6 37 -16 50 -28
39z"/>
<path d="M5029 1821 c-21 -24 -31 -51 -18 -51 6 0 13 9 16 19 3 11 11 22 19
25 14 6 20 27 7 25 -5 0 -15 -9 -24 -18z"/>
<path d="M5185 1799 c-71 -37 -84 -49 -106 -91 -30 -60 -29 -149 2 -203 25
-43 57 -74 75 -75 6 0 17 -7 24 -15 16 -19 152 -21 172 -2 7 6 29 23 50 37 40
27 78 100 78 152 0 41 -28 117 -53 145 -29 33 -119 73 -163 73 -22 0 -57 -9
-79 -21z m189 -110 c14 -11 26 -24 26 -29 0 -19 -45 -32 -114 -35 -95 -3 -156
11 -156 37 0 29 54 47 141 48 62 0 81 -4 103 -21z m-10 -103 c47 -19 46 -43
-1 -63 -72 -31 -227 -8 -241 35 -2 7 15 20 40 31 51 22 146 20 202 -3z"/>
<path d="M4978 1748 c-7 -18 2 -39 13 -32 12 7 12 44 0 44 -5 0 -11 -6 -13
-12z"/>
<path d="M2245 1741 c-18 -8 -18 -10 -3 -16 22 -9 63 -3 63 10 0 13 -35 16
-60 6z"/>
<path d="M2085 1730 c3 -5 17 -10 30 -10 13 0 27 5 30 10 4 6 -8 10 -30 10
-22 0 -34 -4 -30 -10z"/>
<path d="M6877 1704 c-4 -4 -7 -18 -7 -30 0 -13 -9 -28 -20 -34 -23 -12 -26
-53 -8 -97 11 -27 12 -26 22 32 7 33 18 72 26 88 13 26 3 57 -13 41z"/>
<path d="M2338 1638 l-3 -63 -45 3 c-25 2 -61 -4 -82 -13 l-38 -15 0 -150 c0
-127 2 -150 16 -158 15 -8 15 -10 0 -15 -13 -5 -16 -21 -16 -74 0 -125 37
-127 42 -3 l3 75 66 -3 67 -4 12 37 c8 23 10 53 5 79 -8 44 -8 59 0 150 3 37
0 65 -7 74 -9 10 -9 15 1 21 16 10 11 113 -6 118 -8 3 -13 -15 -15 -59z m-3
-238 l0 -154 -60 0 -60 -1 -2 156 -3 156 63 -1 62 -2 0 -154z"/>
<path d="M2235 1410 c-3 -5 0 -13 9 -16 21 -8 61 -1 61 11 0 14 -62 19 -70 5z"/>
<path d="M5582 1605 c3 -64 1 -85 -9 -89 -7 -3 -18 -18 -25 -33 -23 -54 -83
-124 -120 -140 -21 -9 -38 -20 -38 -25 0 -14 40 -8 46 7 4 8 11 15 18 15 10 0
86 64 86 73 0 2 18 23 40 47 38 41 52 80 30 80 -6 0 -10 32 -10 75 0 49 -4 75
-11 75 -8 0 -10 -26 -7 -85z"/>
<path d="M4951 1605 l1 -70 9 60 c6 38 5 63 -1 69 -7 7 -10 -14 -9 -59z"/>
<path d="M8354 1619 c-17 -18 -19 -34 -15 -118 1 -53 5 -98 7 -100 1 -2 14 -1
28 3 22 5 24 10 19 45 -3 22 -1 54 5 71 14 37 4 120 -13 120 -6 0 -20 -9 -31
-21z"/>
<path d="M2766 1602 c-30 -58 -19 -119 30 -172 15 -17 23 -36 21 -55 l-2 -30
352 -5 c193 -3 355 -8 359 -12 4 -5 1 -20 -7 -35 -7 -16 -15 -31 -17 -35 -2
-4 9 -1 25 7 15 8 38 15 50 15 37 0 55 11 42 26 -8 10 -3 20 23 43 46 42 65
47 92 22 14 -13 35 -21 59 -21 26 0 37 -4 37 -15 0 -17 -14 -19 -40 -5 -22 12
-93 -17 -87 -34 4 -11 409 -21 436 -11 10 4 7 11 -13 30 -29 27 -31 36 -14 53
22 22 62 13 87 -20 23 -29 24 -31 6 -41 -19 -10 -19 -11 0 -18 11 -4 35 -8 54
-8 21 -1 47 -12 72 -32 21 -17 39 -29 39 -27 0 2 -11 28 -25 56 -14 29 -25 56
-25 61 0 19 259 24 292 5 28 -17 184 -169 191 -186 3 -10 13 -18 21 -18 9 0
18 -11 22 -25 3 -14 24 -39 45 -56 32 -25 50 -32 97 -34 31 -1 62 -3 69 -4 6
0 30 -16 52 -35 34 -29 52 -36 107 -41 68 -8 87 -3 135 35 l25 21 47 -20 c53
-23 59 -22 131 26 57 37 53 34 97 86 17 20 36 37 43 37 15 0 141 119 155 147
6 12 11 54 11 93 0 65 2 74 26 92 19 16 24 28 22 52 -4 36 -22 38 -26 2 -2
-13 -15 -32 -29 -41 -24 -16 -28 -16 -60 -1 -38 18 -44 13 -47 -46 -1 -28 4
-35 37 -50 45 -22 48 -48 10 -88 -15 -16 -34 -44 -43 -62 -19 -41 -47 -46 -82
-13 -33 30 -59 32 -83 5 -16 -18 -16 -20 4 -53 36 -59 26 -87 -34 -101 -16 -4
-37 -14 -47 -22 -9 -9 -30 -14 -50 -12 -27 2 -34 7 -36 30 -4 35 -24 50 -59
46 -26 -3 -28 -7 -31 -50 -4 -55 -31 -84 -63 -68 -10 6 -40 10 -68 10 -27 0
-56 3 -65 6 -18 7 -22 54 -5 71 16 16 -5 50 -35 55 -26 5 -44 -8 -65 -49 -15
-29 -50 -30 -82 -2 -13 12 -40 29 -60 40 -52 26 -54 43 -13 83 l36 35 -22 31
c-12 16 -24 30 -28 30 -4 0 -26 -10 -49 -22 -41 -22 -42 -22 -62 -4 -12 11
-21 29 -21 40 0 12 -6 31 -14 42 -8 11 -16 31 -18 44 l-3 25 -925 2 -925 2
-15 22 c-8 12 -17 53 -21 91 -8 84 -21 103 -43 60z m1279 -245 c22 -17 12 -37
-19 -37 -34 0 -53 25 -29 39 23 14 26 13 48 -2z m-115 -7 c13 -9 13 -11 0 -20
-8 -5 -25 -10 -36 -10 -23 0 -48 23 -37 33 10 10 56 8 73 -3z"/>
<path d="M6382 1593 c-4 -10 -7 -138 -7 -284 0 -211 3 -269 14 -282 20 -25
292 -25 312 0 11 12 15 71 17 257 1 133 0 260 -3 284 l-6 42 -160 0 c-143 0
-160 -2 -167 -17z m293 -273 l0 -225 -130 0 -130 0 -3 228 -2 228 132 -3 133
-3 0 -225z m-117 -263 c2 -12 -3 -17 -17 -17 -12 0 -21 6 -21 13 0 31 32 34
38 4z"/>
<path d="M6452 1448 c2 -35 6 -62 11 -60 4 1 45 2 92 2 l85 0 0 59 0 59 -95 1
-96 1 3 -62z"/>
<path d="M6454 1181 c-2 -2 -4 -13 -4 -23 0 -16 10 -18 94 -18 91 0 121 9 99
31 -9 9 -181 18 -189 10z"/>
<path d="M1035 1530 c-11 -5 -248 -9 -527 -9 l-508 -1 0 -36 c0 -31 2 -35 15
-24 10 9 127 11 472 10 252 -2 467 -4 478 -7 16 -3 23 -19 36 -84 19 -96 15
-104 -63 -112 -29 -4 -252 -8 -495 -9 -408 -3 -443 -4 -443 -20 0 -16 33 -17
427 -18 420 -1 503 -4 503 -21 0 -20 -58 -67 -100 -83 -38 -13 -92 -16 -335
-16 -160 1 -299 1 -310 1 -11 0 -51 -3 -88 -7 -60 -6 -69 -5 -82 12 -13 17
-14 14 -15 -38 l0 -58 520 -1 c286 -1 526 -2 533 -3 9 -1 13 58 15 258 1 143
-1 263 -5 267 -5 4 -17 3 -28 -1z m-55 -404 c20 -25 8 -61 -21 -64 -31 -4 -53
20 -44 47 5 17 17 24 46 30 4 0 12 -6 19 -13z"/>
<path d="M4977 1503 c-11 -10 -8 -73 3 -73 6 0 10 18 10 40 0 41 -2 45 -13 33z"/>
<path d="M5000 1417 c0 -16 62 -77 78 -77 18 0 15 6 -26 50 -41 42 -52 48 -52
27z"/>
<path d="M5100 1324 c0 -8 11 -14 25 -14 14 0 25 4 25 9 0 5 -11 11 -25 13
-17 4 -25 1 -25 -8z"/>
<path d="M7828 1201 c2 -75 6 -138 8 -140 11 -12 17 17 26 106 5 54 14 102 19
108 6 6 22 3 44 -10 27 -14 38 -16 47 -7 7 7 27 12 44 12 18 0 44 4 58 9 31
12 41 1 55 -58 5 -23 11 -45 14 -47 2 -2 17 16 32 41 31 48 60 58 89 29 15
-14 19 -13 45 5 16 12 31 21 34 21 3 0 7 -19 10 -42 17 -130 35 -195 50 -177
3 2 7 68 10 147 l6 143 -298 -2 -297 -3 4 -135z"/>
<path d="M5160 1290 c0 -6 42 -10 105 -10 63 0 105 4 105 10 0 6 -42 10 -105
10 -63 0 -105 -4 -105 -10z"/>
<path d="M2813 1238 c-5 -10 -26 -9 240 -9 125 0 226 4 225 8 -4 9 -459 10
-465 1z"/>
<path d="M1863 1228 c-20 -10 -23 -19 -23 -69 0 -66 7 -89 26 -89 10 0 14 21
16 77 l3 78 35 -3 c19 -2 46 1 60 7 21 8 15 10 -35 10 -33 0 -70 -5 -82 -11z"/>
<path d="M2346 1178 c-5 -16 -5 -40 0 -55 l8 -28 4 28 c2 15 2 39 0 55 l-4 27
-8 -27z"/>
<path d="M3585 1183 c-51 -6 -60 -15 -37 -37 17 -15 55 -17 381 -18 357 -1
363 -1 384 20 11 12 17 25 13 29 -8 8 -674 14 -741 6z"/>
<path d="M1164 1105 c-11 -28 4 -45 41 -45 20 0 48 -9 63 -20 27 -19 42 -20
318 -20 32 0 63 24 50 38 -4 4 -82 8 -174 10 -157 3 -167 5 -197 28 -36 27
-92 32 -101 9z"/>
<path d="M2633 1113 c10 -9 407 -10 407 0 0 4 -93 7 -207 7 -113 0 -203 -3
-200 -7z"/>
<path d="M3777 997 c-9 -23 -1 -25 66 -20 77 7 99 23 32 23 -28 0 -60 3 -71 6
-14 4 -23 0 -27 -9z"/>
<path d="M7808 988 c-10 -18 -12 -117 -10 -505 l2 -483 34 0 34 0 2 353 c2
535 2 532 23 555 11 12 38 23 67 27 26 4 64 12 85 19 l37 13 -28 7 c-16 4 -63
12 -104 17 -41 4 -87 11 -102 15 -21 5 -29 1 -40 -18z"/>
<path d="M8325 999 c-27 -5 -84 -7 -126 -3 -89 7 -91 4 -78 -86 4 -30 8 -247
8 -482 1 -352 3 -428 14 -428 20 0 27 147 27 546 l0 333 26 20 c41 32 84 27
123 -13 l33 -34 -3 -99 c-1 -54 -2 -245 -1 -425 l2 -328 45 0 45 0 0 493 c0
370 -3 496 -12 505 -13 13 -31 14 -103 1z"/>
<path d="M3120 990 c0 -5 11 -10 24 -10 14 0 28 5 31 10 4 6 -7 10 -24 10 -17
0 -31 -4 -31 -10z"/>
<path d="M3260 990 c0 -7 66 -10 190 -9 105 0 190 5 190 10 0 5 -84 9 -190 9
-123 0 -190 -4 -190 -10z"/>
<path d="M3980 990 c0 -5 14 -10 30 -10 17 0 30 5 30 10 0 6 -13 10 -30 10
-16 0 -30 -4 -30 -10z"/>
<path d="M4072 991 c-10 -6 -7 -10 13 -15 28 -7 49 0 40 15 -8 11 -36 12 -53
0z"/>
<path d="M2820 860 c0 -19 3 -21 28 -15 15 4 63 10 107 14 l80 8 -70 1 c-38 1
-87 5 -107 8 -35 6 -38 5 -38 -16z"/>
<path d="M3210 871 c-32 -5 -39 -8 -25 -12 33 -11 98 -5 102 9 5 13 -3 13 -77
3z"/>
<path d="M3552 741 c-11 -7 -10 -10 3 -15 29 -11 55 -7 55 9 0 16 -36 20 -58
6z"/>
<path d="M3780 736 c0 -12 10 -16 39 -16 22 0 43 5 46 10 3 6 0 10 -8 10 -8 0
-29 3 -46 6 -24 5 -31 3 -31 -10z"/>
<path d="M4475 741 c-53 -4 -84 -10 -74 -14 22 -11 209 -4 209 8 1 12 -21 13
-135 6z"/>
<path d="M4817 744 c-11 -11 3 -24 24 -24 12 0 19 5 17 13 -5 14 -31 21 -41
11z"/>
<path d="M4929 739 c-21 -12 22 -17 179 -18 119 -1 152 2 152 12 0 10 -35 13
-160 13 -88 0 -165 -3 -171 -7z"/>
<path d="M5370 733 c0 -11 22 -13 98 -11 125 4 121 23 -5 23 -71 1 -93 -2 -93
-12z"/>
<path d="M3120 730 c0 -5 11 -10 24 -10 14 0 28 5 31 10 4 6 -7 10 -24 10 -17
0 -31 -4 -31 -10z"/>
<path d="M3380 730 c0 -13 50 -13 70 0 11 7 4 10 -27 10 -24 0 -43 -4 -43 -10z"/>
<path d="M4195 730 c3 -5 24 -10 45 -10 21 0 42 5 45 10 4 6 -13 10 -45 10
-32 0 -49 -4 -45 -10z"/>
<path d="M4305 730 c3 -5 12 -10 20 -10 8 0 17 5 20 10 4 6 -5 10 -20 10 -15
0 -24 -4 -20 -10z"/>
<path d="M2966 623 c-4 -4 -38 -6 -77 -5 -41 2 -69 -1 -69 -7 0 -11 151 -20
165 -9 5 5 5 12 -1 18 -6 6 -14 7 -18 3z"/>
<path d="M3570 610 c-11 -7 -6 -10 20 -10 26 0 31 3 20 10 -8 5 -17 10 -20 10
-3 0 -12 -5 -20 -10z"/>
<path d="M3780 610 c0 -5 7 -10 15 -10 8 0 15 5 15 10 0 6 -7 10 -15 10 -8 0
-15 -4 -15 -10z"/>
<path d="M4556 611 c-7 -10 22 -19 47 -13 9 2 17 8 17 13 0 12 -57 12 -64 0z"/>
<path d="M4 495 c0 -66 1 -92 3 -57 2 34 2 88 0 120 -2 31 -3 3 -3 -63z"/>
<path d="M2485 492 c-2 -3 -3 -8 -1 -11 5 -8 216 -4 216 4 0 8 -208 14 -215 7z"/>
<path d="M2814 488 c-2 -4 -1 -8 3 -10 9 -4 1400 6 1393 10 -12 6 -1392 6
-1396 0z"/>
<path d="M4314 488 c-7 -10 -7 -10 118 -12 66 -1 108 3 108 9 0 12 -219 15
-226 3z"/>
<path d="M4803 488 c-6 -10 -20 -10 234 -11 143 -1 223 2 223 8 0 12 -449 14
-457 3z"/>
<path d="M2485 371 c-10 -17 19 -23 56 -13 32 9 32 10 7 11 -14 1 -33 4 -41 7
-8 3 -18 1 -22 -5z"/>
<path d="M3021 371 c-10 -7 -10 -10 -1 -16 6 -4 16 -3 22 3 13 13 -4 23 -21
13z"/>
<path d="M5961 371 c-10 -6 -10 -10 -1 -16 13 -8 24 -1 19 14 -3 6 -10 7 -18
2z"/>
<path d="M6222 373 c-19 -7 -4 -23 23 -23 29 0 41 16 19 24 -18 7 -23 7 -42
-1z"/>
<path d="M6820 370 c-12 -8 -12 -10 3 -16 22 -8 50 3 42 16 -8 12 -25 13 -45
0z"/>
<path d="M2643 363 c9 -2 25 -2 35 0 9 3 1 5 -18 5 -19 0 -27 -2 -17 -5z"/>
<path d="M2733 363 c9 -2 25 -2 35 0 9 3 1 5 -18 5 -19 0 -27 -2 -17 -5z"/>
<path d="M3210 360 c0 -8 129 -3 139 6 2 2 -28 4 -67 4 -40 0 -72 -4 -72 -10z"/>
<path d="M3453 363 c9 -2 25 -2 35 0 9 3 1 5 -18 5 -19 0 -27 -2 -17 -5z"/>
<path d="M3723 363 c26 -2 68 -2 95 0 26 2 4 3 -48 3 -52 0 -74 -1 -47 -3z"/>
<path d="M4173 363 c9 -2 25 -2 35 0 9 3 1 5 -18 5 -19 0 -27 -2 -17 -5z"/>
<path d="M4530 360 c25 -4 52 -4 60 1 9 5 -8 8 -45 7 l-60 -1 45 -7z"/>
<path d="M4663 359 c14 -8 22 -8 30 0 8 8 3 11 -18 11 -26 -1 -28 -2 -12 -11z"/>
<path d="M4903 364 c7 -8 478 -6 486 1 2 3 -107 5 -244 5 -137 0 -245 -3 -242
-6z"/>
<path d="M5763 363 c9 -2 25 -2 35 0 9 3 1 5 -18 5 -19 0 -27 -2 -17 -5z"/>
<path d="M5889 359 c16 -6 28 -6 35 1 7 7 -1 10 -24 9 -33 0 -34 -1 -11 -10z"/>
<path d="M6513 363 c9 -2 25 -2 35 0 9 3 1 5 -18 5 -19 0 -27 -2 -17 -5z"/>
<path d="M6387 253 c-8 -13 9 -37 21 -29 6 3 78 7 161 7 83 1 153 5 157 10 3
5 -60 9 -150 9 -85 0 -161 3 -169 6 -8 3 -17 1 -20 -3z"/>
<path d="M6957 252 c-72 -2 -97 -6 -94 -15 2 -7 9 -12 15 -11 7 1 57 2 112 3
55 0 100 5 100 10 0 14 -27 16 -133 13z"/>
<path d="M2490 235 c0 -11 8 -13 33 -8 50 9 56 23 9 23 -30 0 -42 -4 -42 -15z"/>
<path d="M2995 240 c4 -6 53 -10 115 -10 62 0 111 4 115 10 4 6 -37 10 -115
10 -78 0 -119 -4 -115 -10z"/>
<path d="M3625 240 c3 -5 22 -10 41 -10 19 0 34 5 34 10 0 6 -18 10 -41 10
-24 0 -38 -4 -34 -10z"/>
<path d="M3855 240 c3 -5 30 -10 60 -10 30 0 57 5 60 10 4 6 -18 10 -60 10
-42 0 -64 -4 -60 -10z"/>
<path d="M4675 241 c7 -12 253 -12 261 0 3 5 -53 9 -131 9 -80 0 -134 -4 -130
-9z"/>
<path d="M4970 240 c0 -5 20 -10 45 -10 25 0 45 5 45 10 0 6 -20 10 -45 10
-25 0 -45 -4 -45 -10z"/>
<path d="M5170 240 c0 -6 132 -10 375 -10 243 0 375 4 375 10 0 6 -132 10
-375 10 -243 0 -375 -4 -375 -10z"/>
<path d="M6002 239 c5 -15 206 -15 221 0 8 8 -19 11 -107 11 -80 0 -117 -3
-114 -11z"/>
<path d="M3420 115 c0 -9 5 -15 11 -13 6 2 11 8 11 13 0 5 -5 11 -11 13 -6 2
-11 -4 -11 -13z"/>
</g>
</svg>
