<?xml version="1.0" standalone="no"?>
<!DOCTYPE svg PUBLIC "-//W3C//DTD SVG 20010904//EN"
 "http://www.w3.org/TR/2001/REC-SVG-20010904/DTD/svg10.dtd">
<svg version="1.0" xmlns="http://www.w3.org/2000/svg"
 width="900.000000pt" height="663.000000pt" viewBox="0 0 900.000000 663.000000"
 preserveAspectRatio="xMidYMid meet">
<metadata>
Created by potrace 1.10, written by Peter Selinger 2001-2011
</metadata>
<g transform="translate(0.000000,663.000000) scale(0.100000,-0.100000)"
fill="#000000" stroke="none">
<path d="M941 5998 c-54 -25 -123 -92 -152 -150 l-22 -43 1 -1656 c1 -1629 2
-1656 21 -1700 25 -56 90 -121 150 -151 l46 -23 943 0 942 0 -2 -415 -3 -414
-30 -7 c-55 -13 -130 -30 -180 -40 -116 -25 -189 -80 -209 -161 -8 -33 -21
-36 -36 -7 -22 41 -65 48 -236 43 -87 -3 -197 -10 -244 -16 -47 -6 -116 -12
-155 -13 -62 -3 -70 -5 -73 -24 -2 -15 4 -22 22 -27 14 -3 33 -4 41 0 14 5 38
-2 91 -26 15 -7 28 -6 42 1 14 7 36 8 74 1 29 -6 144 -11 254 -13 190 -2 203
-1 224 18 21 19 35 20 209 19 102 -1 260 -9 351 -19 192 -20 734 -24 840 -6
107 17 419 33 515 26 61 -5 96 -12 109 -24 15 -13 42 -16 155 -16 256 0 501
21 524 44 6 6 7 17 3 26 -4 13 -13 15 -32 11 -14 -4 -32 -2 -39 4 -27 23 -413
47 -510 32 -43 -6 -53 -12 -75 -45 -13 -21 -25 -35 -27 -30 -1 4 -7 27 -13 51
-17 67 -60 108 -138 131 -145 42 -180 51 -208 51 -68 0 -65 -18 -65 434 l0
408 676 0 677 0 -2 -552 c-1 -544 0 -553 21 -596 11 -24 41 -61 67 -82 l45
-37 870 -2 c478 -1 872 -5 875 -8 3 -3 5 -81 3 -174 -3 -167 -2 -168 21 -187
23 -18 47 -19 438 -18 l413 1 19 22 c17 22 18 57 18 701 0 373 -3 686 -6 695
-4 8 -20 23 -37 31 -25 13 -60 16 -203 13 -95 -2 -175 -1 -179 2 -3 4 -6 443
-5 975 l0 969 -26 53 c-30 61 -81 103 -148 122 -34 9 -205 11 -743 9 l-698 -4
0 805 0 805 -22 40 c-29 54 -99 120 -153 144 -45 20 -53 21 -2515 20 -2449 -1
-2470 -1 -2514 -21z m4941 -117 c56 -24 95 -64 108 -110 6 -22 10 -330 10
-780 0 -409 2 -747 5 -751 3 -5 2 -15 -1 -24 -5 -14 -29 -16 -198 -12 -257 5
-295 -5 -361 -91 l-33 -43 -2084 1 c-1145 1 -2107 3 -2137 3 l-53 1 0 -254
c-1 -224 1 -256 15 -260 18 -7 4178 3 4217 10 l25 4 2 -440 c1 -242 4 -475 6
-517 4 -55 2 -78 -6 -78 -7 0 -990 0 -2185 0 l-2173 0 -38 24 c-21 14 -48 40
-60 59 l-21 34 0 1560 0 1560 30 41 c16 23 40 47 52 54 19 11 478 14 2428 18
1323 3 2406 6 2407 8 1 1 21 -6 45 -17z m1708 -1838 l25 -28 0 -970 0 -970
-73 -3 c-40 -2 -79 1 -88 6 -22 12 -134 -13 -157 -37 -21 -21 -22 -32 -15
-156 3 -44 3 -84 1 -90 -2 -7 -274 -9 -798 -7 l-795 3 0 -182 0 -182 63 7 c75
7 1517 9 1525 2 11 -11 10 -155 -1 -163 -7 -4 -391 -6 -855 -3 l-843 5 -19 25
c-19 24 -20 59 -20 1368 0 942 3 1349 11 1363 23 44 19 44 1040 42 l974 -2 25
-28z m-2190 -64 c15 -56 9 -344 -7 -360 -10 -10 -21 -8 -52 9 -36 20 -58 23
-233 29 -106 3 -870 5 -1698 4 -828 -2 -1523 -2 -1545 0 -33 2 -224 2 -375 0
-189 -3 -214 2 -232 46 -7 16 -10 70 -9 128 3 142 -1 139 193 139 84 0 162 -1
173 -3 17 -3 46 -3 155 -1 8 0 800 2 1760 3 l1745 3 45 21 c63 30 68 28 80
-18z m28 -1511 c15 -15 16 -124 0 -134 -18 -11 -38 26 -38 72 0 67 13 87 38
62z m-1701 -50 c21 -19 26 -20 60 -9 44 14 239 9 254 -6 7 -7 0 -22 -22 -47
-24 -28 -29 -40 -20 -49 18 -18 14 -23 -34 -51 -49 -29 -49 -29 -35 -56 11
-21 15 -674 5 -702 -5 -13 0 -20 21 -28 48 -17 58 -25 81 -66 47 -81 48 -85
33 -94 -47 -29 -1157 -34 -1232 -5 -24 10 -23 32 3 46 11 6 30 30 40 54 16 36
27 46 62 58 27 9 41 19 38 28 -5 17 -2 606 3 664 2 22 7 47 10 56 5 12 -5 23
-38 43 -46 27 -55 39 -36 51 19 11 10 45 -13 54 -32 13 -51 37 -36 47 22 13
196 17 245 5 43 -11 49 -10 68 8 20 20 32 21 270 21 242 0 250 -1 273 -22z
m4151 -397 c2 -1 0 -5 -3 -11 -8 -12 -272 -14 -279 -1 -12 19 16 23 144 18 74
-3 136 -6 138 -6z m222 -66 c18 -22 17 -1175 -2 -1186 -22 -14 -712 -11 -726
3 -16 16 -17 1149 -2 1179 10 18 25 19 364 19 298 0 355 -2 366 -15z m-824
-280 c7 -53 -4 -175 -16 -175 -5 0 -31 9 -58 19 -45 18 -77 19 -453 19 -222 0
-497 0 -611 1 -114 2 -212 0 -218 -4 -11 -7 -88 13 -107 28 -15 11 -17 71 -3
96 5 11 26 21 50 25 48 7 1256 10 1268 2 5 -3 31 3 58 13 76 29 82 28 90 -24z
m-639 -497 c30 -28 29 -63 -2 -93 -57 -58 -161 2 -124 71 25 47 88 58 126 22z
m1138 -472 c19 -14 19 -14 0 -36 -22 -24 -53 -23 -69 3 -9 15 -7 21 8 33 25
18 37 18 61 0z"/>
<path d="M1139 5622 c0 -8 0 -504 1 -512 0 -7 1280 -7 1280 0 1 3 1 120 2 260
l0 255 -641 2 c-352 2 -641 -1 -642 -5z m1107 -107 c23 -3 47 -11 52 -18 6 -7
13 -60 16 -119 6 -103 5 -108 -18 -135 l-24 -28 -216 -3 c-136 -2 -223 1 -235
8 -13 7 -28 7 -45 0 -24 -9 -67 -11 -166 -7 -19 0 -71 0 -115 -1 -210 -4 -210
-4 -230 18 -15 17 -18 37 -18 129 0 101 2 111 24 134 16 18 37 27 64 29 73 6
868 0 911 -7z"/>
<path d="M2803 5623 c-10 -4 -7 -498 2 -513 4 -6 19 -9 33 -5 33 7 318 8 1776
6 626 -1 1141 1 1144 3 3 3 5 118 5 256 l0 251 -1477 2 c-812 1 -1479 1 -1483
0z m2817 -86 c55 -3 58 -9 59 -178 1 -94 -3 -130 -13 -145 -14 -18 -30 -19
-333 -21 -622 -4 -737 -4 -1554 -3 l-827 0 -33 23 c-41 28 -46 48 -42 169 4
130 10 143 69 154 40 8 2536 9 2674 1z"/>
<path d="M1148 4849 c-10 -6 -15 -495 -5 -505 10 -10 1277 -9 1277 1 3 67 -1
499 -3 502 -7 6 -1258 8 -1269 2z m1145 -98 c18 -14 40 -81 36 -109 -2 -9 1
-28 5 -41 14 -40 -3 -131 -28 -156 -22 -22 -30 -23 -222 -25 -109 -1 -336 -2
-504 -1 l-305 0 -22 28 c-20 25 -23 39 -22 118 0 111 9 166 29 175 44 22 112
25 545 25 384 0 475 -3 488 -14z"/>
<path d="M2828 4849 c-12 -8 -17 -509 -5 -509 4 0 292 -1 640 -1 l632 0 0 256
0 256 -628 2 c-346 1 -634 -1 -639 -4z m1135 -97 c15 -7 27 -19 27 -30 0 -10
3 -22 6 -25 6 -6 17 -112 16 -167 0 -42 -20 -78 -51 -94 -20 -11 -62 -16 -142
-17 -224 -2 -425 -2 -484 -1 -33 1 -122 1 -197 1 -148 -1 -201 10 -219 43 -6
12 -10 69 -10 137 2 129 12 157 58 163 16 2 240 3 498 3 337 -1 478 -4 498
-13z"/>
<path d="M4502 4853 c-4 -2 -7 -118 -7 -259 l1 -256 634 1 c349 0 638 1 642 1
7 0 7 510 -1 510 -92 2 -1263 4 -1269 3z m1145 -103 c12 -8 27 -26 32 -40 13
-31 8 -247 -5 -258 -22 -20 -95 -34 -179 -34 -316 -2 -788 3 -832 8 -49 6 -53
8 -64 42 -6 20 -13 80 -14 135 -2 90 -1 101 20 125 16 18 36 28 71 32 27 4
252 6 499 5 368 -1 454 -4 472 -15z"/>
<path d="M1148 3279 c-7 -4 -7 -29 0 -75 8 -57 8 -217 -1 -389 l-2 -30 1160
-2 c638 -1 1240 -2 1338 -3 98 -2 180 0 183 3 3 2 5 116 6 251 l1 246 -1338 3
c-735 1 -1341 -1 -1347 -4z m2578 -54 c60 -11 64 -21 64 -179 0 -167 -8 -201
-53 -215 -21 -6 -465 -9 -1263 -8 -1196 2 -1233 3 -1253 21 -20 18 -21 29 -21
186 0 143 2 170 16 181 12 10 56 16 138 19 172 7 2332 3 2372 -5z"/>
<path d="M4208 3279 c-6 -4 -7 -20 -3 -37 9 -41 10 -379 1 -419 -4 -19 -3 -34
4 -38 6 -4 97 -6 203 -5 106 1 337 3 514 4 232 1 325 4 334 13 20 20 -36 23
-513 25 -405 3 -459 5 -473 19 -14 14 -16 43 -16 185 0 216 -11 204 185 204
591 1 772 6 796 19 l24 14 -22 8 c-26 10 -1019 17 -1034 8z"/>
<path d="M5701 3936 c-8 -9 -11 -67 -9 -181 l3 -167 423 1 c233 0 426 2 430 5
5 3 7 288 3 339 -1 4 -185 7 -410 6 -225 -1 -414 1 -419 5 -5 3 -15 0 -21 -8z
m714 -117 c22 -22 28 -81 12 -103 -13 -18 -31 -20 -258 -23 -331 -4 -379 7
-363 86 7 34 19 47 48 52 11 2 138 3 284 3 210 -1 266 -4 277 -15z"/>
<path d="M5682 3396 c-7 -12 -7 -324 0 -331 7 -7 1759 -7 1766 0 7 7 7 323 0
330 -10 10 -1760 10 -1766 1z m1636 -81 c18 -4 37 -16 42 -26 16 -30 12 -105
-7 -128 l-18 -22 -715 -4 c-393 -2 -741 -1 -773 2 -69 7 -85 25 -91 96 -4 50
8 68 54 85 30 11 1459 8 1508 -3z"/>
<path d="M5695 2850 c-1 -3 -2 -81 -1 -173 l1 -168 355 0 355 0 0 172 0 171
-353 2 c-195 0 -355 -1 -357 -4z m559 -89 c20 -4 35 -17 49 -44 17 -34 18 -41
6 -64 -28 -52 -46 -56 -237 -58 -97 -1 -194 2 -214 7 -52 12 -81 52 -73 98 9
49 20 58 73 63 80 6 365 5 396 -2z"/>
<path d="M6739 2855 c-6 0 -3 -345 3 -345 98 -4 692 1 696 5 4 4 6 304 3 335
-1 3 -158 5 -351 5 -192 0 -351 0 -351 0z m577 -105 c34 -21 51 -63 40 -98 -3
-10 -21 -26 -38 -37 -29 -17 -55 -20 -226 -22 -162 -2 -194 0 -199 12 -3 8
-13 15 -23 15 -22 0 -50 41 -50 73 0 25 25 60 50 70 8 3 104 6 214 6 183 1
201 -1 232 -19z"/>
<path d="M5693 2295 c-2 -6 -2 -86 -1 -178 l3 -168 720 1 c724 0 812 4 822 36
2 6 -15 19 -39 28 -38 16 -101 17 -638 17 -650 0 -743 3 -765 26 -16 15 -22
143 -7 143 4 1 32 3 62 6 30 2 372 6 760 7 545 1 713 -1 740 -11 21 -7 44 -27
59 -49 21 -33 25 -35 36 -20 15 20 28 148 17 159 -13 13 -1764 15 -1769 3z"/>
<path d="M3250 2372 c-33 -5 -47 -19 -34 -32 9 -9 308 -17 349 -10 6 1 25 1
43 0 35 -2 92 17 92 30 0 15 -91 21 -258 18 -92 -1 -178 -4 -192 -6z"/>
<path d="M7437 1883 c-9 -9 -9 -103 1 -103 4 0 137 0 297 -1 324 0 317 -2 306
68 l-6 38 -296 3 c-162 1 -298 -1 -302 -5z"/>
<path d="M7444 1688 c-6 -10 -8 -77 -3 -83 3 -2 135 -5 294 -5 l290 -2 0 47 0
46 -288 2 c-159 1 -291 -1 -293 -5z"/>
<path d="M7438 1509 c-5 -3 -8 -28 -6 -55 l3 -49 300 0 300 0 3 44 c2 24 -1
48 -6 53 -10 10 -578 17 -594 7z"/>
<path d="M7439 1316 c-11 -12 -12 -96 -1 -96 134 -4 584 0 592 5 13 8 13 82 0
90 -17 10 -580 11 -591 1z"/>
<path d="M7437 1123 c-9 -9 -9 -75 1 -88 4 -6 116 -10 300 -10 290 0 293 0
298 21 3 12 4 35 2 50 l-3 29 -296 3 c-162 1 -298 -1 -302 -5z"/>
<path d="M7433 934 c-2 -7 -3 -31 -1 -54 l3 -42 295 1 c162 0 298 0 303 1 4 0
7 23 7 50 0 28 -3 50 -7 50 -5 0 -140 2 -302 3 -212 1 -295 -1 -298 -9z"/>
<path d="M5970 709 c-303 -8 -372 -15 -368 -38 4 -22 64 -28 428 -40 322 -10
1083 -7 1122 4 58 18 57 49 -2 65 -45 12 -817 18 -1180 9z"/>
<path d="M7297 350 c-43 -4 -80 -10 -83 -13 -15 -14 91 -28 298 -39 177 -9
273 -9 445 1 120 7 235 15 256 18 67 9 36 28 -59 34 -121 9 -760 8 -857 -1z"/>
</g>
</svg>
